# This file uses centimeters as units for non-parametric coordinates.

mtllib blocker.mtl
g default
v 225.223175 0.641517 18.861531
v 191.586280 0.641517 -47.154589
v 139.195569 0.641517 -99.545285
v 73.179435 0.641517 -133.182180
v 0.000000 0.641517 -144.772639
v -73.179435 0.641517 -133.182152
v -139.195541 0.641517 -99.545243
v -191.586210 0.641517 -47.154546
v -225.223091 0.641517 18.861560
v -236.813563 0.641517 92.040976
v -225.223091 0.641517 165.220388
v -191.586196 0.641517 231.236494
v -139.195513 0.641517 283.627148
v -73.179414 0.641517 317.264043
v -0.000007 0.641517 328.854502
v 73.179393 0.641517 317.264029
v 139.195485 0.641517 283.627148
v 191.586153 0.641517 231.236480
v 225.223034 0.641517 165.220374
v 236.813507 0.641517 92.040976
v 0.000000 -44.053602 92.040976
vt 0.000000 0.500000
vt 0.050000 0.500000
vt 0.100000 0.500000
vt 0.150000 0.500000
vt 0.200000 0.500000
vt 0.250000 0.500000
vt 0.300000 0.500000
vt 0.350000 0.500000
vt 0.400000 0.500000
vt 0.450000 0.500000
vt 0.500000 0.500000
vt 0.550000 0.500000
vt 0.600000 0.500000
vt 0.650000 0.500000
vt 0.700000 0.500000
vt 0.750000 0.500000
vt 0.800000 0.500000
vt 0.850000 0.500000
vt 0.900000 0.500000
vt 0.950000 0.500000
vt 1.000000 0.500000
vt 0.025000 0.000000
vt 0.075000 0.000000
vt 0.125000 0.000000
vt 0.175000 0.000000
vt 0.225000 0.000000
vt 0.275000 0.000000
vt 0.325000 0.000000
vt 0.375000 0.000000
vt 0.425000 0.000000
vt 0.475000 0.000000
vt 0.525000 0.000000
vt 0.575000 0.000000
vt 0.625000 0.000000
vt 0.675000 0.000000
vt 0.725000 0.000000
vt 0.775000 0.000000
vt 0.825000 0.000000
vt 0.875000 0.000000
vt 0.925000 0.000000
vt 0.975000 0.000000
vn -0.150041 0.982652 0.109011
vn -0.000000 1.000000 0.000000
vn -0.176384 0.982652 0.057310
vn -0.109011 0.982652 0.150041
vn -0.057311 0.982652 0.176384
vn 0.000000 0.982652 0.185461
vn 0.057311 0.982652 0.176384
vn 0.109011 0.982652 0.150041
vn 0.150041 0.982652 0.109011
vn 0.176384 0.982652 0.057311
vn 0.185461 0.982652 0.000000
vn 0.176384 0.982652 -0.057311
vn 0.150041 0.982652 -0.109011
vn 0.109011 0.982652 -0.150041
vn 0.057311 0.982652 -0.176384
vn -0.000000 0.982652 -0.185461
vn -0.057311 0.982652 -0.176384
vn -0.109011 0.982652 -0.150041
vn -0.150041 0.982652 -0.109011
vn -0.176384 0.982652 -0.057311
vn -0.185461 0.982652 -0.000000
s 1
g pSphere1
usemtl initialShadingGroup
f 2/2/1 21/22/2 1/1/3
f 3/3/4 21/23/2 2/2/1
f 4/4/5 21/24/2 3/3/4
f 5/5/6 21/25/2 4/4/5
f 6/6/7 21/26/2 5/5/6
f 7/7/8 21/27/2 6/6/7
f 8/8/9 21/28/2 7/7/8
f 9/9/10 21/29/2 8/8/9
f 10/10/11 21/30/2 9/9/10
f 11/11/12 21/31/2 10/10/11
f 12/12/13 21/32/2 11/11/12
f 13/13/14 21/33/2 12/12/13
f 14/14/15 21/34/2 13/13/14
f 15/15/16 21/35/2 14/14/15
f 16/16/17 21/36/2 15/15/16
f 17/17/18 21/37/2 16/16/17
f 18/18/19 21/38/2 17/17/18
f 19/19/20 21/39/2 18/18/19
f 20/20/21 21/40/2 19/19/20
f 1/21/3 21/41/2 20/20/21
