# This file uses centimeters as units for non-parametric coordinates.

mtllib boatOars_lowPoly.mtl
g default
v 4.015878 -0.116650 33.699331
v 4.565792 -0.116650 33.730469
v 4.015878 -0.040196 33.699331
v 4.565792 -0.040196 33.730469
v 4.081128 -0.040196 32.547002
v 4.631042 -0.040196 32.578141
v 4.317755 -0.040196 32.488572
v 4.236783 -0.040196 33.918557
v 4.407621 -0.040196 32.493661
v 4.488984 -0.105405 29.698791
v 4.317755 -0.116650 32.488572
v 4.236783 -0.116650 33.918557
v 4.631042 -0.116650 32.578141
v 4.081128 -0.116650 32.547002
v 4.488984 -0.051441 29.698791
v 4.447566 -0.116650 30.196071
v 4.447566 -0.040196 30.196071
v 4.537432 -0.040196 30.201160
v 4.537432 -0.116650 30.201160
vt 0.381982 0.203875
vt 0.013162 0.037057
vt 0.408591 0.195224
vt 0.164845 0.000000
vt 0.458849 0.137710
vt 0.459244 0.165003
vt 0.164813 0.028367
vt 0.296144 0.191360
vt 0.000275 0.058748
vt 0.000000 0.086659
vt 0.296301 0.218231
vt 0.381703 0.176890
vt 0.013422 0.008758
vt 0.895600 0.436186
vt 0.894672 0.411077
vt 0.921473 0.428880
vt 0.920508 0.403711
vt 0.999261 0.459627
vt 1.000000 0.477092
vn -0.000000 1.000000 0.000000
vn 0.000000 1.000000 -0.000000
vn -0.000000 1.000000 0.000000
vn 0.998401 0.000000 0.056534
vn 0.998401 0.000000 0.056534
vn 0.998401 0.000000 0.056534
vn 0.998401 0.000000 0.056534
vn -0.998401 0.000000 -0.056534
vn -0.998401 0.000000 -0.056534
vn -0.998401 0.000000 -0.056534
vn -0.998401 0.000000 -0.056534
vn -0.000000 -1.000000 0.000000
vn -0.000000 -1.000000 0.000000
vn -0.000000 -1.000000 0.000000
vn -0.000000 -1.000000 0.000000
vn -0.239731 0.000000 -0.970839
vn -0.239731 0.000000 -0.970839
vn -0.239731 0.000000 -0.970839
vn -0.239731 0.000000 -0.970839
vn 0.000000 1.000000 -0.000000
vn 0.000000 1.000000 -0.000000
vn -0.704405 0.000000 0.709798
vn -0.056534 0.000000 0.998401
vn -0.056534 0.000000 0.998401
vn -0.704405 0.000000 0.709798
vn 0.496303 0.000000 0.868149
vn 0.496303 0.000000 0.868149
vn 0.000000 1.000000 0.000000
vn 0.000000 1.000000 0.000000
vn 0.305079 -0.147992 -0.940758
vn 0.305079 -0.147992 -0.940758
vn 0.305079 -0.147992 -0.940758
vn 0.305079 -0.147992 -0.940758
vn 0.000000 -1.000000 0.000000
vn 0.000000 -1.000000 0.000000
vn -0.998206 0.000000 -0.059878
vn -0.998206 0.000000 -0.059878
vn -0.998401 0.000000 -0.056534
vn -0.998401 0.000000 -0.056534
vn 0.000102 0.999998 -0.001803
vn 0.000121 0.999998 -0.002135
vn 0.859318 -0.507220 0.065574
vn 0.859318 -0.507220 0.065574
vn 0.888284 -0.456777 0.048017
vn 0.888284 -0.456777 0.048017
vn 0.000000 -1.000000 0.000000
vn 0.000221 -0.999992 -0.003899
vn 0.000198 -0.999994 -0.003503
vn 0.001274 -0.999746 -0.022501
vn 0.995382 0.000000 -0.095994
vn 0.995382 0.000000 -0.095994
vn 0.001274 0.999746 -0.022501
vn -0.996549 0.000000 -0.083002
vn -0.996549 0.000000 -0.083002
s 1
g Oar1 boat
usemtl lambert3SG
f 7/1/1 8/2/2 9/3/3
s off
f 2/4/4 13/5/5 6/6/6 4/7/7
f 14/8/8 1/9/9 3/10/10 5/11/11
s 2
f 14/8/12 11/12/13 12/13/14 1/9/15
s off
f 5/11/16 7/1/17 11/12/18 14/8/19
s 1
f 3/10/20 8/2/2 7/1/1 5/11/21
s 3
f 1/9/22 12/13/23 8/2/24 3/10/25
f 8/2/24 12/13/23 2/4/26 4/7/27
s 1
f 9/3/3 8/2/2 4/7/28 6/6/29
s off
f 13/5/30 11/12/31 9/3/32 6/6/33
s 2
f 12/13/14 11/12/13 13/5/34 2/4/35
s 4
f 17/14/36 16/15/37 11/12/38 7/1/39
s 1
f 7/1/1 9/3/3 18/16/40 17/14/41
s 5
f 9/3/42 11/12/43 19/17/44 18/16/45
s 6
f 11/12/46 16/15/47 19/17/48
f 19/17/48 16/15/47 10/18/49
s 5
f 18/16/45 19/17/44 10/18/50 15/19/51
s 1
f 17/14/41 18/16/40 15/19/52
s 4
f 15/19/53 10/18/54 16/15/37 17/14/36
g default
v 7.923461 -0.285231 34.734638
v 8.237539 -0.489337 34.330818
v 7.963970 -0.220404 34.733378
v 8.278048 -0.424510 34.329558
v 7.239405 0.217100 33.948703
v 7.553483 0.012994 33.544884
v 7.327216 0.157962 33.729162
v 8.226367 -0.384960 34.702906
v 7.378541 0.124608 33.663170
v 5.545576 1.157242 31.820326
v 7.286707 0.093135 33.730421
v 8.185858 -0.449786 34.704166
v 7.512974 -0.051834 33.546143
v 7.198896 0.152273 33.949963
v 5.574169 1.203000 31.819438
v 5.845221 0.963527 32.169350
v 5.885729 1.028354 32.168089
v 5.937055 0.995000 32.102098
v 5.896547 0.930172 32.103358
vt 0.152297 0.394127
vt 0.243097 0.015939
vt 0.177669 0.387126
vt 0.309187 0.034232
vt 0.232948 0.336066
vt 0.245978 0.351837
vt 0.323184 0.049996
vt 0.077480 0.378532
vt 0.145791 0.075277
vt 0.159473 0.091366
vt 0.090223 0.394615
vt 0.139485 0.378180
vt 0.229095 0.000000
vt 0.029601 0.905161
vt 0.018340 0.889447
vt 0.052740 0.897932
vt 0.041439 0.882265
vt 0.000000 0.988968
vt 0.007748 1.000000
vn 0.529846 0.847933 -0.016483
vn 0.529845 0.847934 -0.016482
vn 0.529845 0.847934 -0.016482
vn 0.570228 -0.370566 -0.733159
vn 0.570228 -0.370566 -0.733159
vn 0.570228 -0.370566 -0.733159
vn 0.570228 -0.370566 -0.733159
vn -0.570227 0.370567 0.733158
vn -0.570227 0.370567 0.733158
vn -0.570227 0.370567 0.733158
vn -0.570227 0.370567 0.733159
vn -0.529845 -0.847934 0.016482
vn -0.529846 -0.847934 0.016482
vn -0.529846 -0.847934 0.016482
vn -0.529845 -0.847934 0.016482
vn -0.767764 0.471320 -0.434046
vn -0.767764 0.471320 -0.434046
vn -0.767764 0.471320 -0.434046
vn -0.767764 0.471320 -0.434046
vn 0.529846 0.847934 -0.016483
vn 0.529846 0.847934 -0.016483
vn 0.091734 -0.037983 0.995059
vn 0.627776 -0.379066 0.679857
vn 0.627776 -0.379066 0.679858
vn 0.091734 -0.037983 0.995059
vn 0.837057 -0.519731 0.170928
vn 0.837057 -0.519731 0.170928
vn 0.529844 0.847935 -0.016480
vn 0.529844 0.847935 -0.016480
vn -0.535521 0.143926 -0.832167
vn -0.535521 0.143926 -0.832167
vn -0.535521 0.143926 -0.832167
vn -0.535521 0.143926 -0.832167
vn -0.529846 -0.847934 0.016483
vn -0.529846 -0.847934 0.016483
vn -0.572328 0.371833 0.730877
vn -0.572328 0.371833 0.730877
vn -0.570228 0.370566 0.733158
vn -0.570228 0.370566 0.733158
vn 0.528712 0.848616 -0.017711
vn 0.528503 0.848742 -0.017937
vn 0.233192 -0.755789 -0.611886
vn 0.233192 -0.755789 -0.611886
vn 0.263813 -0.716100 -0.646223
vn 0.263813 -0.716100 -0.646222
vn -0.529844 -0.847935 0.016481
vn -0.532292 -0.846448 0.013825
vn -0.532044 -0.846599 0.014095
vn -0.543858 -0.839177 0.001155
vn 0.468102 -0.308589 -0.828042
vn 0.468102 -0.308589 -0.828042
vn 0.515563 0.856261 -0.031801
vn -0.586683 0.380492 0.714863
vn -0.586683 0.380492 0.714863
s 1
g boat Oar2
usemtl lambert3SG
f 26/20/55 27/21/56 28/22/57
s off
f 21/23/58 32/24/59 25/25/60 23/26/61
f 33/27/62 20/28/63 22/29/64 24/30/65
s 2
f 33/27/66 30/31/67 31/32/68 20/28/69
s off
f 24/30/70 26/20/71 30/31/72 33/27/73
s 1
f 22/29/74 27/21/56 26/20/55 24/30/75
s 3
f 20/28/76 31/32/77 27/21/78 22/29/79
f 27/21/78 31/32/77 21/23/80 23/26/81
s 1
f 28/22/57 27/21/56 23/26/82 25/25/83
s off
f 32/24/84 30/31/85 28/22/86 25/25/87
s 2
f 31/32/68 30/31/67 32/24/88 21/23/89
s 4
f 36/33/90 35/34/91 30/31/92 26/20/93
s 1
f 26/20/55 28/22/57 37/35/94 36/33/95
s 5
f 28/22/96 30/31/97 38/36/98 37/35/99
s 6
f 30/31/100 35/34/101 38/36/102
f 38/36/102 35/34/101 29/37/103
s 5
f 37/35/99 38/36/98 29/37/104 34/38/105
s 1
f 36/33/95 37/35/94 34/38/106
s 4
f 34/38/107 29/37/108 35/34/91 36/33/90
