# This file uses centimeters as units for non-parametric coordinates.

mtllib bushes_lowPoly.mtl
g default
v 3.821178 10.051230 -10.065774
v 3.436284 10.051230 -10.071193
v 3.529310 10.051230 -9.697670
v 3.914205 10.051230 -9.692250
v 4.417774 10.619991 -10.818198
v 2.690031 10.619991 -10.662895
v 2.932715 10.619991 -8.945245
v 4.660458 10.619991 -9.100548
v 4.234247 11.309473 -10.586734
v 2.837975 11.309473 -10.545591
v 3.116242 11.309473 -9.176709
v 4.512514 11.309473 -9.217853
v 3.675244 11.780814 -9.881722
v 2.360061 10.242485 -10.010547
v 2.163826 10.242485 -9.881722
v 2.360061 10.242485 -9.752896
v 2.556297 10.242485 -9.881722
v 2.360061 10.619991 -10.537201
v 1.550999 10.619991 -9.881722
v 2.360061 10.619991 -9.226243
v 3.169123 10.619991 -9.881722
v 2.360061 11.077624 -10.375189
v 1.672492 11.077624 -9.881722
v 2.360061 11.077624 -9.388254
v 3.047631 11.077624 -9.881722
v 2.360061 11.461386 -9.881722
v -2.122717 9.995976 -9.969236
v -2.227022 9.995976 -9.837544
v -2.064713 9.995976 -9.794208
v -1.960408 9.995976 -9.925899
v -2.241279 10.619991 -10.327003
v -2.643328 10.619991 -9.699582
v -1.946151 10.619991 -9.436441
v -1.544102 10.619991 -10.063861
v -2.204806 11.587496 -10.216945
v -2.560796 11.587496 -9.726933
v -1.982624 11.587496 -9.546498
v -1.626634 11.587496 -10.036510
v -2.093715 12.398828 -9.881722
v -3.720632 10.048278 -10.109418
v -3.898249 10.048278 -9.788502
v -3.556999 10.048278 -9.654025
v -3.379382 10.048278 -9.974942
v -4.055106 10.619991 -11.040267
v -4.708436 10.619991 -9.497384
v -3.222525 10.619991 -8.723176
v -2.569195 10.619991 -10.266060
v -3.952214 11.313052 -10.753916
v -4.547817 11.313052 -9.555098
v -3.325418 11.313052 -9.009528
v -2.729814 11.313052 -10.208345
v -3.638816 11.646957 -9.881722
v -5.004940 10.349827 -9.950594
v -5.171140 10.349827 -9.975082
v -5.127518 10.349827 -9.812849
v -4.961318 10.349827 -9.788362
v -4.754383 10.619991 -10.232153
v -5.498768 10.619991 -10.266636
v -5.378075 10.619991 -9.531290
v -4.633689 10.619991 -9.496808
v -4.831460 10.947497 -10.145538
v -5.433816 10.947497 -10.208835
v -5.300998 10.947497 -9.617905
v -4.698641 10.947497 -9.554608
v -5.066229 11.222137 -9.881722
v 4.915988 10.135500 -9.965939
v 4.750189 10.135500 -9.938863
v 4.840962 10.135500 -9.797504
v 5.006761 10.135500 -9.824580
v 5.069344 10.619991 -10.310230
v 4.349565 10.619991 -10.117312
v 4.687607 10.619991 -9.453213
v 5.407386 10.619991 -9.646131
v 5.022168 11.417694 -10.204318
v 4.428988 11.417694 -10.081935
v 4.734783 11.417694 -9.559125
v 5.327962 11.417694 -9.681508
v 4.878475 12.086632 -9.881722
v 5.333761 10.417977 -9.912676
v 5.325047 10.417977 -9.823171
v 5.410637 10.417977 -9.850767
v 5.419352 10.417977 -9.940272
v 5.176623 10.619991 -10.039223
v 5.177794 10.619991 -9.640321
v 5.567775 10.619991 -9.724220
v 5.566604 10.619991 -10.123122
v 5.224963 10.864883 -10.000294
v 5.206987 10.864883 -9.676571
v 5.519435 10.864883 -9.763149
v 5.537411 10.864883 -10.086872
v 5.372199 11.070244 -9.881722
vt 0.000000 0.250000
vt 0.250000 0.250000
vt 0.500000 0.250000
vt 0.750000 0.250000
vt 1.000000 0.250000
vt 0.000000 0.500000
vt 0.250000 0.500000
vt 0.500000 0.500000
vt 0.750000 0.500000
vt 1.000000 0.500000
vt 0.000000 0.750000
vt 0.250000 0.750000
vt 0.500000 0.750000
vt 0.750000 0.750000
vt 1.000000 0.750000
vt 0.125000 1.000000
vt 0.375000 1.000000
vt 0.625000 1.000000
vt 0.875000 1.000000
vt 0.000000 0.250000
vt 0.250000 0.250000
vt 0.250000 0.500000
vt 0.000000 0.500000
vt 0.500000 0.250000
vt 0.500000 0.500000
vt 0.750000 0.250000
vt 0.750000 0.500000
vt 1.000000 0.250000
vt 1.000000 0.500000
vt 0.250000 0.750000
vt 0.000000 0.750000
vt 0.500000 0.750000
vt 0.750000 0.750000
vt 1.000000 0.750000
vt 0.125000 1.000000
vt 0.375000 1.000000
vt 0.625000 1.000000
vt 0.875000 1.000000
vt 0.000000 0.250000
vt 0.250000 0.250000
vt 0.250000 0.500000
vt 0.000000 0.500000
vt 0.500000 0.250000
vt 0.500000 0.500000
vt 0.750000 0.250000
vt 0.750000 0.500000
vt 1.000000 0.250000
vt 1.000000 0.500000
vt 0.250000 0.750000
vt 0.000000 0.750000
vt 0.500000 0.750000
vt 0.750000 0.750000
vt 1.000000 0.750000
vt 0.125000 1.000000
vt 0.375000 1.000000
vt 0.625000 1.000000
vt 0.875000 1.000000
vt 0.000000 0.250000
vt 0.250000 0.250000
vt 0.250000 0.500000
vt 0.000000 0.500000
vt 0.500000 0.250000
vt 0.500000 0.500000
vt 0.750000 0.250000
vt 0.750000 0.500000
vt 1.000000 0.250000
vt 1.000000 0.500000
vt 0.250000 0.750000
vt 0.000000 0.750000
vt 0.500000 0.750000
vt 0.750000 0.750000
vt 1.000000 0.750000
vt 0.125000 1.000000
vt 0.375000 1.000000
vt 0.625000 1.000000
vt 0.875000 1.000000
vt 0.000000 0.250000
vt 0.250000 0.250000
vt 0.250000 0.500000
vt 0.000000 0.500000
vt 0.500000 0.250000
vt 0.500000 0.500000
vt 0.750000 0.250000
vt 0.750000 0.500000
vt 1.000000 0.250000
vt 1.000000 0.500000
vt 0.250000 0.750000
vt 0.000000 0.750000
vt 0.500000 0.750000
vt 0.750000 0.750000
vt 1.000000 0.750000
vt 0.125000 1.000000
vt 0.375000 1.000000
vt 0.625000 1.000000
vt 0.875000 1.000000
vt 0.000000 0.250000
vt 0.250000 0.250000
vt 0.250000 0.500000
vt 0.000000 0.500000
vt 0.500000 0.250000
vt 0.500000 0.500000
vt 0.750000 0.250000
vt 0.750000 0.500000
vt 1.000000 0.250000
vt 1.000000 0.500000
vt 0.250000 0.750000
vt 0.000000 0.750000
vt 0.500000 0.750000
vt 0.750000 0.750000
vt 1.000000 0.750000
vt 0.125000 1.000000
vt 0.375000 1.000000
vt 0.625000 1.000000
vt 0.875000 1.000000
vt 0.000000 0.250000
vt 0.250000 0.250000
vt 0.250000 0.500000
vt 0.000000 0.500000
vt 0.500000 0.250000
vt 0.500000 0.500000
vt 0.750000 0.250000
vt 0.750000 0.500000
vt 1.000000 0.250000
vt 1.000000 0.500000
vt 0.250000 0.750000
vt 0.000000 0.750000
vt 0.500000 0.750000
vt 0.750000 0.750000
vt 1.000000 0.750000
vt 0.125000 1.000000
vt 0.375000 1.000000
vt 0.625000 1.000000
vt 0.875000 1.000000
vn -0.045574 -0.765039 -0.642369
vn -0.045574 -0.765039 -0.642369
vn -0.045574 -0.765039 -0.642369
vn -0.045574 -0.765039 -0.642369
vn -0.635844 -0.765038 0.102076
vn -0.635844 -0.765038 0.102076
vn -0.635844 -0.765038 0.102076
vn -0.635844 -0.765038 0.102076
vn 0.045574 -0.765039 0.642369
vn 0.045574 -0.765039 0.642369
vn 0.045574 -0.765039 0.642369
vn 0.045574 -0.765039 0.642369
vn 0.635844 -0.765038 -0.102075
vn 0.635844 -0.765038 -0.102075
vn 0.635844 -0.765038 -0.102075
vn 0.635844 -0.765038 -0.102075
vn -0.060874 0.243268 -0.968047
vn -0.060874 0.243268 -0.968047
vn -0.060874 0.243268 -0.968047
vn -0.060874 0.243268 -0.968047
vn -0.956432 0.243268 0.161429
vn -0.956432 0.243268 0.161429
vn -0.956432 0.243268 0.161429
vn -0.956432 0.243268 0.161429
vn 0.060873 0.243268 0.968047
vn 0.060873 0.243268 0.968047
vn 0.060873 0.243268 0.968047
vn 0.060873 0.243268 0.968047
vn 0.956432 0.243268 -0.161429
vn 0.956432 0.243268 -0.161429
vn 0.956432 0.243268 -0.161429
vn 0.956432 0.243268 -0.161429
vn -0.016643 0.825063 -0.564796
vn -0.016643 0.825063 -0.564796
vn -0.016643 0.825063 -0.564796
vn -0.553717 0.825063 0.112560
vn -0.553717 0.825063 0.112560
vn -0.553717 0.825063 0.112560
vn 0.016643 0.825062 0.564797
vn 0.016643 0.825062 0.564797
vn 0.016643 0.825062 0.564796
vn 0.553716 0.825063 -0.112560
vn 0.553716 0.825063 -0.112560
vn 0.553716 0.825063 -0.112560
vn -0.424378 -0.723889 -0.543956
vn -0.424378 -0.723889 -0.543956
vn -0.424378 -0.723889 -0.543956
vn -0.424378 -0.723889 -0.543956
vn -0.424378 -0.723890 0.543955
vn -0.424378 -0.723890 0.543955
vn -0.424378 -0.723890 0.543955
vn -0.424378 -0.723890 0.543955
vn 0.424378 -0.723889 0.543956
vn 0.424378 -0.723889 0.543956
vn 0.424378 -0.723889 0.543956
vn 0.424378 -0.723889 0.543956
vn 0.424378 -0.723889 -0.543956
vn 0.424378 -0.723889 -0.543956
vn 0.424378 -0.723889 -0.543956
vn 0.424378 -0.723889 -0.543956
vn -0.594565 0.216014 -0.774487
vn -0.594565 0.216014 -0.774487
vn -0.594565 0.216014 -0.774487
vn -0.594565 0.216014 -0.774487
vn -0.594564 0.216014 0.774488
vn -0.594564 0.216014 0.774488
vn -0.594564 0.216014 0.774488
vn -0.594564 0.216014 0.774488
vn 0.594565 0.216015 0.774487
vn 0.594565 0.216015 0.774487
vn 0.594565 0.216014 0.774487
vn 0.594565 0.216015 0.774487
vn 0.594565 0.216014 -0.774487
vn 0.594565 0.216014 -0.774487
vn 0.594565 0.216014 -0.774487
vn 0.594565 0.216014 -0.774487
vn -0.403192 0.722382 -0.561784
vn -0.403192 0.722382 -0.561784
vn -0.403192 0.722382 -0.561784
vn -0.403193 0.722382 0.561783
vn -0.403193 0.722382 0.561783
vn -0.403193 0.722382 0.561783
vn 0.403192 0.722380 0.561786
vn 0.403192 0.722380 0.561786
vn 0.403192 0.722380 0.561786
vn 0.403191 0.722380 -0.561786
vn 0.403191 0.722380 -0.561786
vn 0.403191 0.722380 -0.561786
vn -0.757422 -0.413591 -0.505227
vn -0.757422 -0.413591 -0.505227
vn -0.757422 -0.413591 -0.505227
vn -0.757422 -0.413591 -0.505227
vn -0.305796 -0.413590 0.857573
vn -0.305796 -0.413590 0.857573
vn -0.305796 -0.413590 0.857573
vn -0.305796 -0.413590 0.857573
vn 0.757423 -0.413590 0.505227
vn 0.757423 -0.413590 0.505227
vn 0.757423 -0.413590 0.505227
vn 0.757423 -0.413590 0.505227
vn 0.305796 -0.413590 -0.857573
vn 0.305796 -0.413590 -0.857573
vn 0.305796 -0.413590 -0.857573
vn 0.305796 -0.413590 -0.857573
vn -0.825240 0.074681 -0.559823
vn -0.825240 0.074681 -0.559823
vn -0.825240 0.074681 -0.559823
vn -0.825240 0.074681 -0.559823
vn -0.327588 0.074681 0.941865
vn -0.327588 0.074681 0.941865
vn -0.327588 0.074681 0.941865
vn -0.327588 0.074681 0.941865
vn 0.825240 0.074681 0.559823
vn 0.825240 0.074681 0.559823
vn 0.825240 0.074681 0.559823
vn 0.825240 0.074681 0.559823
vn 0.327588 0.074681 -0.941865
vn 0.327588 0.074681 -0.941865
vn 0.327588 0.074681 -0.941865
vn 0.327588 0.074681 -0.941865
vn -0.762750 0.333394 -0.554131
vn -0.762750 0.333394 -0.554131
vn -0.762750 0.333394 -0.554131
vn -0.280865 0.333393 0.899980
vn -0.280865 0.333393 0.899980
vn -0.280865 0.333393 0.899980
vn 0.762750 0.333393 0.554131
vn 0.762750 0.333393 0.554131
vn 0.762750 0.333393 0.554131
vn 0.280864 0.333393 -0.899980
vn 0.280864 0.333393 -0.899980
vn 0.280864 0.333393 -0.899980
vn -0.601649 -0.752375 -0.268235
vn -0.601649 -0.752375 -0.268235
vn -0.601649 -0.752375 -0.268235
vn -0.601649 -0.752375 -0.268235
vn -0.293331 -0.752374 0.589822
vn -0.293330 -0.752374 0.589822
vn -0.293330 -0.752374 0.589822
vn -0.293330 -0.752374 0.589822
vn 0.601650 -0.752375 0.268235
vn 0.601650 -0.752375 0.268235
vn 0.601650 -0.752375 0.268235
vn 0.601650 -0.752375 0.268235
vn 0.293331 -0.752375 -0.589822
vn 0.293331 -0.752375 -0.589822
vn 0.293331 -0.752375 -0.589821
vn 0.293331 -0.752375 -0.589822
vn -0.884621 0.234643 -0.402974
vn -0.884621 0.234643 -0.402974
vn -0.884621 0.234643 -0.402974
vn -0.884621 0.234643 -0.402974
vn -0.425832 0.234643 0.873848
vn -0.425832 0.234643 0.873848
vn -0.425832 0.234643 0.873848
vn -0.425832 0.234643 0.873848
vn 0.884622 0.234642 0.402974
vn 0.884622 0.234642 0.402974
vn 0.884621 0.234642 0.402974
vn 0.884621 0.234642 0.402974
vn 0.425832 0.234642 -0.873848
vn 0.425832 0.234642 -0.873848
vn 0.425832 0.234642 -0.873848
vn 0.425832 0.234642 -0.873848
vn -0.400062 0.894675 -0.198761
vn -0.400062 0.894675 -0.198761
vn -0.400062 0.894675 -0.198762
vn -0.182064 0.894675 0.407933
vn -0.182064 0.894675 0.407933
vn -0.182064 0.894675 0.407933
vn 0.400062 0.894675 0.198761
vn 0.400062 0.894675 0.198761
vn 0.400062 0.894676 0.198761
vn 0.182064 0.894675 -0.407932
vn 0.182064 0.894675 -0.407933
vn 0.182064 0.894675 -0.407933
vn 0.044586 -0.723888 -0.688475
vn 0.044586 -0.723888 -0.688475
vn 0.044586 -0.723888 -0.688475
vn 0.044586 -0.723888 -0.688475
vn -0.678639 -0.723889 0.124234
vn -0.678639 -0.723889 0.124234
vn -0.678639 -0.723889 0.124234
vn -0.678639 -0.723889 0.124234
vn -0.044586 -0.723888 0.688475
vn -0.044586 -0.723888 0.688475
vn -0.044586 -0.723888 0.688475
vn -0.044586 -0.723888 0.688475
vn 0.678639 -0.723889 -0.124234
vn 0.678639 -0.723889 -0.124234
vn 0.678639 -0.723889 -0.124234
vn 0.678639 -0.723889 -0.124234
vn 0.070704 0.216014 -0.973827
vn 0.070704 0.216014 -0.973827
vn 0.070704 0.216014 -0.973827
vn 0.070704 0.216014 -0.973827
vn -0.959028 0.216014 0.183314
vn -0.959028 0.216014 0.183314
vn -0.959028 0.216014 0.183314
vn -0.959028 0.216014 0.183314
vn -0.070704 0.216014 0.973827
vn -0.070704 0.216014 0.973827
vn -0.070704 0.216014 0.973827
vn -0.070704 0.216014 0.973827
vn 0.959027 0.216015 -0.183314
vn 0.959027 0.216015 -0.183314
vn 0.959027 0.216015 -0.183314
vn 0.959027 0.216015 -0.183314
vn 0.072267 0.722381 -0.687709
vn 0.072267 0.722381 -0.687709
vn 0.072267 0.722381 -0.687709
vn -0.674664 0.722380 0.151642
vn -0.674664 0.722380 0.151642
vn -0.674664 0.722380 0.151642
vn -0.072266 0.722381 0.687709
vn -0.072266 0.722381 0.687709
vn -0.072266 0.722381 0.687709
vn 0.674664 0.722380 -0.151642
vn 0.674664 0.722380 -0.151642
vn 0.674664 0.722380 -0.151642
vn -0.208090 -0.504998 -0.837661
vn -0.208090 -0.504998 -0.837661
vn -0.208090 -0.504998 -0.837661
vn -0.208090 -0.504998 -0.837661
vn -0.761877 -0.504997 0.405613
vn -0.761877 -0.504997 0.405613
vn -0.761877 -0.504997 0.405613
vn -0.761877 -0.504997 0.405613
vn 0.208091 -0.504998 0.837661
vn 0.208091 -0.504998 0.837660
vn 0.208091 -0.504998 0.837661
vn 0.208091 -0.504998 0.837661
vn 0.761877 -0.504998 -0.405612
vn 0.761877 -0.504998 -0.405612
vn 0.761877 -0.504998 -0.405612
vn 0.761877 -0.504998 -0.405612
vn -0.232550 0.090459 -0.968369
vn -0.232550 0.090459 -0.968369
vn -0.232550 0.090459 -0.968369
vn -0.232550 0.090459 -0.968369
vn -0.875400 0.090459 0.474860
vn -0.875400 0.090459 0.474860
vn -0.875400 0.090459 0.474860
vn -0.875400 0.090459 0.474860
vn 0.232549 0.090459 0.968369
vn 0.232549 0.090459 0.968369
vn 0.232549 0.090459 0.968369
vn 0.232549 0.090459 0.968369
vn 0.875400 0.090460 -0.474860
vn 0.875400 0.090460 -0.474860
vn 0.875400 0.090460 -0.474860
vn 0.875400 0.090460 -0.474860
vn -0.185701 0.394174 -0.900079
vn -0.185701 0.394173 -0.900079
vn -0.185701 0.394174 -0.900079
vn -0.793299 0.394174 0.464007
vn -0.793299 0.394174 0.464007
vn -0.793299 0.394174 0.464007
vn 0.185701 0.394173 0.900079
vn 0.185701 0.394173 0.900079
vn 0.185701 0.394173 0.900079
vn 0.793300 0.394173 -0.464008
vn 0.793300 0.394173 -0.464008
vn 0.793300 0.394173 -0.464008
vn -0.799465 -0.600586 -0.012348
vn -0.799465 -0.600586 -0.012348
vn -0.799465 -0.600586 -0.012348
vn -0.799465 -0.600586 -0.012348
vn 0.182503 -0.600586 0.778453
vn 0.182503 -0.600586 0.778453
vn 0.182503 -0.600586 0.778453
vn 0.182503 -0.600586 0.778453
vn 0.799465 -0.600585 0.012348
vn 0.799465 -0.600585 0.012348
vn 0.799465 -0.600585 0.012348
vn 0.799465 -0.600585 0.012348
vn -0.182505 -0.600586 -0.778452
vn -0.182505 -0.600586 -0.778452
vn -0.182505 -0.600586 -0.778452
vn -0.182505 -0.600586 -0.778452
vn -0.987422 0.156433 -0.022963
vn -0.987422 0.156433 -0.022963
vn -0.987422 0.156433 -0.022963
vn -0.987422 0.156433 -0.022963
vn 0.232946 0.156433 0.959825
vn 0.232946 0.156433 0.959825
vn 0.232946 0.156433 0.959825
vn 0.232946 0.156433 0.959825
vn 0.987422 0.156433 0.022963
vn 0.987422 0.156433 0.022963
vn 0.987422 0.156433 0.022963
vn 0.987422 0.156433 0.022963
vn -0.232947 0.156433 -0.959825
vn -0.232947 0.156433 -0.959825
vn -0.232947 0.156433 -0.959825
vn -0.232947 0.156433 -0.959825
vn -0.799587 0.598907 -0.044399
vn -0.799587 0.598907 -0.044399
vn -0.799587 0.598907 -0.044399
vn 0.213847 0.598913 0.771733
vn 0.213847 0.598913 0.771734
vn 0.213847 0.598913 0.771733
vn 0.799585 0.598909 0.044398
vn 0.799585 0.598909 0.044398
vn 0.799585 0.598909 0.044398
vn -0.213847 0.598913 -0.771733
vn -0.213847 0.598913 -0.771734
vn -0.213847 0.598913 -0.771733
s off
g cabin_b:pSphere8 house
usemtl initialShadingGroup
f 1/1/1 2/2/2 6/7/3 5/6/4
f 2/2/5 3/3/6 7/8/7 6/7/8
f 3/3/9 4/4/10 8/9/11 7/8/12
f 4/4/13 1/5/14 5/10/15 8/9/16
f 5/6/17 6/7/18 10/12/19 9/11/20
f 6/7/21 7/8/22 11/13/23 10/12/24
f 7/8/25 8/9/26 12/14/27 11/13/28
f 8/9/29 5/10/30 9/15/31 12/14/32
f 9/11/33 10/12/34 13/16/35
f 10/12/36 11/13/37 13/17/38
f 11/13/39 12/14/40 13/18/41
f 12/14/42 9/15/43 13/19/44
f 14/20/45 15/21/46 19/22/47 18/23/48
f 15/21/49 16/24/50 20/25/51 19/22/52
f 16/24/53 17/26/54 21/27/55 20/25/56
f 17/26/57 14/28/58 18/29/59 21/27/60
f 18/23/61 19/22/62 23/30/63 22/31/64
f 19/22/65 20/25/66 24/32/67 23/30/68
f 20/25/69 21/27/70 25/33/71 24/32/72
f 21/27/73 18/29/74 22/34/75 25/33/76
f 22/31/77 23/30/78 26/35/79
f 23/30/80 24/32/81 26/36/82
f 24/32/83 25/33/84 26/37/85
f 25/33/86 22/34/87 26/38/88
f 27/39/89 28/40/90 32/41/91 31/42/92
f 28/40/93 29/43/94 33/44/95 32/41/96
f 29/43/97 30/45/98 34/46/99 33/44/100
f 30/45/101 27/47/102 31/48/103 34/46/104
f 31/42/105 32/41/106 36/49/107 35/50/108
f 32/41/109 33/44/110 37/51/111 36/49/112
f 33/44/113 34/46/114 38/52/115 37/51/116
f 34/46/117 31/48/118 35/53/119 38/52/120
f 35/50/121 36/49/122 39/54/123
f 36/49/124 37/51/125 39/55/126
f 37/51/127 38/52/128 39/56/129
f 38/52/130 35/53/131 39/57/132
f 40/58/133 41/59/134 45/60/135 44/61/136
f 41/59/137 42/62/138 46/63/139 45/60/140
f 42/62/141 43/64/142 47/65/143 46/63/144
f 43/64/145 40/66/146 44/67/147 47/65/148
f 44/61/149 45/60/150 49/68/151 48/69/152
f 45/60/153 46/63/154 50/70/155 49/68/156
f 46/63/157 47/65/158 51/71/159 50/70/160
f 47/65/161 44/67/162 48/72/163 51/71/164
f 48/69/165 49/68/166 52/73/167
f 49/68/168 50/70/169 52/74/170
f 50/70/171 51/71/172 52/75/173
f 51/71/174 48/72/175 52/76/176
f 53/77/177 54/78/178 58/79/179 57/80/180
f 54/78/181 55/81/182 59/82/183 58/79/184
f 55/81/185 56/83/186 60/84/187 59/82/188
f 56/83/189 53/85/190 57/86/191 60/84/192
f 57/80/193 58/79/194 62/87/195 61/88/196
f 58/79/197 59/82/198 63/89/199 62/87/200
f 59/82/201 60/84/202 64/90/203 63/89/204
f 60/84/205 57/86/206 61/91/207 64/90/208
f 61/88/209 62/87/210 65/92/211
f 62/87/212 63/89/213 65/93/214
f 63/89/215 64/90/216 65/94/217
f 64/90/218 61/91/219 65/95/220
f 66/96/221 67/97/222 71/98/223 70/99/224
f 67/97/225 68/100/226 72/101/227 71/98/228
f 68/100/229 69/102/230 73/103/231 72/101/232
f 69/102/233 66/104/234 70/105/235 73/103/236
f 70/99/237 71/98/238 75/106/239 74/107/240
f 71/98/241 72/101/242 76/108/243 75/106/244
f 72/101/245 73/103/246 77/109/247 76/108/248
f 73/103/249 70/105/250 74/110/251 77/109/252
f 74/107/253 75/106/254 78/111/255
f 75/106/256 76/108/257 78/112/258
f 76/108/259 77/109/260 78/113/261
f 77/109/262 74/110/263 78/114/264
f 79/115/265 80/116/266 84/117/267 83/118/268
f 80/116/269 81/119/270 85/120/271 84/117/272
f 81/119/273 82/121/274 86/122/275 85/120/276
f 82/121/277 79/123/278 83/124/279 86/122/280
f 83/118/281 84/117/282 88/125/283 87/126/284
f 84/117/285 85/120/286 89/127/287 88/125/288
f 85/120/289 86/122/290 90/128/291 89/127/292
f 86/122/293 83/124/294 87/129/295 90/128/296
f 87/126/297 88/125/298 91/130/299
f 88/125/300 89/127/301 91/131/302
f 89/127/303 90/128/304 91/132/305
f 90/128/306 87/129/307 91/133/308
