# This file uses centimeters as units for non-parametric coordinates.

mtllib deckUnderPlank.mtl
g default
v -1.284822 -0.041902 22.674519
v -1.239947 -0.041902 42.171518
v -1.284822 0.037273 22.674519
v -1.239947 0.037273 42.171518
v -1.043089 0.037273 22.673963
v -0.998214 0.037273 42.170961
v -1.043089 -0.041902 22.673963
v -0.998214 -0.041902 42.170961
vt 0.375000 0.000000
vt 0.625000 0.000000
vt 0.375000 0.250000
vt 0.625000 0.250000
vt 0.375000 0.500000
vt 0.625000 0.500000
vt 0.375000 0.750000
vt 0.625000 0.750000
vt 0.875000 0.000000
vt 0.875000 0.250000
vn -0.999997 0.000000 0.002302
vn -0.999997 0.000000 0.002302
vn -0.999997 0.000000 0.002302
vn -0.999997 0.000000 0.002302
vn 0.000000 1.000000 0.000000
vn 0.000000 1.000000 0.000000
vn 0.000000 1.000000 0.000000
vn 0.000000 1.000000 0.000000
vn 0.999997 0.000000 -0.002302
vn 0.999997 0.000000 -0.002302
vn 0.999997 0.000000 -0.002302
vn 0.999997 0.000000 -0.002302
vn 0.002302 0.000000 0.999997
vn 0.002302 0.000000 0.999997
vn 0.002302 0.000000 0.999997
vn 0.002302 0.000000 0.999997
s off
g LOWPOLY_DOCK:pCube23 dock
usemtl LOWPOLY_DOCK:lambert7SG
f 1/1/1 2/2/2 4/4/3 3/3/4
f 3/3/5 4/4/6 6/6/7 5/5/8
f 5/5/9 6/6/10 8/8/11 7/7/12
f 2/2/13 8/9/14 6/10/15 4/4/16
g default
v 0.847076 -0.041902 22.451104
v 0.892882 -0.041902 42.352318
v 0.847076 0.037273 22.451104
v 0.892882 0.037273 42.352318
v 1.088809 0.037273 22.450548
v 1.134614 0.037273 42.351761
v 1.088809 -0.041902 22.450548
v 1.134614 -0.041902 42.351761
vt 0.375000 0.000000
vt 0.625000 0.000000
vt 0.375000 0.250000
vt 0.625000 0.250000
vt 0.375000 0.500000
vt 0.625000 0.500000
vt 0.375000 0.750000
vt 0.625000 0.750000
vt 0.875000 0.000000
vt 0.875000 0.250000
vn -0.999997 0.000000 0.002302
vn -0.999997 0.000000 0.002302
vn -0.999997 0.000000 0.002302
vn -0.999997 0.000000 0.002302
vn 0.000000 1.000000 0.000000
vn 0.000000 1.000000 0.000000
vn 0.000000 1.000000 0.000000
vn 0.000000 1.000000 0.000000
vn 0.999997 0.000000 -0.002302
vn 0.999997 0.000000 -0.002302
vn 0.999997 0.000000 -0.002302
vn 0.999997 0.000000 -0.002302
vn 0.002302 0.000000 0.999997
vn 0.002302 0.000000 0.999997
vn 0.002302 0.000000 0.999997
vn 0.002302 0.000000 0.999997
s off
g dock LOWPOLY_DOCK:pCube22
usemtl LOWPOLY_DOCK:lambert7SG
f 9/11/17 10/12/18 12/14/19 11/13/20
f 11/13/21 12/14/22 14/16/23 13/15/24
f 13/15/25 14/16/26 16/18/27 15/17/28
f 10/12/29 16/19/30 14/20/31 12/14/32
g default
v 14.602171 0.091492 41.979285
v -2.705540 0.091492 42.085615
v 14.602171 0.170666 41.979285
v -2.705540 0.170666 42.085615
v 14.603657 0.170666 42.221013
v -2.704054 0.170666 42.327344
v 14.603657 0.091492 42.221013
v -2.704054 0.091492 42.327344
vt 0.375000 0.000000
vt 0.625000 0.000000
vt 0.625000 0.250000
vt 0.375000 0.250000
vt 0.625000 0.500000
vt 0.375000 0.500000
vt 0.625000 0.750000
vt 0.375000 0.750000
vt 0.875000 0.000000
vt 0.875000 0.250000
vt 0.125000 0.000000
vt 0.125000 0.250000
vn -0.006143 0.000000 -0.999981
vn -0.006143 0.000000 -0.999981
vn -0.006143 0.000000 -0.999981
vn -0.006143 0.000000 -0.999981
vn 0.000000 1.000000 0.000000
vn 0.000000 1.000000 0.000000
vn 0.000000 1.000000 0.000000
vn 0.000000 1.000000 0.000000
vn 0.006143 0.000000 0.999981
vn 0.006143 0.000000 0.999981
vn 0.006143 0.000000 0.999981
vn 0.006143 0.000000 0.999981
vn -0.999981 0.000000 0.006147
vn -0.999981 0.000000 0.006147
vn -0.999981 0.000000 0.006147
vn -0.999981 0.000000 0.006147
vn 0.999981 0.000000 -0.006150
vn 0.999981 0.000000 -0.006150
vn 0.999981 0.000000 -0.006150
vn 0.999981 0.000000 -0.006150
s off
g dock LOWPOLY_DOCK:polySurface2 LOWPOLY_DOCK:pCube43
usemtl LOWPOLY_DOCK:lambert7SG
f 17/21/33 18/22/34 20/23/35 19/24/36
f 19/24/37 20/23/38 22/25/39 21/26/40
f 21/26/41 22/25/42 24/27/43 23/28/44
f 18/22/45 24/29/46 22/30/47 20/23/48
f 23/31/49 17/21/50 19/24/51 21/32/52
g default
v 14.548568 0.091492 44.112042
v -2.608912 0.091492 44.217450
v 14.548568 0.170666 44.112042
v -2.608912 0.170666 44.217450
v 14.550053 0.170666 44.353771
v -2.607426 0.170666 44.459179
v 14.550053 0.091492 44.353771
v -2.607426 0.091492 44.459179
vt 0.375000 0.000000
vt 0.625000 0.000000
vt 0.625000 0.250000
vt 0.375000 0.250000
vt 0.625000 0.500000
vt 0.375000 0.500000
vt 0.625000 0.750000
vt 0.375000 0.750000
vt 0.875000 0.000000
vt 0.875000 0.250000
vt 0.125000 0.000000
vt 0.125000 0.250000
vn -0.006143 0.000000 -0.999981
vn -0.006143 0.000000 -0.999981
vn -0.006143 0.000000 -0.999981
vn -0.006143 0.000000 -0.999981
vn 0.000000 1.000000 0.000000
vn 0.000000 1.000000 0.000000
vn 0.000000 1.000000 0.000000
vn 0.000000 1.000000 0.000000
vn 0.006143 0.000000 0.999981
vn 0.006143 0.000000 0.999981
vn 0.006143 0.000000 0.999981
vn 0.006143 0.000000 0.999981
vn -0.999981 0.000000 0.006147
vn -0.999981 0.000000 0.006147
vn -0.999981 0.000000 0.006147
vn -0.999981 0.000000 0.006147
vn 0.999981 0.000000 -0.006150
vn 0.999981 0.000000 -0.006150
vn 0.999981 0.000000 -0.006150
vn 0.999981 0.000000 -0.006150
s off
g dock LOWPOLY_DOCK:pCube43 LOWPOLY_DOCK:polySurface1
usemtl LOWPOLY_DOCK:lambert7SG
f 25/33/53 26/34/54 28/35/55 27/36/56
f 27/36/57 28/35/58 30/37/59 29/38/60
f 29/38/61 30/37/62 32/39/63 31/40/64
f 26/34/65 32/41/66 30/42/67 28/35/68
f 31/43/69 25/33/70 27/36/71 29/44/72
g default
v 14.548568 0.091492 46.432559
v -2.608912 0.091492 46.537967
v 14.548568 0.170666 46.432559
v -2.608912 0.170666 46.537967
v 14.550053 0.170666 46.674288
v -2.607426 0.170666 46.779696
v 14.550053 0.091492 46.674288
v -2.607426 0.091492 46.779696
vt 0.375000 0.000000
vt 0.625000 0.000000
vt 0.625000 0.250000
vt 0.375000 0.250000
vt 0.625000 0.500000
vt 0.375000 0.500000
vt 0.625000 0.750000
vt 0.375000 0.750000
vt 0.875000 0.000000
vt 0.875000 0.250000
vt 0.125000 0.000000
vt 0.125000 0.250000
vn -0.006143 0.000000 -0.999981
vn -0.006143 0.000000 -0.999981
vn -0.006143 0.000000 -0.999981
vn -0.006143 0.000000 -0.999981
vn 0.000000 1.000000 0.000000
vn 0.000000 1.000000 0.000000
vn 0.000000 1.000000 0.000000
vn 0.000000 1.000000 0.000000
vn 0.006143 0.000000 0.999981
vn 0.006143 0.000000 0.999981
vn 0.006143 0.000000 0.999981
vn 0.006143 0.000000 0.999981
vn -0.999981 0.000000 0.006147
vn -0.999981 0.000000 0.006147
vn -0.999981 0.000000 0.006147
vn -0.999981 0.000000 0.006147
vn 0.999981 0.000000 -0.006150
vn 0.999981 0.000000 -0.006150
vn 0.999981 0.000000 -0.006150
vn 0.999981 0.000000 -0.006150
s off
g dock LOWPOLY_DOCK:pCube43 LOWPOLY_DOCK:polySurface20
usemtl LOWPOLY_DOCK:lambert7SG
f 33/45/73 34/46/74 36/47/75 35/48/76
f 35/48/77 36/47/78 38/49/79 37/50/80
f 37/50/81 38/49/82 40/51/83 39/52/84
f 34/46/85 40/53/86 38/54/87 36/47/88
f 39/55/89 33/45/90 35/48/91 37/56/92
g default
v 14.548568 0.091492 48.838213
v -2.608912 0.091492 48.943621
v 14.548568 0.170666 48.838213
v -2.608912 0.170666 48.943621
v 14.550053 0.170666 49.079942
v -2.607426 0.170666 49.185350
v 14.550053 0.091492 49.079942
v -2.607426 0.091492 49.185350
vt 0.375000 0.000000
vt 0.625000 0.000000
vt 0.625000 0.250000
vt 0.375000 0.250000
vt 0.625000 0.500000
vt 0.375000 0.500000
vt 0.625000 0.750000
vt 0.375000 0.750000
vt 0.875000 0.000000
vt 0.875000 0.250000
vt 0.125000 0.000000
vt 0.125000 0.250000
vn -0.006143 0.000000 -0.999981
vn -0.006143 0.000000 -0.999981
vn -0.006143 0.000000 -0.999981
vn -0.006143 0.000000 -0.999981
vn 0.000000 1.000000 0.000000
vn 0.000000 1.000000 0.000000
vn 0.000000 1.000000 0.000000
vn 0.000000 1.000000 0.000000
vn 0.006143 0.000000 0.999981
vn 0.006143 0.000000 0.999981
vn 0.006143 0.000000 0.999981
vn 0.006143 0.000000 0.999981
vn -0.999981 0.000000 0.006147
vn -0.999981 0.000000 0.006147
vn -0.999981 0.000000 0.006147
vn -0.999981 0.000000 0.006147
vn 0.999981 0.000000 -0.006150
vn 0.999981 0.000000 -0.006150
vn 0.999981 0.000000 -0.006150
vn 0.999981 0.000000 -0.006150
s off
g dock LOWPOLY_DOCK:pCube43 LOWPOLY_DOCK:polySurface21
usemtl LOWPOLY_DOCK:lambert7SG
f 41/57/93 42/58/94 44/59/95 43/60/96
f 43/60/97 44/59/98 46/61/99 45/62/100
f 45/62/101 46/61/102 48/63/103 47/64/104
f 42/58/105 48/65/106 46/66/107 44/59/108
f 47/67/109 41/57/110 43/60/111 45/68/112
g default
v 14.548568 0.091492 51.003663
v -2.608912 0.091492 51.109071
v 14.548568 0.170666 51.003663
v -2.608912 0.170666 51.109071
v 14.550053 0.170666 51.245392
v -2.607426 0.170666 51.350800
v 14.550053 0.091492 51.245392
v -2.607426 0.091492 51.350800
vt 0.375000 0.000000
vt 0.625000 0.000000
vt 0.625000 0.250000
vt 0.375000 0.250000
vt 0.625000 0.500000
vt 0.375000 0.500000
vt 0.625000 0.750000
vt 0.375000 0.750000
vt 0.875000 0.000000
vt 0.875000 0.250000
vt 0.125000 0.000000
vt 0.125000 0.250000
vn -0.006143 0.000000 -0.999981
vn -0.006143 0.000000 -0.999981
vn -0.006143 0.000000 -0.999981
vn -0.006143 0.000000 -0.999981
vn 0.000000 1.000000 0.000000
vn 0.000000 1.000000 0.000000
vn 0.000000 1.000000 0.000000
vn 0.000000 1.000000 0.000000
vn 0.006143 0.000000 0.999981
vn 0.006143 0.000000 0.999981
vn 0.006143 0.000000 0.999981
vn 0.006143 0.000000 0.999981
vn -0.999981 0.000000 0.006147
vn -0.999981 0.000000 0.006147
vn -0.999981 0.000000 0.006147
vn -0.999981 0.000000 0.006147
vn 0.999981 0.000000 -0.006150
vn 0.999981 0.000000 -0.006150
vn 0.999981 0.000000 -0.006150
vn 0.999981 0.000000 -0.006150
s off
g dock LOWPOLY_DOCK:pCube43 LOWPOLY_DOCK:polySurface22
usemtl LOWPOLY_DOCK:lambert7SG
f 49/69/113 50/70/114 52/71/115 51/72/116
f 51/72/117 52/71/118 54/73/119 53/74/120
f 53/74/121 54/73/122 56/75/123 55/76/124
f 50/70/125 56/77/126 54/78/127 52/71/128
f 55/79/129 49/69/130 51/72/131 53/80/132
