# This file uses centimeters as units for non-parametric coordinates.

mtllib door_lowPoly.mtl
g default
v 0.000000 13.000000 -15.032504
v 0.000000 14.500000 -15.032504
v -1.445878 13.000000 -15.032504
v -1.445878 11.500000 -15.032504
v 0.000000 11.500000 -15.032504
v -1.445878 14.500000 -15.032504
v 1.445878 13.000000 -15.032504
v 1.445878 14.500000 -15.032504
v 1.445878 11.500000 -15.032504
v 0.000000 15.250000 -15.032504
v -1.445878 15.250000 -15.032504
v 1.445878 15.250000 -15.032504
vt 0.735931 0.620438
vt 0.735931 0.569540
vt 0.765368 0.569540
vt 0.765368 0.620438
vt 0.735931 0.671336
vt 0.765368 0.671336
vt 0.794805 0.620438
vt 0.794805 0.671336
vt 0.794805 0.569540
vt 0.765368 0.696785
vt 0.735931 0.696785
vt 0.794805 0.696785
vn 0.000000 0.000000 1.000000
vn 0.000000 0.000000 1.000000
vn 0.000000 0.000000 1.000000
vn 0.000000 0.000000 1.000000
vn 0.000000 0.000000 1.000000
vn 0.000000 0.000000 1.000000
vn 0.000000 0.000000 1.000000
vn 0.000000 0.000000 1.000000
vn 0.000000 0.000000 1.000000
vn 0.000000 0.000000 1.000000
vn 0.000000 0.000000 1.000000
vn 0.000000 0.000000 1.000000
s 1
g polySurface13 polySurface1 cabin_b:pCube1 house
usemtl initialShadingGroup
f 3/1/1 4/2/2 5/3/3 1/4/4
f 6/5/5 3/1/1 1/4/4 2/6/6
f 1/4/4 7/7/7 8/8/8 2/6/6
f 5/3/3 9/9/9 7/7/7 1/4/4
f 10/10/10 11/11/11 6/5/5 2/6/6
f 2/6/6 8/8/8 12/12/12 10/10/10
