# This file uses centimeters as units for non-parametric coordinates.

mtllib houseRoof_lowPoly.mtl
g default
v -5.000000 18.064659 -14.559698
v -2.500000 19.875214 -14.559698
v -2.500000 19.875214 -17.809697
v -5.000000 18.064659 -17.809697
v 0.000000 21.758168 -14.559698
v 0.000000 21.758168 -17.809697
v 2.500000 19.875214 -14.559698
v 2.500000 19.875214 -17.809697
v 5.000000 18.064659 -14.559698
v 5.000000 18.064659 -17.809697
v -2.500000 19.875214 -21.059697
v -5.000000 18.064659 -21.059697
v 0.000000 21.758168 -21.059697
v 2.500000 19.875214 -21.059697
v 5.000000 18.064659 -21.059697
v -2.500000 19.875214 -24.309700
v -5.000000 18.064659 -24.309700
v 0.000000 21.758168 -24.309700
v 2.500000 19.875214 -24.309700
v 5.000000 18.064659 -24.309700
v -2.500000 19.875214 -27.559698
v -5.000000 18.064659 -27.559698
v 0.000000 21.758168 -27.559698
v 2.500000 19.875214 -27.559698
v 5.000000 18.064659 -27.559698
v -6.879128 16.709881 -14.559698
v -6.879128 16.709881 -17.809697
v -6.879128 16.709881 -21.059697
v -6.879128 16.709881 -24.309700
v -6.879128 16.709881 -27.559698
v 6.879128 16.709881 -17.809697
v 6.879128 16.709881 -14.559698
v 6.879128 16.709881 -21.059697
v 6.879128 16.709881 -24.309700
v 6.879128 16.709881 -27.559698
v 0.000000 20.814571 -14.559698
v 6.879128 16.593552 -17.809697
v 6.879128 16.593552 -21.059697
v 6.879128 16.593552 -24.309700
v -6.879128 16.593552 -24.309700
v -6.879128 16.593552 -21.059697
v -6.879128 16.593552 -17.809697
v -5.000000 17.238497 -10.923664
v -2.500000 18.991325 -10.923664
v -2.500000 19.875214 -10.923664
v -5.000000 18.064659 -10.923664
v 0.000000 20.814571 -10.923664
v 0.000000 21.758168 -10.923664
v 2.500000 18.991325 -10.923664
v 2.500000 19.875214 -10.923664
v 5.000000 17.238497 -10.923664
v 5.000000 18.064659 -10.923664
v -6.879128 16.000000 -10.923664
v -6.879128 16.709881 -10.923664
v 6.879128 16.000000 -10.923664
v 6.879128 16.709881 -10.923664
v 3.862867 18.888196 -27.559698
v 3.862867 18.888196 -24.309700
v 3.862867 18.888196 -21.059697
v 3.862867 18.888196 -17.809697
v 3.862867 18.888196 -14.559698
v 3.862867 18.888196 -10.923664
v 3.862867 18.035777 -10.923664
v -3.862867 18.888196 -27.559698
v -3.862867 18.888196 -24.309700
v -3.862867 18.888196 -21.059697
v -3.862867 18.888196 -17.809697
v -3.862867 18.888196 -14.559698
v -3.862867 18.888196 -10.923664
v -3.862867 18.035777 -10.923664
v 1.445878 20.669159 -27.559698
v 1.445878 20.669159 -24.309700
v 1.445878 20.669159 -21.059697
v 1.445878 20.669159 -17.809697
v 1.445878 20.669159 -14.559698
v 1.445878 20.669159 -10.923664
v 1.445878 19.760095 -10.923664
v -1.445878 20.669159 -27.559698
v -1.445878 20.669159 -24.309700
v -1.445878 20.669159 -21.059697
v -1.445878 20.669159 -17.809697
v -1.445878 20.669159 -14.559698
v -1.445878 20.669159 -10.923664
v -1.445878 19.760095 -10.923664
v -6.879128 16.000000 -17.809697
v -6.879128 16.000000 -14.559698
v 6.879128 16.000000 -14.559698
v 6.879128 16.000000 -17.809697
v -6.879128 16.000000 -21.059697
v 6.879128 16.000000 -21.059697
v -6.879128 16.000000 -24.309700
v 6.879128 16.000000 -24.309700
v -2.500000 19.000166 -27.559698
v -3.862867 18.072918 -27.559698
v -6.879128 16.000000 -27.559698
v -0.000000 20.814571 -27.559698
v -1.445878 19.765208 -27.559698
v 2.500000 19.000166 -27.559698
v 1.445878 19.765209 -27.559698
v 6.879128 16.000000 -27.559698
v 5.000000 17.299252 -27.559698
v 3.862867 18.072918 -27.559698
v -5.000000 17.299252 -27.559698
v -3.862867 18.035777 -14.559698
v -2.500000 18.991325 -14.559698
v 1.445878 19.760095 -14.559698
v 2.500000 18.991325 -14.559698
v 3.862867 18.035777 -14.559698
v 5.000000 17.238497 -14.559698
v -5.000000 17.238497 -14.559698
v -1.445878 19.760095 -14.559698
v -1.445878 19.760095 -13.988600
v 0.000000 20.814571 -13.988600
v 1.445878 19.760095 -13.988600
vt 0.432081 0.402321
vt 0.432081 0.351422
vt 0.465572 0.351422
vt 0.465572 0.402321
vt 0.492513 0.402321
vt 0.492513 0.351422
vt 0.529465 0.351422
vt 0.529465 0.402321
vt 0.291491 0.557332
vt 0.291491 0.608230
vt 0.264551 0.608230
vt 0.264551 0.557332
vt 0.231059 0.557332
vt 0.231059 0.608230
vt 0.203115 0.608230
vt 0.203115 0.557332
vt 0.432081 0.453219
vt 0.465572 0.453219
vt 0.492513 0.453219
vt 0.529465 0.453219
vt 0.291491 0.506434
vt 0.264551 0.506434
vt 0.231059 0.506434
vt 0.203115 0.506434
vt 0.432081 0.504117
vt 0.465572 0.504117
vt 0.492513 0.504117
vt 0.529465 0.504117
vt 0.291491 0.455535
vt 0.264551 0.455535
vt 0.231059 0.455535
vt 0.203115 0.455535
vt 0.432081 0.555015
vt 0.465572 0.555015
vt 0.492513 0.555015
vt 0.529465 0.555015
vt 0.291491 0.404638
vt 0.264551 0.404638
vt 0.231059 0.404638
vt 0.203115 0.404638
vt 0.638817 0.220691
vt 0.609893 0.220691
vt 0.642317 0.192944
vt 0.672309 0.192944
vt 0.334079 0.351422
vt 0.358166 0.351422
vt 0.358166 0.402321
vt 0.354219 0.402321
vt 0.334079 0.402321
vt 0.699249 0.171483
vt 0.668403 0.171483
vt 0.704183 0.142046
vt 0.736201 0.142046
vt 0.699249 0.112609
vt 0.668403 0.112609
vt 0.642317 0.091148
vt 0.672309 0.091148
vt 0.638817 0.063401
vt 0.609893 0.063401
vt 0.582839 0.040250
vt 0.610873 0.040250
vt 0.153197 0.557332
vt 0.157145 0.557332
vt 0.157145 0.608230
vt 0.133058 0.608230
vt 0.133058 0.557332
vt 0.358166 0.453219
vt 0.354219 0.453219
vt 0.334079 0.453219
vt 0.153197 0.506434
vt 0.157145 0.506434
vt 0.133058 0.506434
vt 0.358166 0.504117
vt 0.354219 0.504117
vt 0.334079 0.504117
vt 0.153197 0.455535
vt 0.157145 0.455535
vt 0.133058 0.455535
vt 0.090985 0.095577
vt 0.063238 0.127041
vt 0.063238 0.099377
vt 0.090985 0.065885
vt 0.358166 0.555015
vt 0.334079 0.555015
vt 0.141884 0.034011
vt 0.112447 0.069617
vt 0.112447 0.038945
vt 0.141884 0.001993
vt 0.192782 0.095577
vt 0.171320 0.069617
vt 0.171320 0.038945
vt 0.192782 0.065885
vt 0.133058 0.404638
vt 0.157145 0.404638
vt 0.243680 0.153293
vt 0.220529 0.127041
vt 0.220529 0.099377
vt 0.243680 0.127321
vt 0.540815 0.282100
vt 0.582839 0.243842
vt 0.610873 0.243842
vt 0.564902 0.282100
vt 0.404137 0.351422
vt 0.404137 0.402321
vt 0.404137 0.453219
vt 0.404137 0.504117
vt 0.404137 0.555015
vt 0.040087 0.127321
vt 0.040087 0.153293
vt 0.001830 0.197379
vt 0.001830 0.173291
vt 0.540815 0.001992
vt 0.564902 0.001992
vt 0.281937 0.197379
vt 0.281937 0.173291
vt 0.657168 0.647331
vt 0.714112 0.647331
vt 0.714112 0.679754
vt 0.657168 0.679754
vt 0.432081 0.294479
vt 0.465572 0.294479
vt 0.657168 0.705840
vt 0.714112 0.705840
vt 0.714112 0.741621
vt 0.657168 0.741621
vt 0.492513 0.294479
vt 0.529465 0.294479
vt 0.657168 0.705840
vt 0.714112 0.705840
vt 0.714112 0.679754
vt 0.657168 0.679754
vt 0.291491 0.665174
vt 0.264551 0.665174
vt 0.657168 0.647331
vt 0.714112 0.647331
vt 0.714112 0.620277
vt 0.657168 0.620277
vt 0.231059 0.665174
vt 0.203115 0.665174
vt 0.714112 0.578253
vt 0.714112 0.620277
vt 0.657168 0.620277
vt 0.657168 0.578253
vt 0.358166 0.294479
vt 0.404137 0.294479
vt 0.334079 0.294479
vt 0.714112 0.578253
vt 0.657168 0.578253
vt 0.157145 0.665174
vt 0.133058 0.665174
vt 0.328444 0.455535
vt 0.328444 0.404638
vt 0.328444 0.506434
vt 0.328444 0.557332
vt 0.328444 0.608230
vt 0.328444 0.665174
vt 0.719820 0.732908
vt 0.719820 0.697128
vt 0.728764 0.697128
vt 0.728764 0.732908
vt 0.705168 0.741621
vt 0.705168 0.705840
vn -0.586555 0.809910 0.000000
vn -0.586555 0.809910 0.000000
vn -0.593204 0.805052 0.000000
vn -0.593204 0.805052 0.000000
vn -0.601625 0.798779 0.000000
vn -0.601625 0.798779 0.000000
vn 0.000000 1.000000 0.000000
vn 0.000000 1.000000 0.000000
vn 0.601625 0.798779 0.000000
vn 0.601625 0.798779 0.000000
vn 0.593204 0.805052 0.000000
vn 0.593204 0.805052 0.000000
vn 0.586555 0.809910 0.000000
vn 0.586555 0.809910 0.000000
vn 0.585474 0.810692 0.000000
vn 0.586555 0.809910 0.000000
vn -0.586555 0.809910 0.000000
vn -0.593204 0.805052 0.000000
vn -0.601625 0.798778 0.000000
vn 0.000000 1.000000 0.000000
vn 0.601625 0.798778 0.000000
vn 0.593204 0.805052 0.000000
vn 0.586555 0.809910 0.000000
vn 0.586555 0.809910 0.000000
vn -0.586555 0.809910 0.000000
vn -0.593204 0.805052 0.000000
vn -0.601625 0.798779 0.000000
vn 0.000000 1.000000 0.000000
vn 0.601625 0.798778 0.000000
vn 0.593204 0.805052 0.000000
vn 0.586555 0.809910 0.000000
vn 0.586555 0.809910 0.000000
vn -0.586555 0.809910 0.000000
vn -0.593204 0.805052 0.000000
vn -0.601625 0.798778 0.000000
vn 0.000000 1.000000 0.000000
vn 0.601625 0.798778 0.000000
vn 0.593204 0.805052 0.000000
vn 0.586555 0.809910 0.000000
vn 0.586555 0.809910 0.000000
vn 0.000000 0.000000 1.000000
vn 0.000000 0.000000 1.000000
vn 0.000000 0.000000 1.000000
vn 0.000000 0.000000 1.000000
vn -1.000000 0.000000 0.000000
vn -1.000000 0.000000 0.000000
vn -1.000000 0.000000 0.000000
vn -1.000000 0.000000 0.000000
vn -1.000000 0.000000 0.000000
vn -0.000001 0.000000 1.000000
vn 0.000000 0.000000 1.000000
vn -0.000001 0.000000 1.000000
vn -0.000001 0.000000 1.000000
vn 0.000000 0.000000 1.000000
vn -0.000000 0.000000 1.000000
vn -0.000001 0.000000 1.000000
vn -0.000001 0.000000 1.000000
vn 0.000000 0.000000 1.000000
vn 0.000000 0.000000 1.000000
vn 0.000000 0.000000 1.000000
vn 0.000000 0.000000 1.000000
vn 1.000000 0.000000 0.000000
vn 1.000000 0.000000 0.000000
vn 1.000000 0.000000 0.000000
vn 1.000000 0.000000 0.000000
vn 1.000000 0.000000 0.000000
vn -1.000000 0.000000 0.000000
vn -1.000000 0.000000 0.000000
vn -1.000000 0.000000 0.000000
vn -1.000000 0.000000 0.000000
vn -1.000000 0.000000 0.000000
vn -1.000000 0.000000 0.000000
vn 1.000000 0.000000 0.000000
vn 1.000000 0.000000 0.000000
vn 1.000000 0.000000 0.000000
vn 1.000000 0.000000 0.000000
vn 1.000000 0.000000 0.000000
vn 1.000000 0.000000 0.000000
vn -1.000000 0.000000 0.000000
vn -1.000000 0.000000 0.000000
vn -1.000000 0.000000 0.000000
vn -1.000000 0.000000 0.000000
vn -1.000000 0.000000 0.000000
vn -1.000000 0.000000 0.000000
vn 1.000000 0.000000 0.000000
vn 1.000000 0.000000 0.000000
vn 1.000000 0.000000 0.000000
vn 1.000000 0.000000 0.000000
vn 1.000000 0.000000 0.000000
vn 1.000000 0.000000 0.000000
vn 0.000001 0.000000 -1.000000
vn 0.000001 0.000000 -1.000000
vn 0.000001 0.000000 -1.000000
vn 0.000001 0.000000 -1.000000
vn -1.000000 0.000000 0.000000
vn -1.000000 0.000000 0.000000
vn -1.000000 0.000000 0.000000
vn -1.000000 0.000000 0.000000
vn -1.000000 0.000000 0.000000
vn 0.000000 0.000000 -1.000000
vn -0.000000 0.000000 -1.000000
vn 0.000000 0.000000 -1.000000
vn 0.000000 0.000000 -1.000000
vn 0.000001 0.000000 -1.000000
vn 0.000000 0.000000 -1.000000
vn -0.000000 0.000000 -1.000000
vn 0.000001 0.000000 -1.000000
vn 1.000000 0.000000 0.000000
vn 1.000000 0.000000 0.000000
vn 1.000000 0.000000 0.000000
vn 1.000000 0.000000 0.000000
vn 1.000000 0.000000 0.000000
vn -0.000001 0.000000 -1.000000
vn -0.000001 0.000000 -1.000000
vn -0.000001 0.000000 -1.000000
vn -0.000001 0.000000 -1.000000
vn 0.000000 0.000000 1.000000
vn 0.000000 0.000000 1.000000
vn 0.000000 0.000000 1.000000
vn 0.000000 0.000000 1.000000
vn -0.585474 0.810691 0.000000
vn -0.584818 0.811165 0.000000
vn -0.584818 0.811165 0.000000
vn -0.584818 0.811165 0.000000
vn -0.584818 0.811165 0.000000
vn -0.584818 0.811165 0.000000
vn -0.584818 0.811165 0.000000
vn -0.584818 0.811165 0.000000
vn -0.584818 0.811165 0.000000
vn -0.584818 0.811165 0.000000
vn -0.584818 0.811165 0.000000
vn -0.584818 0.811165 0.000000
vn -0.584818 0.811165 0.000000
vn -0.584818 0.811165 0.000000
vn -0.584818 0.811165 0.000000
vn -0.584818 0.811165 0.000000
vn 0.000000 0.000000 -1.000000
vn 0.000000 0.000000 -1.000000
vn 0.000000 0.000000 -1.000000
vn 0.000000 0.000000 -1.000000
vn 0.584818 0.811165 0.000000
vn 0.584818 0.811165 0.000000
vn 0.584818 0.811165 0.000000
vn 0.000000 0.000000 1.000000
vn 0.000000 0.000000 1.000000
vn 0.000000 0.000000 1.000000
vn 0.000000 0.000000 1.000000
vn 0.584818 0.811165 0.000000
vn 0.584818 0.811165 0.000000
vn 0.584818 0.811165 0.000000
vn 0.584818 0.811165 0.000000
vn 0.584818 0.811165 0.000000
vn 0.584818 0.811165 0.000000
vn 0.584818 0.811165 0.000000
vn 0.584818 0.811165 0.000000
vn 0.000000 0.000000 -1.000000
vn 0.000000 0.000000 -1.000000
vn 0.000000 0.000000 -1.000000
vn 0.000000 0.000000 -1.000000
vn 0.584818 0.811165 0.000000
vn 0.584818 0.811165 0.000000
vn 0.584818 0.811165 0.000000
vn 0.584818 0.811165 0.000000
vn 0.574084 -0.818796 0.000000
vn 0.574084 -0.818796 0.000000
vn 0.580769 -0.814068 0.000000
vn 0.580769 -0.814068 0.000000
vn -0.586555 0.809910 0.000000
vn -0.593204 0.805052 0.000000
vn 0.589242 -0.807957 0.000000
vn 0.589242 -0.807957 0.000000
vn 0.589241 -0.807957 0.000000
vn 0.589241 -0.807957 0.000000
vn -0.601625 0.798779 0.000000
vn -0.601625 0.798779 0.000000
vn -0.589242 -0.807957 0.000000
vn -0.589242 -0.807957 0.000000
vn -0.580769 -0.814068 0.000000
vn -0.580769 -0.814068 0.000000
vn 0.601625 0.798779 0.000000
vn 0.593204 0.805052 0.000000
vn -0.574084 -0.818796 0.000000
vn -0.574084 -0.818796 0.000000
vn -0.559435 -0.828874 0.000000
vn -0.559435 -0.828874 0.000000
vn 0.586555 0.809910 0.000000
vn 0.585474 0.810692 0.000000
vn 0.550307 -0.834962 0.000000
vn 0.559435 -0.828874 0.000000
vn 0.559435 -0.828874 0.000000
vn 0.550307 -0.834962 0.000000
vn -0.584818 0.811165 0.000000
vn -0.585474 0.810692 0.000000
vn -1.000000 0.000000 0.000000
vn -1.000000 0.000000 0.000000
vn -0.550307 -0.834962 0.000000
vn -0.550307 -0.834962 0.000000
vn 1.000000 0.000000 0.000000
vn 1.000000 0.000000 0.000000
vn 0.584818 0.811165 0.000000
vn -0.000001 0.000000 -1.000000
vn -0.000001 0.000000 -1.000000
vn 0.000000 0.000000 1.000000
vn 0.000000 0.000000 1.000000
vn 0.000001 0.000000 -1.000000
vn 0.000001 0.000000 -1.000000
vn -0.586555 0.809910 0.000000
vn -0.586555 0.809910 0.000000
vn -0.586555 0.809910 0.000000
vn -0.586555 0.809910 0.000000
vn 0.000000 0.000000 1.000000
vn 0.000000 0.000000 1.000000
vn -0.000000 0.000000 -1.000000
vn -0.000000 0.000000 -1.000000
vn 0.601625 0.798779 0.000000
vn 0.000000 0.000000 1.000000
vn 0.000000 0.000000 1.000000
vn -0.589241 -0.807957 0.000000
vn -0.589241 -0.807957 0.000000
vn -0.000001 0.000000 -1.000000
vn -0.000001 0.000000 -1.000000
vn 0.000001 0.000000 1.000000
vn 0.000001 0.000000 1.000000
vn -0.589242 0.807957 0.000000
vn -0.589242 0.807957 0.000000
vn -0.589242 0.807957 0.000000
vn -0.589242 0.807957 0.000000
vn 0.589242 0.807957 0.000000
vn 0.589242 0.807957 0.000000
vn 0.589242 0.807957 0.000000
vn 0.589242 0.807957 0.000000
s 1
g polySurface20 polySurface17 polySurface12 polySurface1 cabin_b:pCube1 house
usemtl initialShadingGroup
f 67/1/1 68/2/2 2/3/3 3/4/4
f 81/5/5 82/6/6 5/7/7 6/8/8
f 74/9/9 75/10/10 7/11/11 8/12/12
f 60/13/13 61/14/14 9/15/15 10/16/16
f 66/17/17 67/1/1 3/4/4 11/18/18
f 80/19/19 81/5/5 6/8/8 13/20/20
f 73/21/21 74/9/9 8/12/12 14/22/22
f 59/23/23 60/13/13 10/16/16 15/24/24
f 65/25/25 66/17/17 11/18/18 16/26/26
f 79/27/27 80/19/19 13/20/20 18/28/28
f 72/29/29 73/21/21 14/22/22 19/30/30
f 58/31/31 59/23/23 15/24/24 20/32/32
f 64/33/33 65/25/25 16/26/26 21/34/34
f 78/35/35 79/27/27 18/28/28 23/36/36
f 71/37/37 72/29/29 19/30/30 24/38/38
f 57/39/39 58/31/31 20/32/32 25/40/40
s 2
f 69/41/41 70/42/42 44/43/43 45/44/44
s 3
f 86/45/45 26/46/46 27/47/47 42/48/48 85/49/49
s 4
f 83/50/50 84/51/51 47/52/52 48/53/53
s 5
f 76/54/54 77/55/55 49/56/56 50/57/57
s 6
f 62/58/58 63/59/59 51/60/60 52/61/61
s 7
f 37/62/62 31/63/63 32/64/64 87/65/65 88/66/66
s off
f 42/48/67 27/47/68 28/67/69 41/68/70 89/69/71 85/49/72
f 38/70/73 33/71/74 31/63/75 37/62/76 88/66/77 90/72/78
f 41/68/79 28/67/80 29/73/81 40/74/82 91/75/83 89/69/84
f 39/76/85 34/77/86 33/71/87 38/70/88 90/72/89 92/78/90
s 8
f 93/79/91 94/80/92 64/81/93 21/82/94
s off
f 40/74/95 29/73/96 30/83/97 95/84/98 91/75/99
s 9
f 96/85/100 97/86/101 78/87/102 23/88/103
s 10
f 98/89/104 99/90/105 71/91/106 24/92/107
s off
f 100/93/108 35/94/109 34/77/110 39/76/111 92/78/112
s 11
f 101/95/113 102/96/114 57/97/115 25/98/116
s off
f 53/99/117 43/100/118 46/101/119 54/102/120
s 1
f 1/103/121 4/104/122 27/47/123 26/46/124
s off
f 4/104/125 12/105/126 28/67/127 27/47/128
f 12/105/129 17/106/130 29/73/131 28/67/132
f 17/106/133 22/107/134 30/83/135 29/73/136
f 22/108/137 103/109/138 95/110/139 30/111/140
s 1
f 10/16/141 9/15/15 32/64/142 31/63/143
s off
f 52/61/144 51/60/145 55/112/146 56/113/147
f 15/24/148 10/16/149 31/63/150 33/71/151
f 20/32/152 15/24/153 33/71/154 34/77/155
f 100/114/156 101/95/157 25/98/158 35/115/159
f 25/40/160 20/32/161 34/77/162 35/94/163
s 14
f 70/116/164 104/117/165 105/118/166 44/119/167
s 1
f 2/3/3 68/2/2 69/120/168 45/121/169
s 14
f 84/122/170 111/123/171 36/124/172 47/125/173
s 1
f 5/7/7 82/6/6 83/126/174 48/127/175
s 15
f 77/128/176 106/129/177 107/130/178 49/131/179
s 1
f 7/11/11 75/10/10 76/132/180 50/133/181
s 15
f 63/134/182 108/135/183 109/136/184 51/137/185
s 1
f 9/15/15 61/14/14 62/138/186 52/139/187
s 14
f 86/140/188 110/141/189 43/142/190 53/143/191
s 1
f 1/103/121 26/46/124 54/144/192 46/145/193
s 3
f 26/46/46 86/45/45 53/146/194 54/144/195
s 15
f 109/136/184 87/147/196 55/148/197 51/137/185
s 7
f 87/65/65 32/64/64 56/149/198 55/150/199
s 1
f 32/64/142 9/15/15 52/139/187 56/149/200
s 11
f 57/97/115 102/96/114 98/89/201 24/92/202
s 1
f 19/30/30 58/31/31 57/39/39 24/38/38
f 14/22/22 59/23/23 58/31/31 19/30/30
f 8/12/12 60/13/13 59/23/23 14/22/22
f 7/11/11 61/14/14 60/13/13 8/12/12
f 62/138/186 61/14/14 7/11/11 50/133/181
s 6
f 49/56/203 63/59/59 62/58/58 50/57/204
s 15
f 107/130/178 108/135/183 63/134/182 49/131/179
s 8
f 64/81/93 94/80/92 103/109/205 22/108/206
s 1
f 17/106/207 65/25/25 64/33/33 22/107/208
f 12/105/209 66/17/17 65/25/25 17/106/207
f 4/104/210 67/1/1 66/17/17 12/105/209
f 1/103/121 68/2/2 67/1/1 4/104/210
f 69/120/168 68/2/2 1/103/121 46/145/193
s 2
f 43/100/211 70/42/42 69/41/41 46/101/212
s 14
f 110/141/189 104/117/165 70/116/164 43/142/190
s 10
f 71/91/106 99/90/105 96/85/213 23/88/214
s 1
f 18/151/28 72/29/29 71/37/37 23/152/36
f 13/153/20 73/21/21 72/29/29 18/151/28
f 6/154/8 74/9/9 73/21/21 13/153/20
f 5/155/7 75/10/10 74/9/9 6/154/8
f 76/132/180 75/10/10 5/155/7 48/156/215
s 5
f 47/52/216 77/55/55 76/54/54 48/53/217
s 15
f 36/124/218 106/129/177 77/128/176 47/125/219
s 9
f 78/87/102 97/86/101 93/79/220 21/82/221
s 1
f 16/26/26 79/27/27 78/35/35 21/34/34
f 11/18/18 80/19/19 79/27/27 16/26/26
f 3/4/4 81/5/5 80/19/19 11/18/18
f 2/3/3 82/6/6 81/5/5 3/4/4
f 83/126/174 82/6/6 2/3/3 45/121/169
s 4
f 44/43/222 84/51/51 83/50/50 45/44/223
s 14
f 105/118/166 111/123/171 84/122/170 44/119/167
s off
f 36/157/224 111/158/225 112/159/226 113/160/227
f 106/129/228 36/124/229 113/161/230 114/162/231
