# This file uses centimeters as units for non-parametric coordinates.

mtllib houseWood_lowPoly.mtl
g default
v 5.202144 13.053285 -14.641800
v 5.389202 12.866227 -14.641800
v 5.576259 13.053285 -14.641800
v 5.389201 13.240343 -14.641800
v -5.202144 13.053285 -14.641800
v -5.389202 12.866227 -14.641800
v -5.576259 13.053285 -14.641800
v -5.389201 13.240343 -14.641800
v 5.202143 13.053285 -11.639242
v 5.389200 12.866227 -11.639242
v 5.576259 13.053285 -11.639242
v 5.389200 13.240343 -11.639242
v -5.202143 13.053285 -11.639243
v -5.389202 12.866227 -11.639243
v -5.576259 13.053285 -11.639243
v -5.389202 13.240343 -11.639243
v 5.202144 12.261031 -14.641800
v 5.389202 12.073973 -14.641800
v 5.576259 12.261031 -14.641800
v 5.389201 12.448090 -14.641800
v -5.202144 12.261031 -14.641800
v -5.389202 12.073973 -14.641800
v -5.576259 12.261031 -14.641800
v -5.389201 12.448090 -14.641800
v 5.202143 12.261031 -11.639242
v 5.389200 12.073973 -11.639242
v 5.576259 12.261031 -11.639242
v 5.389200 12.448090 -11.639242
v -5.202143 12.261031 -11.639243
v -5.389202 12.073973 -11.639243
v -5.576259 12.261031 -11.639243
v -5.389202 12.448090 -11.639243
v 5.406593 13.053285 -11.818399
v 5.406593 12.866227 -11.631340
v 5.406593 13.053285 -11.444282
v 5.406593 13.240343 -11.631340
v -5.406593 13.053285 -11.818399
v -5.406593 12.866227 -11.631340
v -5.406593 13.053285 -11.444282
v -5.406593 13.240343 -11.631340
v 2.404037 13.053285 -11.818399
v 2.404037 12.866227 -11.631340
v 2.404037 13.053285 -11.444282
v 2.404037 13.240343 -11.631340
v -2.404037 13.053285 -11.818399
v -2.404037 12.866227 -11.631340
v -2.404037 13.053285 -11.444282
v -2.404037 13.240343 -11.631340
v 5.406593 12.261031 -11.818399
v 5.406593 12.073973 -11.631340
v 5.406593 12.261031 -11.444282
v 5.406593 12.448090 -11.631340
v -5.406593 12.261031 -11.818399
v -5.406593 12.073973 -11.631340
v -5.406593 12.261031 -11.444282
v -5.406593 12.448090 -11.631340
v 2.404037 12.261031 -11.818399
v 2.404037 12.073973 -11.631340
v 2.404037 12.261031 -11.444282
v 2.404037 12.448090 -11.631340
v -2.404037 12.261031 -11.818399
v -2.404037 12.073973 -11.631340
v -2.404037 12.261031 -11.444282
v -2.404037 12.448090 -11.631340
v -5.386600 11.388501 -11.876346
v -5.631849 11.388501 -11.631098
v -5.386600 11.388501 -11.385849
v -5.141353 11.388501 -11.631098
v -5.386600 17.216332 -11.876346
v -5.631849 17.216332 -11.631098
v -5.386600 17.216332 -11.385849
v -5.141353 17.216332 -11.631098
v 5.386600 11.388501 -11.876346
v 5.141353 11.388501 -11.631098
v 5.386600 11.388501 -11.385849
v 5.631849 11.388501 -11.631098
v 5.386600 17.216332 -11.876346
v 5.141353 17.216332 -11.631098
v 5.386600 17.216332 -11.385849
v 5.631849 17.216332 -11.631098
v 2.386600 10.006893 -11.876346
v 2.141353 10.006893 -11.631098
v 2.386600 10.006893 -11.385849
v 2.631849 10.006893 -11.631098
v 2.386600 19.389036 -11.876346
v 2.141353 19.389036 -11.631098
v 2.386600 19.389036 -11.385849
v 2.631849 19.389036 -11.631098
v -2.386600 10.006893 -11.876346
v -2.631849 10.006893 -11.631098
v -2.386600 10.006893 -11.385849
v -2.141353 10.006893 -11.631098
v -2.386600 19.389036 -11.876346
v -2.631849 19.389036 -11.631098
v -2.386600 19.389036 -11.385849
v -2.141353 19.389036 -11.631098
vt 0.390824 0.320746
vt 0.370966 0.320746
vt 0.370966 0.001992
vt 0.390824 0.001992
vt 0.390824 0.320746
vt 0.390824 0.001992
vt 0.410682 0.320746
vt 0.410682 0.001992
vt 0.417079 0.001992
vt 0.436937 0.001992
vt 0.436937 0.320746
vt 0.417079 0.320746
vt 0.462761 0.320746
vt 0.442902 0.320746
vt 0.442902 0.001992
vt 0.462761 0.001992
vt 0.462761 0.320746
vt 0.462761 0.001992
vt 0.482619 0.320746
vt 0.482619 0.001992
vt 0.489016 0.001992
vt 0.508874 0.001992
vt 0.508874 0.320746
vt 0.489016 0.320746
vt 0.534697 0.320746
vt 0.514839 0.320746
vt 0.514839 0.001992
vt 0.534697 0.001992
vt 0.534697 0.320746
vt 0.534697 0.001992
vt 0.554556 0.320746
vt 0.554556 0.001992
vt 0.560952 0.001992
vt 0.580810 0.001992
vt 0.580810 0.320746
vt 0.560952 0.320746
vt 0.606634 0.320746
vt 0.586775 0.320746
vt 0.586775 0.001992
vt 0.606634 0.001992
vt 0.606634 0.320746
vt 0.606634 0.001992
vt 0.626492 0.320746
vt 0.626492 0.001992
vt 0.632889 0.001992
vt 0.652747 0.001992
vt 0.652747 0.320746
vt 0.632889 0.320746
vt 0.684535 0.001992
vt 0.704393 0.001992
vt 0.704393 0.320746
vt 0.684535 0.320746
vt 0.724252 0.001992
vt 0.724252 0.320746
vt 0.704393 0.001992
vt 0.704393 0.320746
vt 0.756472 0.001992
vt 0.776330 0.001992
vt 0.776330 0.320746
vt 0.756472 0.320746
vt 0.796188 0.001992
vt 0.796188 0.320746
vt 0.776330 0.001992
vt 0.776330 0.320746
vt 0.828408 0.001992
vt 0.848266 0.001992
vt 0.848266 0.320746
vt 0.828408 0.320746
vt 0.868125 0.001992
vt 0.868125 0.320746
vt 0.848266 0.001992
vt 0.848266 0.320746
vt 0.900345 0.001992
vt 0.920203 0.001992
vt 0.920203 0.320746
vt 0.900345 0.320746
vt 0.940061 0.001992
vt 0.940061 0.320746
vt 0.920203 0.001992
vt 0.920203 0.320746
vt 0.186513 0.001992
vt 0.212549 0.001992
vt 0.212549 0.620679
vt 0.186513 0.620679
vt 0.238585 0.001992
vt 0.238585 0.620679
vt 0.212549 0.001992
vt 0.212549 0.620679
vt 0.278740 0.001992
vt 0.304775 0.001992
vt 0.304775 0.620679
vt 0.278740 0.620679
vt 0.330811 0.001992
vt 0.330811 0.620679
vt 0.304775 0.001992
vt 0.304775 0.620679
vt 0.001876 0.001992
vt 0.027912 0.001992
vt 0.027912 0.998008
vt 0.001876 0.998008
vt 0.053948 0.001992
vt 0.053948 0.998008
vt 0.027912 0.001992
vt 0.027912 0.998008
vt 0.094287 0.001992
vt 0.120323 0.001992
vt 0.120323 0.998008
vt 0.094287 0.998008
vt 0.146359 0.001992
vt 0.146359 0.998008
vt 0.120323 0.001992
vt 0.120323 0.998008
vt 0.337764 0.001992
vt 0.363800 0.001992
vt 0.363800 0.620679
vt 0.337764 0.620679
vt 0.061086 0.001992
vt 0.087122 0.001992
vt 0.087122 0.998008
vt 0.061086 0.998008
vt 0.153312 0.001992
vt 0.179348 0.001992
vt 0.179348 0.998008
vt 0.153312 0.998008
vt 0.658712 0.001992
vt 0.678570 0.001992
vt 0.678570 0.320746
vt 0.658712 0.320746
vt 0.730648 0.001992
vt 0.750507 0.001992
vt 0.750507 0.320746
vt 0.730648 0.320746
vt 0.802585 0.001992
vt 0.822443 0.001992
vt 0.822443 0.320746
vt 0.802585 0.320746
vt 0.874521 0.001992
vt 0.894379 0.001992
vt 0.894379 0.320746
vt 0.874521 0.320746
vt 0.245538 0.001992
vt 0.271574 0.001992
vt 0.271574 0.620679
vt 0.245538 0.620679
vn 0.707107 -0.707107 -0.000000
vn 0.707107 -0.707107 -0.000000
vn 0.707107 -0.707107 -0.000000
vn 0.707107 -0.707107 -0.000000
vn -0.707108 -0.707106 0.000000
vn -0.707108 -0.707106 0.000000
vn -0.707108 -0.707106 0.000000
vn -0.707108 -0.707106 0.000000
vn -0.707108 0.707106 -0.000000
vn -0.707108 0.707106 -0.000000
vn -0.707108 0.707106 -0.000000
vn -0.707108 0.707106 -0.000000
vn 0.707107 0.707107 -0.000000
vn 0.707107 0.707107 -0.000000
vn 0.707107 0.707107 -0.000000
vn 0.707107 0.707107 -0.000000
vn -0.707108 -0.707106 -0.000000
vn -0.707108 -0.707106 -0.000000
vn -0.707108 -0.707106 -0.000000
vn -0.707108 -0.707106 -0.000000
vn 0.707107 -0.707107 0.000000
vn 0.707107 -0.707107 0.000000
vn 0.707107 -0.707107 0.000000
vn 0.707107 -0.707107 0.000000
vn 0.707106 0.707108 0.000000
vn 0.707105 0.707108 0.000000
vn 0.707106 0.707108 0.000000
vn 0.707106 0.707108 0.000000
vn -0.707109 0.707104 -0.000000
vn -0.707109 0.707104 -0.000000
vn -0.707109 0.707104 -0.000000
vn -0.707109 0.707104 -0.000000
vn 0.707107 -0.707107 -0.000000
vn 0.707107 -0.707107 -0.000000
vn 0.707107 -0.707107 -0.000000
vn 0.707107 -0.707107 -0.000000
vn -0.707108 -0.707106 0.000000
vn -0.707108 -0.707106 0.000000
vn -0.707108 -0.707106 0.000000
vn -0.707108 -0.707106 0.000000
vn -0.707108 0.707106 -0.000000
vn -0.707108 0.707106 -0.000000
vn -0.707108 0.707106 -0.000000
vn -0.707108 0.707106 -0.000000
vn 0.707107 0.707107 -0.000000
vn 0.707107 0.707107 -0.000000
vn 0.707107 0.707107 -0.000000
vn 0.707107 0.707107 -0.000000
vn -0.707108 -0.707106 -0.000000
vn -0.707108 -0.707106 -0.000000
vn -0.707108 -0.707106 -0.000000
vn -0.707108 -0.707106 -0.000000
vn 0.707107 -0.707107 0.000000
vn 0.707107 -0.707107 0.000000
vn 0.707107 -0.707107 0.000000
vn 0.707107 -0.707107 0.000000
vn 0.707106 0.707108 0.000000
vn 0.707105 0.707108 0.000000
vn 0.707106 0.707108 0.000000
vn 0.707106 0.707108 0.000000
vn -0.707109 0.707104 -0.000000
vn -0.707109 0.707104 -0.000000
vn -0.707109 0.707104 -0.000000
vn -0.707109 0.707104 -0.000000
vn 0.000000 -0.707107 -0.707107
vn 0.000000 -0.707107 -0.707107
vn 0.000000 -0.707107 -0.707107
vn 0.000000 -0.707107 -0.707107
vn 0.000000 -0.707107 0.707107
vn 0.000000 -0.707107 0.707107
vn 0.000000 -0.707107 0.707107
vn 0.000000 -0.707107 0.707107
vn 0.000000 0.707108 0.707106
vn 0.000000 0.707108 0.707106
vn 0.000000 0.707108 0.707106
vn 0.000000 0.707108 0.707106
vn 0.000000 0.707108 -0.707106
vn 0.000000 0.707108 -0.707106
vn 0.000000 0.707108 -0.707106
vn 0.000000 0.707108 -0.707106
vn 0.000000 -0.707108 -0.707106
vn 0.000000 -0.707108 -0.707106
vn 0.000000 -0.707108 -0.707106
vn 0.000000 -0.707108 -0.707106
vn 0.000000 -0.707108 0.707106
vn 0.000000 -0.707108 0.707106
vn 0.000000 -0.707108 0.707106
vn 0.000000 -0.707108 0.707106
vn 0.000000 0.707107 0.707106
vn 0.000000 0.707107 0.707106
vn 0.000000 0.707107 0.707106
vn 0.000000 0.707107 0.707106
vn 0.000000 0.707107 -0.707106
vn 0.000000 0.707107 -0.707106
vn 0.000000 0.707107 -0.707106
vn 0.000000 0.707107 -0.707106
vn 0.000000 -0.707107 -0.707106
vn 0.000000 -0.707107 -0.707106
vn 0.000000 -0.707107 -0.707106
vn 0.000000 -0.707107 -0.707106
vn 0.000000 -0.707107 0.707106
vn 0.000000 -0.707107 0.707106
vn 0.000000 -0.707107 0.707106
vn 0.000000 -0.707107 0.707106
vn 0.000000 0.707107 0.707107
vn 0.000000 0.707107 0.707107
vn 0.000000 0.707107 0.707107
vn 0.000000 0.707107 0.707107
vn 0.000000 0.707107 -0.707107
vn 0.000000 0.707107 -0.707107
vn 0.000000 0.707107 -0.707107
vn 0.000000 0.707107 -0.707107
vn 0.000000 -0.707107 -0.707106
vn 0.000000 -0.707107 -0.707106
vn 0.000000 -0.707107 -0.707106
vn 0.000000 -0.707107 -0.707106
vn 0.000000 -0.707107 0.707106
vn 0.000000 -0.707107 0.707106
vn 0.000000 -0.707107 0.707106
vn 0.000000 -0.707107 0.707106
vn 0.000000 0.707107 0.707106
vn 0.000000 0.707107 0.707106
vn 0.000000 0.707107 0.707106
vn 0.000000 0.707107 0.707106
vn 0.000000 0.707107 -0.707106
vn 0.000000 0.707107 -0.707106
vn 0.000000 0.707107 -0.707106
vn 0.000000 0.707107 -0.707106
vn -0.707105 0.000000 -0.707109
vn -0.707105 0.000000 -0.707109
vn -0.707105 0.000000 -0.707109
vn -0.707105 0.000000 -0.707109
vn -0.707107 0.000000 0.707107
vn -0.707107 0.000000 0.707107
vn -0.707107 0.000000 0.707107
vn -0.707107 0.000000 0.707107
vn 0.707108 0.000000 0.707106
vn 0.707108 0.000000 0.707106
vn 0.707108 0.000000 0.707106
vn 0.707108 0.000000 0.707106
vn 0.707108 0.000000 -0.707106
vn 0.707108 0.000000 -0.707106
vn 0.707108 0.000000 -0.707106
vn 0.707108 0.000000 -0.707106
vn -0.707107 0.000000 -0.707107
vn -0.707107 0.000000 -0.707107
vn -0.707107 0.000000 -0.707107
vn -0.707107 0.000000 -0.707107
vn -0.707108 0.000000 0.707106
vn -0.707108 0.000000 0.707106
vn -0.707108 0.000000 0.707106
vn -0.707108 0.000000 0.707106
vn 0.707107 0.000000 0.707107
vn 0.707107 0.000000 0.707107
vn 0.707107 0.000000 0.707107
vn 0.707107 0.000000 0.707107
vn 0.707106 0.000000 -0.707108
vn 0.707106 0.000000 -0.707108
vn 0.707106 0.000000 -0.707108
vn 0.707106 0.000000 -0.707108
vn -0.707107 0.000000 -0.707107
vn -0.707107 0.000000 -0.707107
vn -0.707107 0.000000 -0.707107
vn -0.707107 0.000000 -0.707107
vn -0.707109 0.000000 0.707105
vn -0.707109 0.000000 0.707105
vn -0.707109 0.000000 0.707105
vn -0.707109 0.000000 0.707105
vn 0.707108 0.000000 0.707106
vn 0.707108 0.000000 0.707106
vn 0.707108 0.000000 0.707106
vn 0.707108 0.000000 0.707106
vn 0.707105 0.000000 -0.707108
vn 0.707105 0.000000 -0.707108
vn 0.707105 0.000000 -0.707108
vn 0.707105 0.000000 -0.707108
vn -0.707105 0.000000 -0.707109
vn -0.707105 0.000000 -0.707109
vn -0.707105 0.000000 -0.707109
vn -0.707105 0.000000 -0.707109
vn -0.707108 0.000000 0.707106
vn -0.707108 0.000000 0.707106
vn -0.707108 0.000000 0.707106
vn -0.707108 0.000000 0.707106
vn 0.707109 0.000000 0.707105
vn 0.707109 0.000000 0.707105
vn 0.707109 0.000000 0.707105
vn 0.707109 0.000000 0.707105
vn 0.707107 0.000000 -0.707106
vn 0.707107 0.000000 -0.707106
vn 0.707107 0.000000 -0.707106
vn 0.707107 0.000000 -0.707106
s off
g cabin_b:pCylinder11 house
usemtl initialShadingGroup
f 13/1/1 14/2/2 6/3/3 5/4/4
f 14/2/5 15/5/6 7/6/7 6/3/8
f 15/9/9 16/10/10 8/11/11 7/12/12
f 16/7/13 13/1/14 5/4/15 8/8/16
f 1/13/17 2/14/18 10/15/19 9/16/20
f 2/14/21 3/17/22 11/18/23 10/15/24
f 3/21/25 4/22/26 12/23/27 11/24/28
f 4/19/29 1/13/30 9/16/31 12/20/32
f 29/25/33 30/26/34 22/27/35 21/28/36
f 30/26/37 31/29/38 23/30/39 22/27/40
f 31/33/41 32/34/42 24/35/43 23/36/44
f 32/31/45 29/25/46 21/28/47 24/32/48
f 17/37/49 18/38/50 26/39/51 25/40/52
f 18/38/53 19/41/54 27/42/55 26/39/56
f 19/45/57 20/46/58 28/47/59 27/48/60
f 20/43/61 17/37/62 25/40/63 28/44/64
f 45/125/65 46/126/66 38/127/67 37/128/68
f 46/55/69 47/49/70 39/52/71 38/56/72
f 47/49/73 48/50/74 40/51/75 39/52/76
f 48/50/77 45/53/78 37/54/79 40/51/80
f 33/129/81 34/130/82 42/131/83 41/132/84
f 34/63/85 35/57/86 43/60/87 42/64/88
f 35/57/89 36/58/90 44/59/91 43/60/92
f 36/58/93 33/61/94 41/62/95 44/59/96
f 61/133/97 62/134/98 54/135/99 53/136/100
f 62/71/101 63/65/102 55/68/103 54/72/104
f 63/65/105 64/66/106 56/67/107 55/68/108
f 64/66/109 61/69/110 53/70/111 56/67/112
f 49/137/113 50/138/114 58/139/115 57/140/116
f 50/79/117 51/73/118 59/76/119 58/80/120
f 51/73/121 52/74/122 60/75/123 59/76/124
f 52/74/125 49/77/126 57/78/127 60/75/128
f 65/81/129 66/82/130 70/83/131 69/84/132
f 66/82/133 67/85/134 71/86/135 70/83/136
f 67/141/137 68/142/138 72/143/139 71/144/140
f 68/87/141 65/81/142 69/84/143 72/88/144
f 73/89/145 74/90/146 78/91/147 77/92/148
f 74/90/149 75/93/150 79/94/151 78/91/152
f 75/113/153 76/114/154 80/115/155 79/116/156
f 76/95/157 73/89/158 77/92/159 80/96/160
f 81/97/161 82/98/162 86/99/163 85/100/164
f 82/98/165 83/101/166 87/102/167 86/99/168
f 83/117/169 84/118/170 88/119/171 87/120/172
f 84/103/173 81/97/174 85/100/175 88/104/176
f 89/105/177 90/106/178 94/107/179 93/108/180
f 90/106/181 91/109/182 95/110/183 94/107/184
f 91/121/185 92/122/186 96/123/187 95/124/188
f 92/111/189 89/105/190 93/108/191 96/112/192
