# This file uses centimeters as units for non-parametric coordinates.

mtllib housePorch_lowPoly.mtl
g default
v 0.000000 10.000000 -14.559697
v 2.500000 10.000000 -14.559697
v -2.500000 10.000000 -17.809697
v 0.000000 10.000000 -17.809697
v 2.500000 10.000000 -17.809697
v -6.035931 11.500000 -11.019816
v 0.000000 10.000000 -11.019816
v 0.000000 11.500000 -11.019816
v 2.500000 10.000000 -11.019816
v 2.500000 11.500000 -11.019816
v 6.035931 10.000000 -11.019816
v 6.035931 11.500000 -11.019816
v 4.427602 10.000000 -14.559697
v 4.427602 10.000000 -17.809697
v 4.427602 11.500000 -11.019816
v 4.427602 10.000000 -11.019816
v -4.427602 10.000000 -17.809697
v -4.427602 11.500000 -11.019816
v 1.445878 10.000000 -14.559697
v 1.445878 10.000000 -17.809697
v 1.445878 11.500000 -11.019816
v 1.445878 10.000000 -11.019816
v -1.445878 10.000000 -17.809697
v -1.445878 11.500000 -11.019816
v -1.445878 11.500000 -10.534527
v 0.000000 11.500000 -10.534527
v 1.445878 11.500000 -10.534527
v -1.445878 10.750000 -10.534527
v 1.445878 10.750000 -10.534527
v 1.445878 10.604624 -11.019816
v 1.445878 11.125000 -10.534527
v 1.445878 11.125000 -11.019816
v -1.445878 11.125000 -10.534527
v -1.445878 11.125000 -11.019816
v -0.000000 11.129675 -10.534527
v -1.445878 10.750000 -10.053291
v -0.000000 10.759350 -10.053291
v 1.445878 10.750000 -10.053291
v -1.445878 11.125000 -10.053291
v -0.000000 11.129675 -10.053291
v 1.445878 11.125000 -10.053291
v -1.445878 10.750000 -9.570347
v -0.000000 10.759350 -9.570347
v -0.000000 10.379675 -9.570344
v 1.445878 10.750000 -9.570347
v -0.000000 10.379673 -9.117623
v 2.318634 10.196451 -10.394233
v 4.087192 10.495621 -9.908370
v 4.838620 10.495621 -10.210936
v 4.838619 10.196451 -10.210939
v 2.276397 10.566704 -11.004137
v 2.318634 10.196451 -11.004137
v 3.236260 10.495621 -11.000670
v 3.236260 10.196451 -11.000670
v 4.087192 10.495621 -10.960158
v 4.087192 10.196451 -10.960162
v 4.650907 10.495621 -10.943798
v 4.838619 10.196451 -10.974222
v -4.427602 10.000000 -11.019816
v -2.500000 10.000000 -11.019816
v -2.500000 11.500000 -11.019816
v -4.427602 10.000000 -21.059697
v -2.500000 10.000000 -21.059697
v -1.445878 10.000000 -21.059697
v 0.000000 10.000000 -21.059697
v 1.445878 10.000000 -21.059697
v 2.500000 10.000000 -21.059697
v 4.427602 10.000000 -21.059697
v 6.035931 10.000000 -21.059697
v 6.035931 10.000000 -17.809697
v -2.500000 10.000000 -14.559697
v -4.427602 10.000000 -14.559697
v 6.035931 10.000000 -14.559697
v -2.678759 11.500000 -14.559697
v -4.427602 11.500000 -14.559697
v -6.035931 11.500000 -14.559697
v -6.035931 10.000000 -14.559697
v -6.035931 10.000000 -11.019816
v -1.445878 10.000000 -11.019816
v -1.445878 10.000000 -14.559697
v 0.000000 11.500000 -14.559697
v -1.445878 11.500000 -14.559697
v 2.678759 11.500000 -14.559697
v 1.445878 11.500000 -14.559697
v 6.035931 11.500000 -14.559697
v 4.427602 11.500000 -14.559697
v -6.035931 10.000000 -17.809697
v -6.035931 10.000000 -21.059697
v 0.000000 10.000000 -10.534527
v -1.445878 10.000000 -10.534527
v 1.445878 10.000000 -10.534527
v -1.445878 10.374998 -9.117626
v -1.445879 9.999998 -9.117626
v 0.000000 9.999998 -9.117626
v 1.445879 9.999998 -9.117626
v 1.445878 10.374998 -9.117626
v -1.445878 10.375000 -10.534527
v -1.445878 10.375000 -10.053291
v 1.445878 10.375000 -10.053291
v 1.445878 10.375000 -10.534527
v -1.445878 10.375000 -9.570347
v 1.445878 10.375000 -9.570347
v -1.445878 10.604624 -11.019816
v 3.236260 10.196451 -9.558930
v 2.318634 10.196451 -9.900054
v 3.236260 10.196451 -10.053113
v 3.246868 10.438367 -9.572749
v 4.065135 10.464021 -9.499607
v 3.319471 10.519053 -10.053112
v 4.838620 10.495621 -9.716757
v 4.838619 10.196451 -9.716758
v 4.087192 10.196451 -9.414190
v 4.087192 10.196451 -9.908372
v 5.510766 10.495621 -10.283824
v 6.109964 10.495621 -10.969502
v 5.510765 10.196451 -10.283824
v 6.109963 10.196451 -10.969502
v 2.240834 10.503633 -10.394233
v 1.445878 10.000000 -10.053291
vt 0.881702 0.630245
vt 0.830804 0.630245
vt 0.830804 0.591001
vt 0.881702 0.591001
vt 0.482086 0.886566
vt 0.469362 0.886566
vt 0.469520 0.857130
vt 0.482086 0.857130
vt 0.916640 0.760106
vt 0.903916 0.760106
vt 0.916640 0.738645
vt 0.916640 0.699400
vt 0.865742 0.699400
vt 0.865742 0.666656
vt 0.916640 0.666656
vt 0.321162 0.154686
vt 0.321162 0.103788
vt 0.360406 0.103788
vt 0.360406 0.154686
vt 0.381867 0.154686
vt 0.381867 0.103788
vt 0.411304 0.103788
vt 0.411304 0.154686
vt 0.440741 0.154686
vt 0.440741 0.103788
vt 0.462202 0.103788
vt 0.462202 0.154686
vt 0.501447 0.154686
vt 0.501447 0.103788
vt 0.534191 0.103788
vt 0.534191 0.154686
vt 0.321162 0.205584
vt 0.360406 0.205584
vt 0.381867 0.205584
vt 0.411304 0.205584
vt 0.440741 0.205584
vt 0.462202 0.205584
vt 0.501447 0.205584
vt 0.534191 0.205584
vt 0.643234 0.755677
vt 0.643234 0.791282
vt 0.587796 0.791282
vt 0.587796 0.752038
vt 0.262343 0.724278
vt 0.211445 0.724278
vt 0.211445 0.668840
vt 0.262343 0.668840
vt 0.381867 0.261022
vt 0.411304 0.261022
vt 0.643234 0.701140
vt 0.643234 0.730576
vt 0.587796 0.730576
vt 0.587796 0.701140
vt 0.440741 0.261022
vt 0.462202 0.261022
vt 0.643234 0.646602
vt 0.643234 0.671703
vt 0.587796 0.671703
vt 0.587796 0.650242
vt 0.501447 0.261022
vt 0.534191 0.261022
vt 0.001830 0.872432
vt 0.052728 0.872432
vt 0.052728 0.927870
vt 0.001830 0.927870
vt 0.643234 0.578253
vt 0.643234 0.610997
vt 0.587796 0.610997
vt 0.587796 0.578253
vt 0.865742 0.738645
vt 0.288417 0.154686
vt 0.288417 0.205584
vt 0.288417 0.103788
vt 0.643234 0.824027
vt 0.587796 0.824027
vt 0.830804 0.662990
vt 0.881702 0.662990
vt 0.469362 0.827693
vt 0.482086 0.827693
vt 0.411304 0.268622
vt 0.381918 0.268622
vt 0.580196 0.730576
vt 0.580196 0.701140
vt 0.440690 0.268622
vt 0.312853 0.969710
vt 0.320453 0.969710
vt 0.320453 0.982434
vt 0.312853 0.982434
vt 0.580196 0.671703
vt 0.463727 0.857130
vt 0.463409 0.886567
vt 0.450842 0.886498
vt 0.450843 0.857130
vt 0.450842 0.827761
vt 0.463409 0.827693
vt 0.312818 0.944579
vt 0.320453 0.956985
vt 0.312853 0.956985
vt 0.333688 0.969710
vt 0.326088 0.969710
vt 0.326088 0.956985
vt 0.333688 0.956985
vt 0.326088 0.982434
vt 0.333688 0.982434
vt 0.445050 0.857130
vt 0.444891 0.886566
vt 0.432166 0.886566
vt 0.432484 0.857130
vt 0.432166 0.827693
vt 0.444891 0.827693
vt 0.426531 0.960973
vt 0.426373 0.990410
vt 0.413648 0.990410
vt 0.413648 0.960973
vt 0.413648 0.931536
vt 0.426373 0.931536
vt 0.333722 0.944579
vt 0.341302 0.944652
vt 0.341224 0.956985
vt 0.305316 0.956985
vt 0.305238 0.944652
vt 0.408013 0.960973
vt 0.408013 0.990410
vt 0.400477 0.990410
vt 0.400477 0.960973
vt 0.341224 0.969710
vt 0.305316 0.969710
vt 0.408013 0.931536
vt 0.400477 0.931536
vt 0.394841 0.960973
vt 0.394841 0.990410
vt 0.387278 0.990410
vt 0.387278 0.960973
vt 0.349244 0.945433
vt 0.348788 0.956985
vt 0.297753 0.956985
vt 0.297296 0.945433
vt 0.394841 0.931536
vt 0.387278 0.931536
vt 0.381643 0.960973
vt 0.381373 0.990340
vt 0.374553 0.990411
vt 0.374553 0.960973
vt 0.381373 0.931606
vt 0.374553 0.931536
vt 0.891191 0.760106
vt 0.868977 0.569540
vt 0.881702 0.569540
vt 0.856253 0.569540
vt 0.865742 0.760106
vt 0.297753 0.933075
vt 0.297753 0.943225
vt 0.297753 0.944261
vt 0.297753 0.931536
vt 0.297753 0.944261
vt 0.297753 0.931536
vt 0.297753 0.944261
vt 0.297753 0.931536
vt 0.297753 0.944261
vt 0.297753 0.944261
vt 0.297753 0.944261
vt 0.297753 0.944261
vt 0.297753 0.931536
vt 0.297753 0.931536
vt 0.297753 0.931536
vt 0.297753 0.931536
vt 0.348788 0.931536
vt 0.348788 0.944261
vt 0.348788 0.944050
vt 0.348788 0.931963
vt 0.348788 0.944261
vt 0.348788 0.944261
vt 0.348788 0.944261
vt 0.348788 0.944050
vt 0.297753 0.944261
vt 0.297753 0.944261
vt 0.297753 0.944154
vt 0.297753 0.944261
vt 0.297753 0.931536
vt 0.297753 0.931536
vt 0.297753 0.931536
vt 0.297753 0.931575
vt 0.297753 0.931536
vt 0.297753 0.931536
vt 0.297753 0.931536
vt 0.297753 0.931536
vt 0.348788 0.931536
vt 0.348788 0.931536
vt 0.348788 0.931536
vt 0.348788 0.931536
vt 0.348788 0.931536
vt 0.348788 0.944261
vt 0.348788 0.944261
vt 0.348788 0.931536
vt 0.348788 0.944261
vt 0.348788 0.944261
vt 0.348788 0.944261
vt 0.348788 0.944261
vt 0.297753 0.944261
vt 0.297753 0.944261
vt 0.297753 0.931536
vt 0.297753 0.931536
vt 0.000000 0.000000
vt 1.000000 0.000000
vt 0.947719 1.712456
vt -0.001465 1.411719
vt 0.297753 0.931536
vt 0.297753 0.944261
vt 0.305820 0.931690
vt 0.313071 0.931431
vt 0.310608 0.934299
vt 0.303897 0.932815
vt 0.315794 0.949011
vt 0.320239 0.945079
vt 0.320453 0.931536
vt 0.319301 0.932009
vt 0.313376 0.931690
vn 0.000000 0.000000 1.000000
vn 0.000000 0.000000 1.000000
vn 0.000000 0.000000 1.000000
vn 0.000000 0.000000 1.000000
vn 0.000000 0.000000 1.000000
vn 0.000000 0.000000 1.000000
vn 0.000000 0.000000 1.000000
vn 0.000000 0.000000 1.000000
vn 0.000000 0.000000 1.000000
vn -0.000002 0.000000 1.000000
vn -0.000000 0.000000 1.000000
vn 0.000000 0.000000 1.000000
vn 0.000000 0.000000 1.000000
vn 0.000000 0.000000 1.000000
vn 0.000000 0.000000 1.000000
vn 0.000000 -1.000000 0.000000
vn 0.000000 -1.000000 0.000000
vn 0.000000 -1.000000 0.000000
vn 0.000000 -1.000000 0.000000
vn 0.000000 -1.000000 0.000000
vn 0.000000 -1.000000 0.000000
vn 0.000000 -1.000000 0.000000
vn 0.000000 -1.000000 0.000000
vn 0.000000 -1.000000 0.000000
vn 0.000000 -1.000000 0.000000
vn 0.000000 -1.000000 0.000000
vn 0.000000 -1.000000 0.000000
vn 0.000000 -1.000000 0.000000
vn 0.000000 -1.000000 0.000000
vn 0.000000 -1.000000 0.000000
vn 0.000000 -1.000000 0.000000
vn 0.000000 -1.000000 0.000000
vn 0.000000 -1.000000 0.000000
vn 0.000000 -1.000000 0.000000
vn 0.000000 -1.000000 0.000000
vn 0.000000 -1.000000 0.000000
vn 0.000000 -1.000000 0.000000
vn 0.000000 -1.000000 0.000000
vn 0.000000 -1.000000 0.000000
vn 0.000000 1.000000 0.000000
vn 0.000000 1.000000 0.000000
vn 0.000000 1.000000 0.000000
vn 0.000000 1.000000 0.000000
vn -1.000000 0.000000 0.000000
vn -1.000000 0.000000 0.000000
vn -1.000000 0.000000 0.000000
vn -1.000000 0.000000 0.000000
vn 0.000000 -1.000000 0.000000
vn 0.000000 -1.000000 0.000000
vn 0.000000 -1.000000 0.000000
vn 0.000000 -1.000000 0.000000
vn 0.000000 1.000000 0.000000
vn 0.000000 1.000000 0.000000
vn 0.000000 1.000000 0.000000
vn 0.000000 1.000000 0.000000
vn 0.000000 -1.000000 0.000000
vn 0.000000 -1.000000 0.000000
vn 0.000000 -1.000000 0.000000
vn 0.000000 -1.000000 0.000000
vn 0.000000 1.000000 0.000000
vn 0.000000 1.000000 0.000000
vn 0.000000 1.000000 0.000000
vn 0.000000 1.000000 0.000000
vn 0.000000 -1.000000 0.000000
vn 0.000000 -1.000000 0.000000
vn 0.000000 -1.000000 0.000000
vn 0.000000 -1.000000 0.000000
vn 1.000000 0.000000 0.000000
vn 1.000000 0.000000 0.000000
vn 1.000000 0.000000 0.000000
vn 1.000000 0.000000 0.000000
vn 0.000000 1.000000 0.000000
vn 0.000000 1.000000 0.000000
vn 0.000000 1.000000 0.000000
vn 0.000000 1.000000 0.000000
vn 0.000000 1.000000 0.000000
vn 0.000000 1.000000 0.000000
vn 0.000000 0.000000 1.000000
vn 0.000000 -1.000000 0.000000
vn 0.000000 -1.000000 0.000000
vn 0.000000 -1.000000 0.000000
vn 0.000000 -1.000000 0.000000
vn 0.000000 -1.000000 0.000000
vn 0.000000 1.000000 0.000000
vn 0.000000 1.000000 0.000000
vn 0.000000 0.000000 1.000000
vn 0.000000 0.000000 1.000000
vn 0.000000 1.000000 0.000000
vn 0.000000 0.000000 1.000000
vn 0.000000 0.000000 1.000000
vn 0.000000 -1.000000 0.000000
vn 0.000000 1.000000 0.000000
vn 0.000000 1.000000 0.000000
vn 0.000000 -1.000000 0.000000
vn 0.000000 -1.000000 0.000000
vn 0.000000 1.000000 0.000000
vn 0.000000 1.000000 0.000000
vn 0.000000 -1.000000 0.000000
vn 1.000000 -0.000000 -0.000000
vn 1.000000 0.000000 0.000000
vn 1.000000 0.000000 0.000000
vn 1.000000 0.000000 0.000000
vn 0.000000 1.000000 0.000000
vn 0.000000 0.000004 1.000000
vn -0.000002 0.000004 1.000000
vn -0.000002 0.000004 1.000000
vn 0.000000 0.000004 1.000000
vn 0.000002 0.000004 1.000000
vn 0.000002 0.000004 1.000000
vn 1.000000 0.000000 -0.000000
vn 1.000000 0.000000 0.000000
vn 1.000000 -0.000000 -0.000000
vn -1.000000 -0.000000 -0.000000
vn -1.000000 0.000000 0.000000
vn -1.000000 0.000000 0.000000
vn -1.000000 -0.000000 -0.000000
vn -1.000000 0.000000 0.000000
vn -1.000000 0.000000 0.000000
vn 0.000000 0.000000 1.000000
vn 0.000001 0.000000 1.000000
vn 0.000001 0.000000 1.000000
vn 0.000000 0.000000 1.000000
vn -0.000001 0.000000 1.000000
vn -0.000001 0.000000 1.000000
vn 0.000000 -0.000004 1.000000
vn -0.000001 -0.000004 1.000000
vn -0.000001 -0.000004 1.000000
vn 0.000000 -0.000004 1.000000
vn 0.000001 -0.000004 1.000000
vn 0.000001 -0.000004 1.000000
vn -1.000000 0.000000 -0.000000
vn -1.000000 0.000000 -0.000000
vn -1.000000 -0.000000 -0.000000
vn 1.000000 -0.000000 -0.000000
vn 1.000000 0.000000 -0.000000
vn 0.000000 1.000000 -0.000000
vn -0.003233 0.999995 -0.000000
vn -0.003233 0.999995 -0.000000
vn 0.000000 1.000000 -0.000000
vn -1.000000 -0.000001 -0.000000
vn 1.000000 -0.000001 -0.000000
vn 0.003233 0.999995 -0.000000
vn 0.003233 0.999995 -0.000000
vn 0.000000 1.000000 -0.000000
vn -0.006466 0.999979 -0.000000
vn -0.006466 0.999979 -0.000000
vn 0.000000 1.000000 -0.000000
vn -1.000000 0.000000 -0.000000
vn -1.000000 0.000000 -0.000000
vn 1.000000 0.000000 -0.000000
vn 1.000000 0.000000 -0.000000
vn 0.006466 0.999979 0.000000
vn 0.006466 0.999979 0.000000
vn -0.000000 1.000000 0.000004
vn -0.003233 0.999995 0.000004
vn -0.003233 0.999995 0.000004
vn -0.000000 1.000000 0.000004
vn 0.003233 0.999995 0.000004
vn 0.003233 0.999995 0.000004
vn -0.000000 0.000000 1.000000
vn 0.000001 0.000000 1.000000
vn 0.000001 0.000000 1.000000
vn 0.000000 0.000000 1.000000
vn 0.000001 0.000000 1.000000
vn 0.000000 0.000000 1.000000
vn 0.003701 0.000234 -0.999993
vn 0.003701 0.000234 -0.999993
vn 0.003701 0.000234 -0.999993
vn 0.003701 0.000234 -0.999993
vn 0.047553 0.000006 -0.998869
vn 0.047553 0.000006 -0.998869
vn 0.047553 0.000006 -0.998869
vn 0.047553 0.000006 -0.998869
vn 0.001747 0.051335 -0.998680
vn 0.001747 0.051335 -0.998680
vn 0.001747 0.051335 -0.998680
vn 0.001747 0.051335 -0.998680
vn 0.000000 -1.000000 0.000000
vn 0.000000 -1.000000 0.000000
vn 0.000000 -1.000000 0.000000
vn 0.000000 -1.000000 0.000000
vn -0.018336 0.992194 0.123349
vn -0.018336 0.992194 0.123349
vn -0.018336 0.992194 0.123349
vn -0.018336 0.992194 0.123349
vn -0.008863 0.999356 0.034756
vn -0.008863 0.999356 0.034756
vn -0.008863 0.999356 0.034756
vn -0.008863 0.999356 0.034756
vn 0.000000 -1.000000 0.000000
vn 0.000000 -1.000000 0.000000
vn 0.000000 -1.000000 0.000000
vn 0.000000 -1.000000 0.000000
vn 0.000000 1.000000 -0.000001
vn 0.000000 1.000000 -0.000001
vn 0.000000 1.000000 -0.000001
vn 0.000000 1.000000 -0.000001
vn 0.000000 -1.000000 0.000000
vn 0.000000 -1.000000 0.000000
vn 0.000000 -1.000000 0.000000
vn 0.000000 -1.000000 0.000000
vn 0.023110 0.999427 0.024729
vn 0.023110 0.999427 0.024729
vn 0.023110 0.999427 0.024729
vn 0.023110 0.999427 0.024729
vn 0.000000 -1.000000 0.000000
vn 0.000000 -1.000000 0.000000
vn 0.000000 -1.000000 0.000000
vn 0.000000 -1.000000 0.000000
vn 0.015890 0.999797 -0.012379
vn 0.015890 0.999797 -0.012379
vn 0.015890 0.999797 -0.012379
vn 0.015890 0.999797 -0.012379
vn 0.000000 -1.000000 0.000000
vn 0.000000 -1.000000 0.000000
vn 0.000000 -1.000000 0.000000
vn 0.000000 -1.000000 0.000000
vn 0.000000 1.000000 0.000000
vn 0.000000 1.000000 0.000000
vn 0.000000 1.000000 0.000000
vn 0.000000 1.000000 0.000000
vn 0.000000 -1.000000 0.000000
vn 0.000000 -1.000000 0.000000
vn 0.000000 -1.000000 0.000000
vn 0.000000 -1.000000 0.000000
vn -0.007676 0.048378 -0.998800
vn -0.007676 0.048378 -0.998800
vn -0.007676 0.048378 -0.998800
vn -0.007676 0.048378 -0.998800
vn 0.000000 -1.000000 0.000000
vn 0.000000 -1.000000 0.000000
vn 0.000000 -1.000000 0.000000
vn 0.000000 1.000000 0.000000
vn 0.000000 1.000000 0.000000
vn 0.000000 1.000000 0.000000
vn 0.219598 -0.975590 0.000000
vn 0.219598 -0.975590 0.000000
vn 0.219598 -0.975590 0.000000
vn 0.219598 -0.975590 0.000000
vn -0.078256 0.963762 0.255028
vn -0.078256 0.963762 0.255028
vn -0.078256 0.963762 0.255028
vn -0.078256 0.963762 0.255028
vn 0.219598 -0.975590 0.000000
vn 0.219598 -0.975590 0.000000
vn 0.219598 -0.975590 0.000000
vn 0.219598 -0.975590 0.000000
vn 0.018333 0.000794 -0.999832
vn 0.018333 0.000794 -0.999832
vn 0.018333 0.000794 -0.999832
vn 0.018333 0.000794 -0.999832
s 1
g polySurface16 polySurface12 polySurface1 cabin_b:pCube1 house
usemtl initialShadingGroup
f 18/1/1 59/2/2 60/3/3 61/4/4
s 2
f 25/5/5 33/6/6 35/7/7 26/8/8
s 3
f 21/9/9 32/10/10 10/11/11
f 15/12/12 16/13/13 11/14/14 12/15/15
s 5
f 17/16/16 62/17/17 63/18/18 3/19/19
f 23/20/20 64/21/21 65/22/22 4/23/23
f 20/24/24 66/25/25 67/26/26 5/27/27
f 14/28/28 68/29/29 69/30/30 70/31/31
f 72/32/32 17/16/16 3/19/19 71/33/33
f 80/34/34 23/20/20 4/23/23 1/35/35
f 19/36/36 20/24/24 5/27/27 2/37/37
f 13/38/38 14/28/28 70/31/31 73/39/39
s 6
f 74/40/40 75/41/41 18/42/42 61/43/43
s off
f 76/44/44 77/45/45 78/46/46 6/47/47
s 7
f 79/48/48 80/34/49 1/35/50 7/49/51
s 8
f 81/50/52 82/51/53 24/52/54 8/53/55
s 7
f 22/54/56 19/36/57 2/37/58 9/55/59
s 8
f 83/56/60 84/57/61 21/58/62 10/59/63
s 11
f 16/60/64 13/38/65 73/39/66 11/61/67
s off
f 73/62/68 85/63/69 12/64/70 11/65/71
s 12
f 85/66/72 86/67/73 15/68/74 12/69/75
s 5
f 5/27/27 14/28/28 13/38/38 2/37/37
f 67/26/26 68/29/29 14/28/28 5/27/27
s 12
f 15/68/74 86/67/73 83/56/76 10/59/77
s 3
f 9/70/78 16/13/13 15/12/12 10/11/11
s 11
f 2/37/79 13/38/65 16/60/64 9/55/80
s 5
f 87/71/81 17/16/16 72/32/32 77/72/82
f 88/73/83 62/17/17 17/16/16 87/71/81
s 6
f 18/42/42 75/41/41 76/74/84 6/75/85
s 1
f 78/76/86 59/2/2 18/1/1 6/77/87
s 5
f 4/23/23 20/24/24 19/36/36 1/35/35
f 65/22/22 66/25/25 20/24/24 4/23/23
s 8
f 21/58/62 84/57/61 81/50/88 8/53/55
s 2
f 35/7/7 31/78/89 27/79/90 26/8/8
s 7
f 1/35/91 19/36/57 22/54/56 7/49/51
s 5
f 3/19/19 23/20/20 80/34/34 71/33/33
f 63/18/18 64/21/21 23/20/20 3/19/19
s 8
f 24/52/54 82/51/53 74/40/92 61/43/93
s 7
f 79/48/48 7/49/51 89/80/94 90/81/95
s 8
f 8/53/55 24/52/54 25/82/96 26/83/97
s 7
f 7/49/51 22/54/56 91/84/98 89/80/94
s 13
f 31/85/99 32/86/100 21/87/101 27/88/102
s 8
f 21/58/62 8/53/55 26/83/97 27/89/103
s 14
f 43/90/104 42/91/105 101/92/106 44/93/107
f 44/93/107 102/94/108 45/95/109 43/90/104
s 13
f 100/96/110 30/97/111 29/98/112
s 15
f 33/99/113 34/100/114 103/101/115 28/102/116
s 13
f 29/98/112 30/97/111 32/86/100 31/85/99
s 15
f 24/103/117 34/100/114 33/99/113 25/104/118
s 16
f 40/105/119 39/106/120 36/107/121 37/108/122
f 37/108/122 38/109/123 41/110/124 40/105/119
s 17
f 46/111/125 92/112/126 93/113/127 94/114/128
f 94/114/128 95/115/129 96/116/130 46/111/125
s 15
f 28/102/116 97/117/131 98/118/132 36/119/133
s 13
f 100/96/110 29/98/112 38/120/134 99/121/135
s 18
f 35/122/136 33/123/137 39/124/138 40/125/139
s 15
f 33/99/113 28/102/116 36/119/133 39/126/140
s 13
f 29/98/112 31/85/99 41/127/141 38/120/134
s 18
f 31/128/142 35/122/136 40/125/139 41/129/143
s 19
f 37/130/144 36/131/145 42/132/146 43/133/147
s 15
f 36/119/133 98/118/132 101/134/148 42/135/149
s 13
f 99/121/135 38/120/134 45/136/150 102/137/151
s 19
f 38/138/152 37/130/144 43/133/147 45/139/153
s 20
f 44/140/154 101/141/155 92/142/156 46/143/157
f 102/144/158 44/140/154 46/143/157 96/145/159
s 3
f 10/11/11 32/10/10 30/146/160
s 21
f 61/4/161 34/147/162 24/148/163
s 3
f 10/11/11 30/146/160 9/70/78
s 21
f 61/4/161 103/149/164 34/147/162
s 3
f 9/70/78 30/146/160 22/150/165
s off
f 52/151/166 51/152/167 53/153/168 54/154/169
f 54/154/170 53/153/171 55/155/172 56/156/173
f 56/156/174 55/155/175 57/157/176 58/158/177
f 104/159/178 105/160/179 47/161/180 106/162/181
f 107/163/182 108/164/183 48/165/184 109/166/185
f 108/167/186 110/168/187 49/169/188 48/170/189
f 111/171/190 112/172/191 113/173/192 50/174/193
f 110/175/194 114/176/195 115/177/196 49/178/197
f 116/179/198 111/180/199 50/181/200 117/182/201
f 118/183/202 109/184/203 53/185/204 51/186/205
f 106/187/206 47/188/207 52/189/208 54/190/209
f 109/191/210 48/192/211 55/193/212 53/194/213
f 113/195/214 106/196/215 54/197/216 56/198/217
f 48/199/218 49/200/219 57/157/220 55/155/221
f 50/201/222 113/202/223 56/156/224 58/158/225
f 58/203/226 57/204/227 115/205/228 117/206/229
f 117/182/230 50/207/231 58/203/232
f 115/205/233 57/157/234 49/208/235
f 119/209/236 91/210/237 47/211/238 105/212/239
s 15
f 103/101/115 97/117/131 28/102/116
s off
f 30/97/240 100/96/241 118/213/242 51/214/243
f 91/210/244 22/215/245 52/216/246 47/217/247
f 22/215/248 30/97/249 51/214/250 52/216/251
