# This file uses centimeters as units for non-parametric coordinates.

mtllib lifePreserver.mtl
g default
v 5.087472 0.037877 32.663200
v 4.780281 0.059698 32.535637
v 4.473088 0.081519 32.663200
v 4.345845 0.090557 32.971167
v 4.473088 0.081519 33.279134
v 4.780281 0.059698 33.406697
v 5.087473 0.037877 33.279134
v 5.214716 0.028839 32.971167
v 5.149972 0.020478 32.599626
v 4.779365 0.046804 32.445728
v 4.408757 0.073129 32.599626
v 4.255246 0.084033 32.971167
v 4.408757 0.073129 33.342708
v 4.779365 0.046804 33.496606
v 5.149972 0.020478 33.342708
v 5.303483 0.009574 32.971167
v 5.161847 -0.067738 32.581530
v 4.773189 -0.040131 32.420138
v 4.384532 -0.012523 32.581530
v 4.223545 -0.001088 32.971167
v 4.384532 -0.012523 33.360804
v 4.773189 -0.040131 33.522196
v 5.161847 -0.067738 33.360804
v 5.322834 -0.079174 32.971167
v 5.109213 -0.123632 32.630071
v 4.768975 -0.099464 32.488785
v 4.428736 -0.075296 32.630071
v 4.287804 -0.065285 32.971167
v 4.428736 -0.075296 33.312263
v 4.768975 -0.099464 33.453549
v 5.109213 -0.123632 33.312263
v 5.250145 -0.133643 32.971167
v 5.053609 -0.081854 32.688495
v 4.771648 -0.061826 32.571409
v 4.489687 -0.041797 32.688495
v 4.372895 -0.033501 32.971167
v 4.489687 -0.041797 33.253839
v 4.771648 -0.061826 33.370925
v 5.053609 -0.081854 33.253839
v 5.170401 -0.090150 32.971167
vt 0.164160 0.317358
vt 0.395366 0.145944
vt 0.685570 0.189924
vt 0.860265 0.422142
vt 0.818489 0.702209
vt 0.589129 0.867487
vt 0.305209 0.825431
vt 0.128668 0.599347
vt 0.106055 0.280556
vt 0.378762 0.077764
vt 0.721545 0.129839
vt 0.927176 0.404289
vt 0.877171 0.734139
vt 0.607088 0.928207
vt 0.273240 0.878866
vt 0.064984 0.613139
vt 0.102855 0.261265
vt 0.383293 0.052552
vt 0.735806 0.106156
vt 0.947066 0.388565
vt 0.895420 0.727751
vt 0.617770 0.927197
vt 0.274743 0.876497
vt 0.060694 0.603355
vt 0.156810 0.281447
vt 0.403124 0.098541
vt 0.712326 0.145485
vt 0.898103 0.393176
vt 0.853216 0.691505
vt 0.609026 0.867355
vt 0.307044 0.822623
vt 0.119143 0.581987
vt 0.205305 0.317310
vt 0.415330 0.161778
vt 0.678664 0.201665
vt 0.837384 0.412475
vt 0.799628 0.667168
vt 0.591107 0.817702
vt 0.332889 0.779381
vt 0.172664 0.573569
vn -0.349856 0.287324 0.891653
vn -0.349856 0.287324 0.891653
vn -0.349856 0.287324 0.891653
vn -0.349856 0.287324 0.891653
vn 0.386957 0.234986 0.891653
vn 0.386957 0.234986 0.891653
vn 0.386957 0.234986 0.891653
vn 0.386957 0.234986 0.891653
vn 0.907963 0.197977 0.369335
vn 0.907963 0.197977 0.369335
vn 0.907963 0.197977 0.369335
vn 0.907963 0.197977 0.369335
vn 0.907963 0.197977 -0.369335
vn 0.907963 0.197977 -0.369335
vn 0.907963 0.197977 -0.369335
vn 0.907963 0.197977 -0.369335
vn 0.386957 0.234986 -0.891653
vn 0.386957 0.234986 -0.891653
vn 0.386957 0.234986 -0.891653
vn 0.386957 0.234986 -0.891653
vn -0.349856 0.287325 -0.891653
vn -0.349856 0.287325 -0.891653
vn -0.349856 0.287325 -0.891653
vn -0.349856 0.287325 -0.891653
vn -0.870861 0.324334 -0.369334
vn -0.870861 0.324334 -0.369334
vn -0.870861 0.324334 -0.369334
vn -0.870861 0.324334 -0.369334
vn -0.870862 0.324332 0.369335
vn -0.870862 0.324332 0.369335
vn -0.870862 0.324332 0.369335
vn -0.870862 0.324332 0.369335
vn 0.128710 0.981453 -0.142068
vn 0.128710 0.981453 -0.142068
vn 0.128710 0.981453 -0.142068
vn 0.128710 0.981453 -0.142068
vn 0.011313 0.989792 -0.142068
vn 0.011313 0.989792 -0.142068
vn 0.011313 0.989792 -0.142068
vn 0.011313 0.989792 -0.142068
vn -0.071700 0.995689 -0.058847
vn -0.071699 0.995689 -0.058847
vn -0.071700 0.995689 -0.058847
vn -0.071700 0.995689 -0.058847
vn -0.071699 0.995689 0.058847
vn -0.071700 0.995689 0.058847
vn -0.071700 0.995689 0.058847
vn -0.071700 0.995689 0.058847
vn 0.011313 0.989792 0.142068
vn 0.011313 0.989792 0.142068
vn 0.011313 0.989792 0.142068
vn 0.011313 0.989792 0.142068
vn 0.128710 0.981453 0.142068
vn 0.128710 0.981453 0.142068
vn 0.128710 0.981453 0.142068
vn 0.128710 0.981453 0.142068
vn 0.211723 0.975556 0.058847
vn 0.211723 0.975556 0.058847
vn 0.211723 0.975556 0.058847
vn 0.211723 0.975557 0.058847
vn 0.211722 0.975557 -0.058847
vn 0.211722 0.975556 -0.058847
vn 0.211723 0.975557 -0.058847
vn 0.211722 0.975557 -0.058847
vn 0.386957 0.234987 -0.891653
vn 0.386957 0.234987 -0.891653
vn 0.386957 0.234987 -0.891653
vn 0.386957 0.234987 -0.891653
vn -0.349856 0.287324 -0.891653
vn -0.349856 0.287324 -0.891653
vn -0.349856 0.287324 -0.891653
vn -0.349856 0.287324 -0.891653
vn -0.870862 0.324332 -0.369335
vn -0.870862 0.324332 -0.369335
vn -0.870862 0.324332 -0.369335
vn -0.870862 0.324332 -0.369335
vn -0.870862 0.324332 0.369335
vn -0.870862 0.324332 0.369335
vn -0.870862 0.324332 0.369335
vn -0.870862 0.324332 0.369335
vn -0.349856 0.287324 0.891653
vn -0.349856 0.287324 0.891653
vn -0.349856 0.287324 0.891653
vn -0.349856 0.287324 0.891653
vn 0.386957 0.234986 0.891653
vn 0.386957 0.234986 0.891653
vn 0.386957 0.234986 0.891653
vn 0.386957 0.234986 0.891653
vn 0.907963 0.197976 0.369335
vn 0.907963 0.197976 0.369335
vn 0.907963 0.197976 0.369335
vn 0.907963 0.197976 0.369335
vn 0.907963 0.197978 -0.369335
vn 0.907963 0.197978 -0.369335
vn 0.907962 0.197978 -0.369335
vn 0.907963 0.197978 -0.369335
vn 0.209453 -0.746109 -0.632022
vn 0.209453 -0.746108 -0.632022
vn 0.209453 -0.746108 -0.632022
vn 0.209453 -0.746109 -0.632022
vn -0.312815 -0.709010 -0.632022
vn -0.312815 -0.709010 -0.632022
vn -0.312815 -0.709010 -0.632022
vn -0.312815 -0.709010 -0.632022
vn -0.682115 -0.682776 -0.261793
vn -0.682115 -0.682776 -0.261793
vn -0.682115 -0.682776 -0.261793
vn -0.682115 -0.682776 -0.261793
vn -0.682115 -0.682776 0.261793
vn -0.682115 -0.682776 0.261793
vn -0.682115 -0.682776 0.261793
vn -0.682115 -0.682776 0.261793
vn -0.312815 -0.709010 0.632022
vn -0.312815 -0.709010 0.632022
vn -0.312815 -0.709010 0.632022
vn -0.312815 -0.709010 0.632022
vn 0.209453 -0.746108 0.632022
vn 0.209453 -0.746108 0.632022
vn 0.209453 -0.746108 0.632022
vn 0.209453 -0.746108 0.632022
vn 0.578752 -0.772341 0.261792
vn 0.578752 -0.772341 0.261792
vn 0.578752 -0.772341 0.261792
vn 0.578752 -0.772341 0.261792
vn 0.578752 -0.772341 -0.261791
vn 0.578752 -0.772341 -0.261792
vn 0.578752 -0.772341 -0.261791
vn 0.578752 -0.772341 -0.261791
vn -0.232670 -0.882189 0.409399
vn -0.232670 -0.882189 0.409399
vn -0.232670 -0.882189 0.409399
vn -0.232670 -0.882189 0.409399
vn 0.105634 -0.906220 0.409399
vn 0.105634 -0.906220 0.409399
vn 0.105634 -0.906220 0.409399
vn 0.105634 -0.906220 0.409399
vn 0.344851 -0.923212 0.169578
vn 0.344851 -0.923212 0.169578
vn 0.344851 -0.923212 0.169578
vn 0.344851 -0.923212 0.169578
vn 0.344851 -0.923212 -0.169578
vn 0.344851 -0.923212 -0.169578
vn 0.344851 -0.923212 -0.169578
vn 0.344851 -0.923212 -0.169578
vn 0.105634 -0.906220 -0.409399
vn 0.105634 -0.906220 -0.409398
vn 0.105634 -0.906220 -0.409398
vn 0.105634 -0.906220 -0.409398
vn -0.232670 -0.882189 -0.409399
vn -0.232670 -0.882189 -0.409399
vn -0.232670 -0.882189 -0.409399
vn -0.232670 -0.882189 -0.409399
vn -0.471887 -0.865197 -0.169578
vn -0.471887 -0.865197 -0.169578
vn -0.471887 -0.865197 -0.169578
vn -0.471887 -0.865197 -0.169578
vn -0.471888 -0.865197 0.169578
vn -0.471887 -0.865197 0.169578
vn -0.471887 -0.865197 0.169578
vn -0.471887 -0.865197 0.169578
s off
g Buoy boat
usemtl lambert6SG
f 34/34/1 33/33/2 1/1/3 2/2/4
f 35/35/5 34/34/6 2/2/7 3/3/8
f 36/36/9 35/35/10 3/3/11 4/4/12
f 37/37/13 36/36/14 4/4/15 5/5/16
f 38/38/17 37/37/18 5/5/19 6/6/20
f 39/39/21 38/38/22 6/6/23 7/7/24
f 40/40/25 39/39/26 7/7/27 8/8/28
f 33/33/29 40/40/30 8/8/31 1/1/32
f 2/2/33 1/1/34 9/9/35 10/10/36
f 3/3/37 2/2/38 10/10/39 11/11/40
f 4/4/41 3/3/42 11/11/43 12/12/44
f 5/5/45 4/4/46 12/12/47 13/13/48
f 6/6/49 5/5/50 13/13/51 14/14/52
f 7/7/53 6/6/54 14/14/55 15/15/56
f 8/8/57 7/7/58 15/15/59 16/16/60
f 1/1/61 8/8/62 16/16/63 9/9/64
f 10/10/65 9/9/66 17/17/67 18/18/68
f 11/11/69 10/10/70 18/18/71 19/19/72
f 12/12/73 11/11/74 19/19/75 20/20/76
f 13/13/77 12/12/78 20/20/79 21/21/80
f 14/14/81 13/13/82 21/21/83 22/22/84
f 15/15/85 14/14/86 22/22/87 23/23/88
f 16/16/89 15/15/90 23/23/91 24/24/92
f 9/9/93 16/16/94 24/24/95 17/17/96
f 18/18/97 17/17/98 25/25/99 26/26/100
f 19/19/101 18/18/102 26/26/103 27/27/104
f 20/20/105 19/19/106 27/27/107 28/28/108
f 21/21/109 20/20/110 28/28/111 29/29/112
f 22/22/113 21/21/114 29/29/115 30/30/116
f 23/23/117 22/22/118 30/30/119 31/31/120
f 24/24/121 23/23/122 31/31/123 32/32/124
f 17/17/125 24/24/126 32/32/127 25/25/128
f 26/26/129 25/25/130 33/33/131 34/34/132
f 27/27/133 26/26/134 34/34/135 35/35/136
f 28/28/137 27/27/138 35/35/139 36/36/140
f 29/29/141 28/28/142 36/36/143 37/37/144
f 30/30/145 29/29/146 37/37/147 38/38/148
f 31/31/149 30/30/150 38/38/151 39/39/152
f 32/32/153 31/31/154 39/39/155 40/40/156
f 25/25/157 32/32/158 40/40/159 33/33/160
