# This file uses centimeters as units for non-parametric coordinates.

mtllib metal.mtl
g default
v 3.220160 0.817683 32.481826
v 3.213797 0.817683 32.573316
v 3.212381 0.792093 32.593675
v 3.213797 0.702681 32.573316
v 3.215843 0.688480 32.543897
v 3.218114 0.688480 32.511245
v 3.220160 0.702681 32.481826
v 3.221576 0.792093 32.461468
v 3.214831 0.853990 32.452432
v 3.204451 0.853990 32.601689
v 3.202141 0.812241 32.634902
v 3.204451 0.666375 32.601689
v 3.207789 0.643207 32.553696
v 3.211493 0.643207 32.500426
v 3.214831 0.666375 32.452432
v 3.217141 0.812241 32.419220
v 3.175842 0.853990 32.449721
v 3.165462 0.853990 32.598978
v 3.163153 0.812241 32.632191
v 3.165462 0.666375 32.598978
v 3.168800 0.643207 32.550984
v 3.172505 0.643207 32.497715
v 3.175842 0.666375 32.449721
v 3.178152 0.812241 32.416508
v 3.166497 0.817683 32.478094
v 3.160134 0.817683 32.569584
v 3.158718 0.792093 32.589943
v 3.160134 0.702681 32.569584
v 3.162180 0.688480 32.540165
v 3.164451 0.688480 32.507513
v 3.166497 0.702681 32.478094
v 3.167913 0.792093 32.457736
v 3.207789 0.545471 32.553696
v 3.168800 0.545471 32.550984
v 3.172505 0.545471 32.497715
v 3.211493 0.545471 32.500426
vt 0.287039 0.675606
vt 0.287039 0.627626
vt 0.287039 0.843248
vt 0.186181 0.675606
vt 0.186181 0.627626
vt 0.186181 0.843248
vt 0.393643 0.795268
vt 0.393643 0.627626
vt 0.393643 0.843248
vt 0.292784 0.795268
vt 0.292784 0.627626
vt 0.292784 0.843248
vt 0.814099 0.910425
vt 0.814099 0.988701
vt 0.814099 0.636933
vt 0.740820 0.910425
vt 0.740820 0.988701
vt 0.740820 0.636933
vt 0.920702 0.715209
vt 0.920702 0.988701
vt 0.847424 0.715209
vt 0.920702 0.636933
vt 0.847424 0.988701
vt 0.847424 0.636933
vt 0.619619 0.639232
vt 0.619619 0.822482
vt 0.546340 0.639232
vt 0.546340 0.822482
vt 0.495309 0.658011
vt 0.495309 0.841261
vt 0.422030 0.658011
vt 0.422030 0.841261
vt 0.353301 0.580449
vt 0.337278 0.464396
vt 0.403299 0.496190
vt 0.299015 0.512376
vt 0.072776 0.580449
vt 0.353301 0.228682
vt 0.127062 0.512376
vt 0.263098 0.185242
vt 0.088799 0.464396
vt 0.022778 0.496190
vt 0.299015 0.296754
vt 0.243723 0.270127
vt 0.162979 0.185242
vt 0.182354 0.270127
vt 0.127062 0.296754
vt 0.072776 0.228682
vt 0.162979 0.001992
vt 0.263098 0.001992
vt 0.832337 0.129691
vt 0.782339 0.045432
vt 0.728053 0.113504
vt 0.501814 0.045432
vt 0.766316 0.161485
vt 0.451816 0.129691
vt 0.782339 0.397199
vt 0.692136 0.440639
vt 0.556100 0.113504
vt 0.728053 0.329127
vt 0.692136 0.623889
vt 0.672761 0.355754
vt 0.517837 0.161485
vt 0.611392 0.355754
vt 0.592018 0.440639
vt 0.501814 0.397199
vt 0.556100 0.329127
vt 0.592018 0.623889
vt 0.180436 0.627626
vt 0.180436 0.782383
vt 0.107157 0.627626
vt 0.107157 0.782383
vt 0.028134 0.732621
vt 0.028134 0.782383
vt 0.028134 0.677388
vt 0.101412 0.732621
vt 0.101412 0.782383
vt 0.028134 0.627626
vt 0.101412 0.677388
vt 0.101412 0.627626
vt 0.648007 0.635048
vt 0.648007 0.915573
vt 0.721286 0.635048
vt 0.721286 0.915573
vt 0.155623 0.786120
vt 0.155623 0.876324
vt 0.082344 0.876324
vt 0.082344 0.786120
vt 0.075144 0.888888
vt 0.075144 0.788769
vt 0.001865 0.888888
vt 0.001865 0.788769
vt 0.235919 0.854408
vt 0.235919 0.944612
vt 0.162640 0.944612
vt 0.162640 0.854408
vn 0.865260 -0.470275 0.173683
vn 0.839560 -0.005750 0.543237
vn 0.523604 0.006119 -0.851940
vn 0.476216 0.862633 -0.170539
vn 0.880972 -0.470275 -0.052241
vn 0.448026 0.862633 0.234815
vn 0.906673 -0.005750 -0.421795
vn 0.400638 0.006119 0.916216
vn 0.903177 0.215042 -0.371523
vn 0.406911 -0.390027 0.826017
vn 0.858505 0.509639 -0.056898
vn 0.770512 -0.564882 0.295331
vn 0.842365 0.509639 0.175185
vn 0.803974 -0.564882 -0.185833
vn 0.843056 0.215042 0.492964
vn 0.517331 -0.390027 -0.761740
vn -0.400640 0.006119 -0.916215
vn -0.448028 0.862631 -0.234815
vn -0.476218 0.862632 0.170538
vn -0.523606 0.006119 0.851939
vn -0.517333 -0.390026 0.761739
vn -0.803978 -0.564877 0.185832
vn -0.000000 -1.000000 -0.000000
vn -0.000000 -1.000000 -0.000000
vn -0.000000 -1.000000 -0.000000
vn -0.000000 -1.000000 -0.000000
vn -0.770516 -0.564877 -0.295330
vn -0.406912 -0.390026 -0.826016
vn -0.906669 -0.005749 0.421804
vn -0.880968 -0.470283 0.052243
vn -0.865256 -0.470283 -0.173684
vn -0.839555 -0.005749 -0.543245
vn -0.843051 0.215045 -0.492971
vn -0.842360 0.509646 -0.175186
vn -0.858501 0.509646 0.056900
vn -0.903173 0.215045 0.371530
vn -0.069377 0.000000 0.997590
vn -0.069377 0.000000 0.997590
vn -0.069377 0.000000 0.997590
vn -0.069377 0.000000 0.997590
vn -0.997590 0.000000 -0.069377
vn -0.997590 0.000000 -0.069377
vn -0.997590 0.000000 -0.069377
vn -0.997590 0.000000 -0.069377
vn 0.069377 -0.000000 -0.997590
vn 0.069377 -0.000000 -0.997590
vn 0.069377 -0.000000 -0.997590
vn 0.069377 -0.000000 -0.997590
vn 0.997590 -0.000000 0.069377
vn 0.997590 -0.000000 0.069377
vn 0.997590 -0.000000 0.069377
vn 0.997590 -0.000000 0.069377
s 1
g Hook2 boat
usemtl lambert4SG
f 1/36/1 8/34/2 16/35/3 9/33/4
f 2/39/5 1/36/1 9/33/4 10/37/6
f 3/41/7 2/39/5 10/37/6 11/42/8
f 4/47/9 3/41/7 11/42/8 12/48/10
f 5/46/11 4/47/9 12/48/10 13/45/12
f 6/44/13 5/46/11 13/45/12 14/40/14
f 7/43/15 6/44/13 14/40/14 15/38/16
f 8/34/2 7/43/15 15/38/16 16/35/3
f 9/22/4 16/19/3 24/21/17 17/24/18
f 10/82/6 9/81/4 17/83/18 18/84/19
f 11/13/8 10/14/6 18/17/19 19/16/20
f 12/15/10 11/13/8 19/16/20 20/18/21
f 13/85/12 12/86/10 20/87/21 21/88/22
s off
f 36/90/23 33/89/24 34/91/25 35/92/26
s 1
f 15/93/16 14/94/14 22/95/27 23/96/28
f 16/19/3 15/20/16 23/23/28 24/21/17
f 17/52/18 24/51/17 32/55/29 25/53/30
f 18/54/19 17/52/18 25/53/30 26/59/31
f 19/56/20 18/54/19 26/59/31 27/63/32
f 20/66/21 19/56/20 27/63/32 28/67/33
f 21/65/22 20/66/21 28/67/33 29/64/34
f 22/58/27 21/65/22 29/64/34 30/62/35
f 23/57/28 22/58/27 30/62/35 31/60/36
f 24/51/17 23/57/28 31/60/36 32/55/29
f 25/12/30 32/10/29 8/7/2 1/9/1
f 26/72/31 25/71/30 1/69/1 2/70/5
f 27/4/32 26/5/31 2/2/5 3/1/7
f 28/6/33 27/4/32 3/1/7 4/3/9
f 29/76/34 28/77/33 4/74/9 5/73/11
f 30/79/35 29/76/34 5/73/11 6/75/13
f 31/80/36 30/79/35 6/75/13 7/78/15
f 32/10/29 31/11/36 7/8/15 8/7/2
s off
f 13/26/37 21/28/38 34/27/39 33/25/40
f 21/65/41 22/58/42 35/61/43 34/68/44
f 22/31/45 14/29/46 36/30/47 35/32/48
f 14/40/49 13/45/50 33/49/51 36/50/52
g default
v 6.291778 0.817683 32.494780
v 6.254425 0.817683 32.578540
v 6.243146 0.760182 32.603830
v 6.254425 0.702681 32.578540
v 6.266435 0.688479 32.551607
v 6.279766 0.688479 32.521713
v 6.291778 0.702681 32.494780
v 6.303056 0.760182 32.469490
v 6.296853 0.853989 32.465341
v 6.235915 0.853989 32.601987
v 6.217515 0.760182 32.643245
v 6.235915 0.666375 32.601987
v 6.255509 0.643206 32.558048
v 6.277258 0.643206 32.509280
v 6.296852 0.666375 32.465341
v 6.315252 0.760182 32.424083
v 6.261158 0.853989 32.449423
v 6.200220 0.853989 32.586069
v 6.181821 0.760182 32.627327
v 6.200220 0.666375 32.586069
v 6.219815 0.643206 32.542130
v 6.241563 0.643206 32.493362
v 6.261158 0.666375 32.449423
v 6.279557 0.760182 32.408165
v 6.242649 0.817683 32.472871
v 6.205296 0.817683 32.556630
v 6.194017 0.760182 32.581921
v 6.205296 0.702681 32.556630
v 6.217306 0.688479 32.529697
v 6.230637 0.688479 32.499804
v 6.242649 0.702681 32.472871
v 6.253927 0.760182 32.447581
v 6.255509 0.545470 32.558048
v 6.219815 0.545470 32.542130
v 6.241563 0.545470 32.493362
v 6.277258 0.545470 32.509280
vt 0.287038 0.735437
vt 0.287038 0.627626
vt 0.287038 0.843248
vt 0.186179 0.735437
vt 0.186179 0.627626
vt 0.186179 0.843248
vt 0.393642 0.735437
vt 0.393642 0.627626
vt 0.393642 0.843248
vt 0.292784 0.735437
vt 0.292784 0.627626
vt 0.292784 0.843248
vt 0.814098 0.812817
vt 0.814099 0.988701
vt 0.740820 0.812817
vt 0.814099 0.636933
vt 0.740820 0.988701
vt 0.740820 0.636933
vt 0.920703 0.812817
vt 0.920702 0.988700
vt 0.920703 0.636933
vt 0.847424 0.812817
vt 0.847424 0.988700
vt 0.847424 0.636933
vt 0.619618 0.639232
vt 0.619618 0.822482
vt 0.546339 0.639232
vt 0.546339 0.822482
vt 0.495309 0.658011
vt 0.495309 0.841261
vt 0.422030 0.658011
vt 0.422030 0.841261
vt 0.299015 0.512376
vt 0.353302 0.580449
vt 0.350934 0.404565
vt 0.424212 0.404565
vt 0.072776 0.580449
vt 0.353301 0.228682
vt 0.127062 0.512376
vt 0.263098 0.185242
vt 0.075143 0.404565
vt 0.001865 0.404565
vt 0.299015 0.296754
vt 0.243723 0.270127
vt 0.162979 0.185242
vt 0.182354 0.270127
vt 0.072776 0.228682
vt 0.127062 0.296754
vt 0.162979 0.001992
vt 0.263098 0.001992
vt 0.853250 0.221315
vt 0.782339 0.045432
vt 0.728053 0.113504
vt 0.501814 0.045432
vt 0.430903 0.221315
vt 0.782339 0.397199
vt 0.692136 0.440639
vt 0.779972 0.221315
vt 0.556100 0.113504
vt 0.728053 0.329127
vt 0.692136 0.623888
vt 0.672761 0.355754
vt 0.504181 0.221315
vt 0.611392 0.355754
vt 0.592017 0.440639
vt 0.501814 0.397199
vt 0.556100 0.329127
vt 0.592017 0.623888
vt 0.180434 0.627626
vt 0.180434 0.782383
vt 0.107156 0.627626
vt 0.107156 0.782383
vt 0.028133 0.732620
vt 0.028133 0.782383
vt 0.028133 0.677388
vt 0.101411 0.732620
vt 0.101411 0.782383
vt 0.028133 0.627626
vt 0.101411 0.677388
vt 0.101411 0.627626
vt 0.648006 0.635048
vt 0.648007 0.915573
vt 0.721285 0.635048
vt 0.721285 0.915573
vt 0.155622 0.786120
vt 0.155623 0.876324
vt 0.082344 0.876323
vt 0.082344 0.786120
vt 0.075144 0.888887
vt 0.075144 0.788769
vt 0.001865 0.888887
vt 0.001865 0.788769
vt 0.235919 0.854408
vt 0.235919 0.944611
vt 0.162640 0.944611
vt 0.162641 0.854408
vn 0.897456 -0.401279 0.183161
vn 0.735971 -0.401277 0.545273
vn 0.594539 0.788606 -0.156919
vn 0.280548 0.788607 0.547167
vn 0.997781 0.000001 -0.066581
vn 0.135421 0.000000 0.990788
vn 0.950492 0.310745 0.001609
vn 0.226919 -0.526318 0.819449
vn 0.825955 0.509637 0.240973
vn 0.622503 -0.564882 0.541663
vn 0.731199 0.509643 0.453446
vn 0.818949 -0.564881 0.101158
vn 0.636348 0.310744 0.706045
vn 0.761267 -0.526320 -0.378762
vn 0.617215 -0.000001 0.786794
vn 0.827594 -0.000000 -0.561327
vn -0.280552 0.788607 -0.547165
vn -0.594539 0.788607 0.156915
vn -0.827596 -0.000000 0.561324
vn -0.761270 -0.526316 0.378760
vn -0.818952 -0.564876 -0.101157
vn -0.000000 -1.000000 -0.000000
vn -0.000000 -1.000000 -0.000000
vn -0.000000 -1.000000 -0.000000
vn -0.000000 -1.000000 -0.000000
vn -0.622508 -0.564874 -0.541665
vn -0.226925 -0.526317 -0.819448
vn -0.135429 0.000000 -0.990787
vn -0.897453 -0.401289 -0.183155
vn -0.735965 -0.401287 -0.545275
vn -0.617207 0.000000 -0.786801
vn -0.636337 0.310753 -0.706051
vn -0.731197 0.509646 -0.453445
vn -0.825949 0.509648 -0.240971
vn -0.950489 0.310754 -0.001602
vn -0.997781 0.000000 0.066589
vn -0.407289 -0.000000 0.913300
vn -0.407289 -0.000000 0.913300
vn -0.407289 -0.000000 0.913300
vn -0.407289 -0.000000 0.913300
vn -0.913300 0.000000 -0.407287
vn -0.913300 0.000000 -0.407287
vn -0.913300 0.000000 -0.407287
vn -0.913300 0.000000 -0.407287
vn 0.407289 0.000000 -0.913300
vn 0.407289 0.000000 -0.913300
vn 0.407289 0.000000 -0.913300
vn 0.407289 0.000000 -0.913300
vn 0.913297 -0.000000 0.407293
vn 0.913297 -0.000000 0.407293
vn 0.913297 -0.000000 0.407293
vn 0.913297 -0.000000 0.407293
s 1
g boat Hook1
usemtl lambert4SG
f 38/135/53 37/129/54 45/130/55 46/133/56
f 39/137/57 38/135/53 46/133/56 47/138/58
f 40/144/59 39/137/57 47/138/58 48/143/60
f 41/142/61 40/144/59 48/143/60 49/141/62
f 42/140/63 41/142/61 49/141/62 50/136/64
f 43/139/65 42/140/63 50/136/64 51/134/66
f 44/131/67 43/139/65 51/134/66 52/132/68
f 37/129/54 44/131/67 52/132/68 45/130/55
f 46/178/56 45/177/55 53/179/69 54/180/70
f 47/109/58 46/110/56 54/113/70 55/111/71
f 48/112/60 47/109/58 55/111/71 56/114/72
f 49/181/62 48/182/60 56/183/72 57/184/73
s off
f 72/186/74 69/185/75 70/187/76 71/188/77
s 1
f 51/189/66 50/190/64 58/191/78 59/192/79
f 52/115/68 51/116/66 59/119/79 60/118/80
f 45/117/55 52/115/68 60/118/80 53/120/69
f 54/150/70 53/148/69 61/149/81 62/155/82
f 55/151/71 54/150/70 62/155/82 63/159/83
f 56/162/72 55/151/71 63/159/83 64/163/84
f 57/161/73 56/162/72 64/163/84 65/160/85
f 58/153/78 57/161/73 65/160/85 66/158/86
f 59/152/79 58/153/78 66/158/86 67/156/87
f 60/147/80 59/152/79 67/156/87 68/154/88
f 53/148/69 60/147/80 68/154/88 61/149/81
f 62/168/82 61/167/81 37/165/54 38/166/53
f 63/100/83 62/101/82 38/98/53 39/97/57
f 64/102/84 63/100/83 39/97/57 40/99/59
f 65/172/85 64/173/84 40/170/59 41/169/61
f 66/175/86 65/172/85 41/169/61 42/171/63
f 67/176/87 66/175/86 42/171/63 43/174/65
f 68/106/88 67/107/87 43/104/65 44/103/67
f 61/108/81 68/106/88 44/103/67 37/105/54
s off
f 49/122/89 57/124/90 70/123/91 69/121/92
f 57/161/93 58/153/94 71/157/95 70/164/96
f 58/127/97 50/125/98 72/126/99 71/128/100
f 50/136/101 49/141/102 69/145/103 72/146/104
g default
v 0.237239 -6.884073 53.026008
v 0.237239 1.692091 53.026008
v 0.081807 -6.884073 53.026008
v 0.081807 1.692091 53.026008
v 0.081807 -6.884073 52.870567
v 0.081807 1.692091 52.870567
v 0.237239 -6.884073 52.870567
v 0.237239 1.692091 52.870567
v -1.492632 -6.884073 53.026008
v -1.492632 1.692091 53.026008
v -1.648064 -6.884073 53.026008
v -1.648064 1.692091 53.026008
v -1.648064 -6.884073 52.870567
v -1.648064 1.692091 52.870567
v -1.492632 -6.884073 52.870567
v -1.492632 1.692091 52.870567
v 0.493409 0.928883 53.004751
v -1.995479 0.928883 53.004751
v 0.493409 0.815958 53.004751
v -1.995479 0.815958 53.004751
v 0.518640 0.815958 52.891824
v -1.970250 0.815958 52.891824
v 0.518640 0.928883 52.891824
v -1.970250 0.928883 52.891824
v 0.493409 -0.450877 53.004751
v -1.995479 -0.450877 53.004751
v 0.493409 -0.563802 53.004751
v -1.995479 -0.563802 53.004751
v 0.518641 -0.563802 52.891824
v -1.970241 -0.563802 52.891824
v 0.518641 -0.450877 52.891824
v -1.970241 -0.450877 52.891824
v 0.493409 -2.033056 53.004751
v -1.995479 -2.033056 53.004751
v 0.493409 -2.145981 53.004751
v -1.995479 -2.145981 53.004751
v 0.493409 -2.145981 52.891824
v -1.995479 -2.145981 52.891824
v 0.493409 -2.033056 52.891824
v -1.995479 -2.033056 52.891824
v 0.493409 -3.708150 53.004751
v -1.995479 -3.708150 53.004751
v 0.493409 -3.821075 53.004751
v -1.995479 -3.821075 53.004751
v 0.493409 -3.821075 52.891824
v -1.995479 -3.821075 52.891824
v 0.493409 -3.708150 52.891824
v -1.995479 -3.708150 52.891824
v 0.493409 -5.518025 53.004751
v -1.995479 -5.518025 53.004751
v 0.493409 -5.630949 53.004751
v -1.995479 -5.630949 53.004751
v 0.493409 -5.630949 52.891824
v -1.995479 -5.630949 52.891824
v 0.493409 -5.518025 52.891824
v -1.995479 -5.518025 52.891824
vt 0.375000 0.000000
vt 0.625000 0.000000
vt 0.375000 0.250000
vt 0.625000 0.250000
vt 0.375000 0.500000
vt 0.625000 0.500000
vt 0.375000 0.750000
vt 0.625000 0.750000
vt 0.375000 1.000000
vt 0.625000 1.000000
vt 0.875000 0.000000
vt 0.875000 0.250000
vt 0.125000 0.000000
vt 0.125000 0.250000
vt 0.375000 0.000000
vt 0.625000 0.000000
vt 0.625000 0.250000
vt 0.375000 0.250000
vt 0.625000 0.500000
vt 0.375000 0.500000
vt 0.625000 0.750000
vt 0.375000 0.750000
vt 0.625000 1.000000
vt 0.375000 1.000000
vt 0.875000 0.000000
vt 0.875000 0.250000
vt 0.125000 0.000000
vt 0.125000 0.250000
vt 0.375000 0.000000
vt 0.625000 0.000000
vt 0.625000 0.250000
vt 0.375000 0.250000
vt 0.625000 0.500000
vt 0.375000 0.500000
vt 0.625000 0.750000
vt 0.375000 0.750000
vt 0.375000 0.000000
vt 0.625000 0.000000
vt 0.625000 0.250000
vt 0.375000 0.250000
vt 0.625000 0.500000
vt 0.375000 0.500000
vt 0.625000 0.750000
vt 0.375000 0.750000
vt 0.375000 0.000000
vt 0.625000 0.000000
vt 0.625000 0.250000
vt 0.375000 0.250000
vt 0.625000 0.500000
vt 0.375000 0.500000
vt 0.625000 0.750000
vt 0.375000 0.750000
vt 0.625000 1.000000
vt 0.375000 1.000000
vt 0.875000 0.000000
vt 0.875000 0.250000
vt 0.125000 0.000000
vt 0.125000 0.250000
vt 0.375000 0.000000
vt 0.625000 0.000000
vt 0.625000 0.250000
vt 0.375000 0.250000
vt 0.625000 0.500000
vt 0.375000 0.500000
vt 0.625000 0.750000
vt 0.375000 0.750000
vt 0.625000 1.000000
vt 0.375000 1.000000
vt 0.875000 0.000000
vt 0.875000 0.250000
vt 0.125000 0.000000
vt 0.125000 0.250000
vt 0.375000 0.000000
vt 0.625000 0.000000
vt 0.625000 0.250000
vt 0.375000 0.250000
vt 0.625000 0.500000
vt 0.375000 0.500000
vt 0.625000 0.750000
vt 0.375000 0.750000
vt 0.625000 1.000000
vt 0.375000 1.000000
vt 0.875000 0.000000
vt 0.875000 0.250000
vt 0.125000 0.000000
vt 0.125000 0.250000
vn -0.000000 0.000000 1.000000
vn -0.000000 0.000000 1.000000
vn -0.000000 0.000000 1.000000
vn -0.000000 0.000000 1.000000
vn -1.000000 0.000000 -0.000000
vn -1.000000 0.000000 -0.000000
vn -1.000000 0.000000 -0.000000
vn -1.000000 0.000000 -0.000000
vn 0.000000 0.000000 -1.000000
vn 0.000000 0.000000 -1.000000
vn 0.000000 0.000000 -1.000000
vn 0.000000 0.000000 -1.000000
vn 1.000000 0.000000 0.000000
vn 1.000000 0.000000 0.000000
vn 1.000000 0.000000 0.000000
vn 1.000000 0.000000 0.000000
vn 0.000000 1.000000 0.000000
vn 0.000000 1.000000 0.000000
vn 0.000000 1.000000 0.000000
vn 0.000000 1.000000 0.000000
vn 0.000000 -1.000000 -0.000000
vn 0.000000 -1.000000 -0.000000
vn 0.000000 -1.000000 -0.000000
vn 0.000000 -1.000000 -0.000000
vn -0.000000 0.000000 1.000000
vn -0.000000 0.000000 1.000000
vn -0.000000 0.000000 1.000000
vn -0.000000 0.000000 1.000000
vn -1.000000 0.000000 -0.000000
vn -1.000000 0.000000 -0.000000
vn -1.000000 0.000000 -0.000000
vn -1.000000 0.000000 -0.000000
vn 0.000000 0.000000 -1.000000
vn 0.000000 0.000000 -1.000000
vn 0.000000 0.000000 -1.000000
vn 0.000000 0.000000 -1.000000
vn 1.000000 0.000000 0.000000
vn 1.000000 0.000000 0.000000
vn 1.000000 0.000000 0.000000
vn 1.000000 0.000000 0.000000
vn 0.000000 1.000000 0.000000
vn 0.000000 1.000000 0.000000
vn 0.000000 1.000000 0.000000
vn 0.000000 1.000000 0.000000
vn 0.000000 -1.000000 -0.000000
vn 0.000000 -1.000000 -0.000000
vn 0.000000 -1.000000 -0.000000
vn 0.000000 -1.000000 -0.000000
vn -0.000000 0.000000 1.000000
vn -0.000000 0.000000 1.000000
vn -0.000000 0.000000 1.000000
vn -0.000000 0.000000 1.000000
vn 0.000000 0.000000 -1.000000
vn 0.000000 0.000000 -1.000000
vn 0.000000 0.000000 -1.000000
vn 0.000000 0.000000 -1.000000
vn -0.000000 0.000000 1.000000
vn -0.000000 0.000000 1.000000
vn -0.000000 0.000000 1.000000
vn -0.000000 0.000000 1.000000
vn 0.000000 0.000000 -1.000000
vn 0.000000 0.000000 -1.000000
vn 0.000000 0.000000 -1.000000
vn 0.000000 0.000000 -1.000000
vn -0.000000 0.000000 1.000000
vn -0.000000 0.000000 1.000000
vn -0.000000 0.000000 1.000000
vn -0.000000 0.000000 1.000000
vn 0.000000 -1.000000 -0.000000
vn 0.000000 -1.000000 -0.000000
vn 0.000000 -1.000000 -0.000000
vn 0.000000 -1.000000 -0.000000
vn 0.000000 0.000000 -1.000000
vn 0.000000 0.000000 -1.000000
vn 0.000000 0.000000 -1.000000
vn 0.000000 0.000000 -1.000000
vn 0.000000 1.000000 0.000000
vn 0.000000 1.000000 0.000000
vn 0.000000 1.000000 0.000000
vn 0.000000 1.000000 0.000000
vn -1.000000 0.000000 -0.000000
vn -1.000000 0.000000 -0.000000
vn -1.000000 0.000000 -0.000000
vn -1.000000 0.000000 -0.000000
vn 1.000000 0.000000 0.000000
vn 1.000000 0.000000 0.000000
vn 1.000000 0.000000 0.000000
vn 1.000000 0.000000 0.000000
vn -0.000000 0.000000 1.000000
vn -0.000000 0.000000 1.000000
vn -0.000000 0.000000 1.000000
vn -0.000000 0.000000 1.000000
vn 0.000000 -1.000000 -0.000000
vn 0.000000 -1.000000 -0.000000
vn 0.000000 -1.000000 -0.000000
vn 0.000000 -1.000000 -0.000000
vn 0.000000 0.000000 -1.000000
vn 0.000000 0.000000 -1.000000
vn 0.000000 0.000000 -1.000000
vn 0.000000 0.000000 -1.000000
vn 0.000000 1.000000 0.000000
vn 0.000000 1.000000 0.000000
vn 0.000000 1.000000 0.000000
vn 0.000000 1.000000 0.000000
vn -1.000000 0.000000 -0.000000
vn -1.000000 0.000000 -0.000000
vn -1.000000 0.000000 -0.000000
vn -1.000000 0.000000 -0.000000
vn 1.000000 0.000000 0.000000
vn 1.000000 0.000000 0.000000
vn 1.000000 0.000000 0.000000
vn 1.000000 0.000000 0.000000
vn -0.000000 0.000000 1.000000
vn -0.000000 0.000000 1.000000
vn -0.000000 0.000000 1.000000
vn -0.000000 0.000000 1.000000
vn 0.000000 -1.000000 -0.000000
vn 0.000000 -1.000000 -0.000000
vn 0.000000 -1.000000 -0.000000
vn 0.000000 -1.000000 -0.000000
vn 0.000000 0.000000 -1.000000
vn 0.000000 0.000000 -1.000000
vn 0.000000 0.000000 -1.000000
vn 0.000000 0.000000 -1.000000
vn 0.000000 1.000000 0.000000
vn 0.000000 1.000000 0.000000
vn 0.000000 1.000000 0.000000
vn 0.000000 1.000000 0.000000
vn -1.000000 0.000000 -0.000000
vn -1.000000 0.000000 -0.000000
vn -1.000000 0.000000 -0.000000
vn -1.000000 0.000000 -0.000000
vn 1.000000 0.000000 0.000000
vn 1.000000 0.000000 0.000000
vn 1.000000 0.000000 0.000000
vn 1.000000 0.000000 0.000000
s off
g LOWPOLY_DOCK:pCube74 dock
usemtl LOWPOLY_DOCK:Adirondack_Chair_lambert2SG
f 73/193/105 74/194/106 76/196/107 75/195/108
f 75/195/109 76/196/110 78/198/111 77/197/112
f 77/197/113 78/198/114 80/200/115 79/199/116
f 79/199/117 80/200/118 74/202/119 73/201/120
f 74/194/121 80/203/122 78/204/123 76/196/124
f 79/205/125 73/193/126 75/195/127 77/206/128
f 81/207/129 82/208/130 84/209/131 83/210/132
f 83/210/133 84/209/134 86/211/135 85/212/136
f 85/212/137 86/211/138 88/213/139 87/214/140
f 87/214/141 88/213/142 82/215/143 81/216/144
f 82/208/145 88/217/146 86/218/147 84/209/148
f 87/219/149 81/207/150 83/210/151 85/220/152
f 89/221/153 90/222/154 92/223/155 91/224/156
f 93/226/157 94/225/158 96/227/159 95/228/160
f 97/229/161 98/230/162 100/231/163 99/232/164
f 101/234/165 102/233/166 104/235/167 103/236/168
f 105/237/169 106/238/170 108/239/171 107/240/172
f 107/240/173 108/239/174 110/241/175 109/242/176
f 109/242/177 110/241/178 112/243/179 111/244/180
f 111/244/181 112/243/182 106/245/183 105/246/184
f 106/238/185 112/247/186 110/248/187 108/239/188
f 111/249/189 105/237/190 107/240/191 109/250/192
f 113/251/193 114/252/194 116/253/195 115/254/196
f 115/254/197 116/253/198 118/255/199 117/256/200
f 117/256/201 118/255/202 120/257/203 119/258/204
f 119/258/205 120/257/206 114/259/207 113/260/208
f 114/252/209 120/261/210 118/262/211 116/253/212
f 119/263/213 113/251/214 115/254/215 117/264/216
f 121/265/217 122/266/218 124/267/219 123/268/220
f 123/268/221 124/267/222 126/269/223 125/270/224
f 125/270/225 126/269/226 128/271/227 127/272/228
f 127/272/229 128/271/230 122/273/231 121/274/232
f 122/266/233 128/275/234 126/276/235 124/267/236
f 127/277/237 121/265/238 123/268/239 125/278/240
