# This file uses centimeters as units for non-parametric coordinates.

mtllib playButton.mtl
g default
v -0.854360 -0.854360 0.128202
v 0.655405 0.000000 0.128202
v -0.854360 0.854360 0.128202
v 0.655405 0.000000 0.128202
v -0.854360 0.854360 -0.128202
v 0.655405 0.000000 -0.128202
v -0.854360 -0.854360 -0.128202
v 0.655405 0.000000 -0.128202
v -0.854360 0.000000 0.128202
v 0.655405 0.000000 0.128202
v 0.655405 0.000000 -0.128202
v -0.854360 0.000000 -0.128202
v -0.854360 0.770477 -0.128202
v 0.655405 0.000000 -0.128202
v 0.655405 0.000000 0.128202
v -0.854360 0.770477 0.128202
v -0.854360 -0.799353 0.128202
v 0.655405 0.000000 0.128202
v 0.655405 0.000000 -0.128202
v -0.854360 -0.799353 -0.128202
v -0.854360 0.854360 0.000000
v 0.655405 0.000000 0.000000
v -0.854360 -0.854360 0.000000
v -0.854360 -0.799353 0.000000
v -0.854360 0.000000 0.000000
v -0.854360 0.770477 0.000000
v -0.819974 -0.834901 0.128202
v -0.819974 -0.834901 -0.128202
v -0.819974 -0.781147 -0.128202
v -0.819974 0.000000 -0.128202
v -0.819974 0.752928 -0.128202
v -0.819974 0.834901 -0.128202
v -0.819974 0.834901 0.000000
v -0.819974 0.834901 0.128202
v -0.819974 0.752928 0.128202
v -0.819974 0.000000 0.128202
v -0.819974 -0.781147 0.128202
v 0.609973 0.000000 -0.128202
v 0.609973 -0.024054 -0.128202
v 0.609972 -0.025710 -0.128202
v 0.609972 -0.025710 0.128202
v 0.609972 -0.024055 0.128202
v 0.609972 0.000000 0.128202
v 0.609973 0.023186 0.128202
v 0.609972 0.025710 0.128202
v 0.609972 0.025710 0.000000
v 0.609972 0.025710 -0.128202
v 0.609972 0.023186 -0.128202
vt 0.375000 0.000000
vt 0.625000 0.000000
vt 0.375000 0.250000
vt 0.625000 0.250000
vt 0.375000 0.500000
vt 0.625000 0.500000
vt 0.375000 0.750000
vt 0.625000 0.750000
vt 0.375000 1.000000
vt 0.625000 1.000000
vt 0.875000 0.000000
vt 0.875000 0.250000
vt 0.125000 0.000000
vt 0.125000 0.250000
vt 0.375000 0.125000
vt 0.625000 0.125000
vt 0.625000 0.625000
vt 0.875000 0.125000
vt 0.125000 0.125000
vt 0.375000 0.625000
vt 0.125000 0.237727
vt 0.375000 0.512273
vt 0.625000 0.512273
vt 0.875000 0.237727
vt 0.625000 0.237727
vt 0.375000 0.237727
vt 0.375000 0.008048
vt 0.625000 0.008048
vt 0.625000 0.741952
vt 0.875000 0.008048
vt 0.125000 0.008048
vt 0.375000 0.741952
vt 0.250000 0.250000
vt 0.375000 0.375000
vt 0.625000 0.375000
vt 0.750000 0.250000
vt 0.250000 0.000000
vt 0.375000 0.875000
vt 0.250000 0.008048
vt 0.250000 0.125000
vt 0.250000 0.237727
vt 0.380694 0.000000
vt 0.380694 1.000000
vt 0.380694 0.750000
vt 0.380694 0.741952
vt 0.380694 0.625000
vt 0.380694 0.512273
vt 0.380694 0.500000
vt 0.380694 0.375000
vt 0.380694 0.250000
vt 0.380694 0.237727
vt 0.380694 0.125000
vt 0.380694 0.008048
vt 0.617477 0.625000
vt 0.617477 0.741952
vt 0.617477 0.750000
vt 0.617477 0.000000
vt 0.617477 1.000000
vt 0.617477 0.008048
vt 0.617477 0.125000
vt 0.617477 0.237727
vt 0.617477 0.250000
vt 0.617477 0.375000
vt 0.617477 0.500000
vt 0.617477 0.512273
vn 0.000000 0.000000 1.000000
vn 0.000000 0.000000 1.000000
vn 0.000000 0.000000 1.000000
vn 0.000000 0.000000 1.000000
vn 0.492501 0.870312 0.000000
vn 0.492501 0.870312 0.000000
vn 0.492500 0.870312 0.000000
vn 0.492501 0.870312 0.000000
vn -0.000000 0.000000 -1.000000
vn -0.000000 0.000000 -1.000000
vn -0.000000 0.000000 -1.000000
vn -0.000000 0.000000 -1.000000
vn 0.492501 -0.870312 0.000000
vn 0.492501 -0.870312 0.000000
vn 0.492501 -0.870312 0.000000
vn 0.492501 -0.870312 0.000000
vn 0.000000 -1.000000 0.000000
vn 0.000000 -0.000000 0.000000
vn 0.000000 0.000000 0.000000
vn 0.000000 0.000000 0.000000
vn -1.000000 0.000000 0.000000
vn -1.000000 0.000000 0.000000
vn -1.000000 0.000000 0.000000
vn -1.000000 0.000000 0.000000
vn 0.000000 0.000000 1.000000
vn 0.000000 0.000000 1.000000
vn 0.000000 -1.000000 0.000000
vn 0.000000 -0.000000 0.000000
vn 0.000000 0.000000 -1.000000
vn 0.000000 0.000000 -1.000000
vn -1.000000 0.000000 0.000000
vn -1.000000 0.000000 0.000000
vn 0.000000 0.000000 -1.000000
vn 0.000000 0.000000 -1.000000
vn 0.000000 0.000000 0.000000
vn 0.000000 0.000000 0.000000
vn 0.000000 0.000000 0.000000
vn 0.000000 0.000000 1.000000
vn 0.000000 0.000000 1.000000
vn -1.000000 0.000000 0.000000
vn -1.000000 0.000000 0.000000
vn 0.000000 0.000000 1.000000
vn 0.000000 0.000000 1.000000
vn 0.000000 1.000000 0.000000
vn 0.000000 0.000000 0.000000
vn 0.000000 0.000000 0.000000
vn 0.000000 1.000000 0.000000
vn 0.000000 0.000000 -1.000000
vn 0.000000 0.000000 -1.000000
vn -1.000000 0.000000 0.000000
vn -1.000000 0.000000 0.000000
vn 0.492501 0.870312 0.000000
vn 0.492501 0.870312 0.000000
vn -1.000000 0.000000 0.000000
vn -1.000000 0.000000 0.000000
vn -1.000000 0.000000 0.000000
vn -1.000000 0.000000 0.000000
vn -1.000000 0.000000 0.000000
vn 0.492500 -0.870312 0.000000
vn 0.492500 -0.870312 0.000000
vn 0.492500 -0.870312 0.000000
vn 0.000000 0.000000 -1.000000
vn 0.000000 0.000000 -1.000000
vn 0.000000 0.000000 -1.000000
vn 0.000000 0.000000 -1.000000
vn 0.000000 0.000000 -1.000000
vn 0.492500 0.870312 0.000000
vn 0.492500 0.870312 0.000000
vn 0.492500 0.870312 0.000000
vn 0.000000 0.000000 1.000000
vn 0.000000 0.000000 1.000000
vn 0.000000 0.000000 1.000000
vn 0.000000 0.000000 1.000000
vn 0.000000 0.000000 1.000000
vn 0.000000 0.000000 -0.000000
vn 0.000000 0.000000 -0.000000
vn 0.000000 0.000000 -0.000000
vn 0.492501 -0.870312 0.000000
vn 0.492501 -0.870312 0.000000
vn 0.000000 0.000000 1.000000
vn 0.000000 0.000000 1.000000
vn 0.000000 0.000000 0.000000
vn 0.000000 0.000000 0.000000
vn 0.000000 0.000000 0.000000
vn 0.492501 0.870312 0.000000
vn 0.492501 0.870312 0.000000
vn 0.492501 0.870312 0.000000
vn 0.000000 0.000000 -0.000000
vn 0.000000 0.000000 -0.000000
s 1
g pCube1
usemtl initialShadingGroup
f 35/51/1 36/52/2 43/60/3 44/61/4
s 2
f 32/48/5 33/49/6 46/63/7 47/64/8
s 3
f 30/46/9 31/47/10 48/65/11 38/54/12
s 4
f 27/43/13 28/44/14 40/56/15 41/58/16
s 5
f 10/16/17 11/18/18 14/24/19 15/25/20
s 6
f 12/19/21 25/40/22 26/41/23 13/21/24
s 1
f 36/52/2 37/53/25 42/59/26 43/60/3
s 5
f 18/28/27 19/30/28 11/18/18 10/16/17
s 3
f 29/45/29 30/46/9 38/54/12 39/55/30
s 6
f 20/31/31 24/39/32 25/40/22 12/19/21
s 3
f 31/47/10 32/48/33 47/64/34 48/65/11
s 5
f 15/25/20 14/24/19 6/12/35 22/36/36 4/4/37
s 1
f 34/50/38 35/51/1 44/61/4 45/62/39
s 6
f 13/21/24 26/41/23 21/33/40 5/14/41
s 1
f 37/53/25 27/42/42 41/57/43 42/59/26
s off
f 2/2/44 8/11/45 19/30/46 18/28/47
s 3
f 28/44/48 29/45/29 39/55/30 40/56/49
s 6
f 7/13/50 23/37/51 24/39/32 20/31/31
s 2
f 33/49/6 34/50/52 45/62/53 46/63/7
s 6
f 24/39/32 23/37/51 1/1/54 17/27/55
f 25/40/22 24/39/32 17/27/55 9/15/56
f 26/41/23 25/40/22 9/15/56 16/26/57
f 21/33/40 26/41/23 16/26/57 3/3/58
s 4
f 7/7/59 28/44/14 27/43/13 1/9/60 23/38/61
s 3
f 20/32/62 29/45/29 28/44/48 7/7/63
f 12/20/64 30/46/9 29/45/29 20/32/62
f 13/22/65 31/47/10 30/46/9 12/20/64
f 5/5/66 32/48/33 31/47/10 13/22/65
s 2
f 21/34/67 33/49/6 32/48/5 5/5/68
f 3/3/69 34/50/52 33/49/6 21/34/67
s 1
f 16/26/70 35/51/1 34/50/38 3/3/71
f 9/15/72 36/52/2 35/51/1 16/26/70
f 17/27/73 37/53/25 36/52/2 9/15/72
f 1/1/74 27/42/42 37/53/25 17/27/73
s 3
f 39/55/30 38/54/12 11/17/75 19/29/76
f 40/56/49 39/55/30 19/29/76 8/8/77
s 4
f 41/58/16 40/56/15 8/8/78 2/10/79
s 1
f 42/59/26 41/57/43 2/2/80 18/28/81
f 43/60/3 42/59/26 18/28/81 10/16/82
f 44/61/4 43/60/3 10/16/82 15/25/83
f 45/62/39 44/61/4 15/25/83 4/4/84
s 2
f 46/63/7 45/62/53 4/4/85 22/35/86
f 47/64/8 46/63/7 22/35/86 6/6/87
s 3
f 48/65/11 47/64/34 6/6/88 14/23/89
f 38/54/12 48/65/11 14/23/89 11/17/75
