# This file uses centimeters as units for non-parametric coordinates.

mtllib playButton.mtl
g default
v -0.127889 0.892140 0.084767
v 0.501741 1.293931 0.084767
v -0.127889 1.695721 0.084767
v -0.127889 1.695721 -0.084767
v 0.501741 1.293931 -0.084767
v -0.127889 0.892140 -0.084767
v -0.127889 1.293931 0.084767
v -0.127889 1.293931 -0.084767
vt 0.375000 0.125000
vt 0.638336 0.093881
vt 0.375000 0.250000
vt 0.626516 0.638295
vt 0.375000 0.500000
vt 0.375000 0.625000
vt 0.375000 0.750000
vt 0.632057 0.999987
vt 0.375000 1.000000
vt 0.125000 0.125000
vt 0.125000 0.250000
vt 0.375000 0.000000
vt 0.125000 0.000000
vn 0.000000 0.000000 1.000000
vn 0.000000 0.000000 1.000000
vn 0.000000 0.000000 1.000000
vn 0.537939 0.842984 0.000000
vn 0.537939 0.842984 0.000000
vn 0.537939 0.842984 0.000000
vn 0.537939 0.842984 0.000000
vn 0.000000 0.000000 -1.000000
vn 0.000000 0.000000 -1.000000
vn 0.000000 0.000000 -1.000000
vn 0.537939 -0.842984 0.000000
vn 0.537939 -0.842984 0.000000
vn 0.537939 -0.842984 0.000000
vn 0.537939 -0.842984 0.000000
vn -1.000000 0.000000 0.000000
vn -1.000000 0.000000 0.000000
vn -1.000000 0.000000 0.000000
vn -1.000000 0.000000 0.000000
vn 0.000000 0.000000 1.000000
vn 0.000000 0.000000 1.000000
vn 0.000000 0.000000 1.000000
vn 0.000000 0.000000 -1.000000
vn 0.000000 0.000000 -1.000000
vn 0.000000 0.000000 -1.000000
vn -1.000000 0.000000 0.000000
vn -1.000000 0.000000 0.000000
vn -1.000000 0.000000 0.000000
vn -1.000000 0.000000 0.000000
s off
g pCube3
usemtl initialShadingGroup
f 7/1/1 2/2/2 3/3/3
f 3/3/4 2/2/5 5/4/6 4/5/7
f 4/5/8 5/4/9 8/6/10
f 6/7/11 5/4/12 2/8/13 1/9/14
f 8/10/15 7/1/16 3/3/17 4/11/18
f 1/12/19 2/2/20 7/1/21
f 8/6/22 5/4/23 6/7/24
f 6/13/25 1/12/26 7/1/27 8/10/28
