# This file uses centimeters as units for non-parametric coordinates.

mtllib road_lowPoly.mtl
g default
v -0.000000 10.000000 -7.041355
v 0.000000 -0.000000 10.658804
v 0.000000 5.000000 4.875425
v -0.000000 10.000000 -0.841808
v 0.000000 -0.000000 22.052519
v 3.835816 -0.000100 22.031094
v -4.458573 -0.000000 21.397697
v -3.835816 -0.000100 22.031094
v 1.414534 10.000000 -7.041355
v 1.414534 10.000000 -0.841808
v 1.414534 5.000000 4.875425
v 1.414534 -0.000000 10.658804
v 1.414534 -0.000000 22.052519
v -1.414534 10.000000 -7.041355
v -1.414534 10.000000 -0.841808
v -1.414534 5.000000 4.875425
v -1.414534 -0.000000 10.658804
v -1.414534 -0.000000 22.052519
v 1.812147 10.000000 -7.041355
v 1.812147 10.000000 -0.841808
v 1.812147 5.000000 4.875425
v 1.812147 -0.000000 10.658803
v 1.812147 -0.000000 22.052519
v -1.812147 10.000000 -7.041355
v -1.812148 10.000000 -0.841808
v -1.812147 5.000000 4.875425
v -1.812147 -0.000000 10.658804
v -1.812147 -0.000000 22.052519
v 1.605580 10.141583 -7.041355
v 1.605579 10.141583 -0.841808
v 1.605580 5.141583 4.875425
v 1.605580 0.141583 10.658803
v 1.605580 0.141583 22.052517
v -1.605578 10.141583 -7.041355
v -1.605580 10.141583 -0.841808
v -1.605578 5.141583 4.875425
v -1.605578 0.141583 10.658804
v -1.605578 0.141583 22.052519
v 0.000000 10.000000 -17.041355
v -1.414534 10.000000 -17.041355
v 4.147196 10.000000 -7.041355
v 7.952589 10.000000 -7.041355
v 7.952589 10.000000 -17.041355
v 4.147196 10.000000 -27.041355
v 4.147196 10.000000 -17.041355
v 7.952589 10.000000 -27.041355
v 1.812147 10.000000 -17.041355
v 4.147196 10.000000 -0.841808
v 4.147196 5.000000 4.875425
v 4.147196 -0.000000 10.658804
v 4.458573 -0.000000 21.397697
v -4.147196 10.000000 -17.041355
v -4.147196 10.000000 -27.041355
v -7.952589 10.000000 -27.041355
v -7.952589 10.000000 -17.041355
v -7.952589 10.000000 -7.041355
v -4.147196 10.000000 -7.041355
v 1.414534 10.000000 -17.041355
v -1.605578 10.141583 -17.041355
v 1.605580 10.141583 -17.041355
v -1.812147 10.000000 -17.041355
v -4.147196 10.000000 -0.841808
v -4.147196 5.000000 4.875425
v -4.147196 -0.000000 10.658804
vt 0.481480 0.125000
vt 0.481480 0.000000
vt 0.500000 0.000000
vt 0.500000 0.125000
vt 0.481480 0.250000
vt 0.500000 0.250000
vt 0.481480 0.375000
vt 0.481480 0.250000
vt 0.500000 0.250000
vt 0.500000 0.375000
vt 0.532593 0.375000
vt 0.532593 0.250000
vt 0.562500 0.250000
vt 0.562500 0.375000
vt 0.532481 0.460443
vt 0.562500 0.500000
vt 0.000000 0.000000
vt 0.296319 0.000000
vt 0.296319 1.000000
vt 0.000000 1.000000
vt 0.520577 0.375000
vt 0.520577 0.250000
vt 0.532593 0.250000
vt 0.520577 0.250000
vt 0.520577 0.125000
vt 0.532593 0.125000
vt 0.520577 0.000000
vt 0.532593 0.000000
vt 0.411746 0.985981
vt 0.478510 0.000000
vt 0.670775 0.000000
vt 0.662404 1.001394
vt 0.437500 0.375000
vt 0.467407 0.375000
vt 0.467519 0.460443
vt 0.437500 0.500000
vt 0.437500 0.250000
vt 0.467407 0.250000
vt 0.518520 0.250000
vt 0.518520 0.375000
vt 0.518520 0.250000
vt 0.518520 0.125000
vt 0.518520 0.000000
vt 0.703681 1.000000
vt 0.703681 0.000000
vt 1.000000 0.000000
vt 1.000000 1.000000
vt 0.480610 0.375000
vt 0.480610 0.250000
vt 0.480610 0.250000
vt 0.480610 0.125000
vt 0.480610 0.000000
vt 0.310240 0.000000
vt 0.312343 1.000000
vt 0.519390 0.375000
vt 0.519390 0.250000
vt 0.519390 0.250000
vt 0.519390 0.125000
vt 0.519390 0.000000
vt 0.689760 0.000000
vt 0.687657 1.000000
vt 0.479423 0.250000
vt 0.479423 0.375000
vt 0.479423 0.250000
vt 0.467407 0.250000
vt 0.467407 0.125000
vt 0.479423 0.125000
vt 0.467407 0.000000
vt 0.479423 0.000000
vt 0.337596 1.001394
vt 0.329225 0.000000
vt 0.521490 0.000000
vt 0.588254 0.985981
vt -0.000613 0.001949
vt 1.060999 0.000008
vt 0.905864 0.121384
vt -0.060999 0.000008
vt 1.000612 0.001949
vt 0.094134 0.121384
vn 0.066437 0.753012 0.654644
vn 0.051208 0.755490 0.653156
vn 0.000000 0.756482 0.654014
vn 0.000000 0.754623 0.656159
vn 0.080666 0.750292 0.656167
vn 0.000000 0.752745 0.658312
vn 0.087841 0.996135 0.000000
vn 0.087841 0.996134 0.000000
vn 0.000000 1.000000 0.000000
vn 0.000000 1.000000 0.000000
vn 0.000000 1.000000 0.000000
vn 0.000000 1.000000 -0.000000
vn 0.000000 1.000000 0.000000
vn 0.000000 1.000000 0.000000
vn 0.000000 1.000000 0.000000
vn 0.000000 1.000000 0.000000
vn 0.087841 0.996134 0.000000
vn 0.000000 1.000000 0.000000
vn -0.000000 1.000000 -0.000000
vn 0.087841 0.996135 -0.000000
vn 0.087841 0.996135 -0.000000
vn -0.000000 1.000000 -0.000000
vn 0.055620 0.998452 0.000000
vn 0.055620 0.998452 -0.000000
vn 0.000000 1.000000 -0.000000
vn 0.055620 0.998452 -0.000000
vn 0.051038 0.751764 0.657454
vn 0.042024 0.753993 0.655537
vn 0.000000 0.754623 0.656159
vn 0.000000 0.752745 0.658312
vn 0.032602 0.756080 0.653667
vn 0.000000 0.756482 0.654014
vn -0.000000 1.000000 -0.000000
vn -0.000000 1.000000 -0.000000
vn 0.053752 0.998554 -0.000000
vn 0.062637 0.998036 -0.000000
vn 0.000000 1.000000 0.000000
vn 0.000000 1.000000 0.000000
vn 0.000000 1.000000 0.000000
vn 0.000000 1.000000 0.000000
vn 0.000000 1.000000 0.000000
vn 0.000000 1.000000 0.000000
vn -0.087841 0.996135 0.000000
vn -0.087841 0.996135 0.000000
vn -0.087841 0.996135 0.000000
vn -0.066437 0.753012 0.654644
vn -0.080666 0.750292 0.656167
vn -0.051208 0.755490 0.653156
vn -0.087841 0.996135 0.000000
vn -0.087841 0.996134 0.000000
vn 0.000000 1.000000 0.000000
vn 0.000000 1.000000 0.000000
vn -0.000000 1.000000 0.000000
vn 0.000000 1.000000 0.000000
vn -0.000000 1.000000 0.000000
vn -0.004867 0.752736 0.658305
vn -0.000007 0.754158 0.656693
vn 0.002921 0.756479 0.654011
vn 0.000000 1.000000 -0.000000
vn 0.000000 1.000000 -0.000000
vn 0.000000 1.000000 0.000000
vn 0.000000 1.000000 0.000000
vn -0.000000 1.000000 0.000000
vn 0.004867 0.752736 0.658305
vn 0.000007 0.754158 0.656693
vn -0.002921 0.756479 0.654011
vn 0.000001 1.000000 -0.000000
vn -0.000000 1.000000 -0.000000
vn -0.055620 0.998452 0.000000
vn -0.055620 0.998452 0.000000
vn -0.055620 0.998452 0.000000
vn 0.000000 1.000000 0.000000
vn 0.000000 0.752745 0.658312
vn 0.000000 0.754623 0.656159
vn -0.042024 0.753993 0.655537
vn -0.051038 0.751764 0.657454
vn 0.000000 0.756482 0.654014
vn -0.032602 0.756080 0.653667
vn -0.062637 0.998036 -0.000000
vn -0.053752 0.998554 -0.000000
vn 0.000000 1.000000 -0.000000
vn 0.000000 1.000000 -0.000000
vn -0.000051 1.000000 0.000208
vn -0.000051 1.000000 0.000208
vn -0.000051 1.000000 0.000208
vn 0.000051 1.000000 0.000208
vn 0.000051 1.000000 0.000208
vn 0.000051 1.000000 0.000208
s 1
g polySurface82 polySurface81 terrain1
usemtl initialShadingGroup
f 16/1/1 17/2/2 2/3/3 3/4/4
f 15/5/5 16/1/1 3/4/4 4/6/6
s 2
f 40/7/7 14/8/8 1/9/9 39/10/10
f 45/11/11 41/12/12 42/13/13 43/14/14
f 44/15/15 45/11/11 43/14/14 46/16/16
f 1/9/9 14/8/8 15/5/17 4/6/18
s 4
f 2/17/19 17/18/20 18/19/21 5/20/22
s 2
f 47/21/23 19/22/24 41/12/12 45/11/11
f 48/23/25 41/12/12 19/22/24 20/24/26
s 1
f 20/24/27 21/25/28 49/26/29 48/23/30
f 21/25/28 22/27/31 50/28/32 49/26/29
s 6
f 51/29/33 50/30/34 22/31/35 23/32/36
s 2
f 55/33/37 52/34/38 53/35/39 54/36/40
f 56/37/41 57/38/42 52/34/38 55/33/37
f 1/9/9 9/39/43 58/40/44 39/10/10
f 10/41/45 9/39/43 1/9/9 4/6/18
s 1
f 3/4/4 11/42/46 10/41/47 4/6/6
f 2/3/3 12/43/48 11/42/46 3/4/4
s 6
f 13/44/49 12/45/50 2/46/51 5/47/52
s 2
f 59/48/53 34/49/54 14/8/8 40/7/7
f 15/5/17 14/8/8 34/49/54 35/50/55
s 1
f 35/50/56 36/51/57 16/1/1 15/5/5
f 36/51/57 37/52/58 17/2/2 16/1/1
s 4
f 18/19/21 17/18/20 37/53/59 38/54/60
s 2
f 60/55/61 29/56/62 19/22/24 47/21/23
f 20/24/26 19/22/24 29/56/62 30/57/63
s 1
f 30/57/64 31/58/65 21/25/28 20/24/27
f 31/58/65 32/59/66 22/27/31 21/25/28
s 6
f 23/32/36 22/31/35 32/60/67 33/61/68
s 2
f 52/34/38 57/38/42 24/62/69 61/63/70
f 25/64/71 24/62/69 57/38/42 62/65/72
s 1
f 62/65/73 63/66/74 26/67/75 25/64/76
f 63/66/74 64/68/77 27/69/78 26/67/75
s 4
f 28/70/79 27/71/80 64/72/81 7/73/82
s 2
f 58/40/44 9/39/43 29/56/62 60/55/61
f 30/57/63 29/56/62 9/39/43 10/41/45
s 1
f 10/41/47 11/42/46 31/58/65 30/57/64
f 11/42/46 12/43/48 32/59/66 31/58/65
s 6
f 33/61/68 32/60/67 12/45/50 13/44/49
s 2
f 61/63/70 24/62/69 34/49/54 59/48/53
f 35/50/55 34/49/54 24/62/69 25/64/71
s 1
f 25/64/76 26/67/75 36/51/57 35/50/56
f 26/67/75 27/69/78 37/52/58 36/51/57
s 4
f 38/54/60 37/53/59 27/71/80 28/70/79
s off
f 28/74/83 7/75/84 8/76/85
f 51/77/86 23/78/87 6/79/88
