# This file uses centimeters as units for non-parametric coordinates.

mtllib skipButton.mtl
g default
v -0.127889 0.892140 0.084767
v 0.501741 1.293931 0.084767
v -0.127889 1.695721 0.084767
v -0.127889 1.695721 -0.084767
v 0.501741 1.293931 -0.084767
v -0.127889 0.892140 -0.084767
v -0.127889 1.293931 0.084767
v -0.127889 1.293931 -0.084767
v -0.127889 1.494826 -0.084767
v -0.127889 1.494826 0.084767
v -0.127889 1.093036 0.084767
v -0.127889 1.093036 -0.084767
vt 0.375000 0.000000
vt 0.653889 0.096110
vt 0.375000 0.250000
vt 0.375000 0.500000
vt 0.629981 0.598735
vt 0.375000 0.750000
vt 0.375000 1.000000
vt 0.636337 0.960485
vt 0.125000 0.000000
vt 0.125000 0.250000
vt 0.375000 0.125000
vt 0.125000 0.125000
vt 0.375000 0.625000
vt 0.125000 0.187500
vt 0.375000 0.562500
vt 0.375000 0.187500
vt 0.375000 0.062500
vt 0.125000 0.062500
vt 0.375000 0.687500
vn 0.000000 0.000000 1.000000
vn 0.000000 0.000000 1.000000
vn 0.000000 0.000000 1.000000
vn 0.537939 0.842983 0.000000
vn 0.537939 0.842983 0.000000
vn 0.537939 0.842983 0.000000
vn 0.537939 0.842983 0.000000
vn 0.000000 0.000000 -1.000000
vn 0.000000 0.000000 -1.000000
vn 0.000000 0.000000 -1.000000
vn 0.537939 -0.842983 0.000000
vn 0.537939 -0.842983 0.000000
vn 0.537939 -0.842983 0.000000
vn 0.537939 -0.842983 0.000000
vn -1.000000 0.000000 0.000000
vn -1.000000 0.000000 0.000000
vn -1.000000 0.000000 0.000000
vn -1.000000 0.000000 0.000000
vn 0.000000 0.000000 1.000000
vn 0.000000 0.000000 -1.000000
vn -1.000000 0.000000 0.000000
vn -1.000000 0.000000 0.000000
vn 0.000000 0.000000 -1.000000
vn 0.000000 0.000000 1.000000
vn -1.000000 0.000000 0.000000
vn -1.000000 0.000000 0.000000
vn 0.000000 0.000000 1.000000
vn 0.000000 0.000000 -1.000000
vn -1.000000 0.000000 0.000000
vn -1.000000 0.000000 0.000000
s 1
g pCube3
usemtl initialShadingGroup
f 7/11/1 2/2/2 10/16/3
s off
f 3/3/4 2/2/5 5/5/6 4/4/7
s 2
f 9/15/8 5/5/9 8/13/10
s off
f 6/6/11 5/5/12 2/8/13 1/7/14
s 3
f 8/12/15 7/11/16 10/16/17 9/14/18
s 1
f 11/17/19 2/2/2 7/11/1
s 2
f 8/13/10 5/5/9 12/19/20
s 3
f 12/18/21 11/17/22 7/11/16 8/12/15
s 2
f 4/4/23 5/5/9 9/15/8
s 1
f 10/16/3 2/2/2 3/3/24
s 3
f 9/14/18 10/16/17 3/3/25 4/10/26
s 1
f 1/1/27 2/2/2 11/17/19
s 2
f 12/19/20 5/5/9 6/6/28
s 3
f 6/9/29 1/1/30 11/17/22 12/18/21
g default
v 0.116712 0.892140 0.084767
v 0.746342 1.293931 0.084767
v 0.116712 1.695721 0.084767
v 0.116712 1.695721 -0.084767
v 0.746342 1.293931 -0.084767
v 0.116712 0.892140 -0.084767
v 0.116712 1.293931 0.084767
v 0.116712 1.293931 -0.084767
v 0.116712 1.494826 -0.084767
v 0.116712 1.494826 0.084767
v 0.116712 1.093036 0.084767
v 0.116712 1.093036 -0.084767
vt 0.375000 0.000000
vt 0.653889 0.096110
vt 0.375000 0.250000
vt 0.375000 0.500000
vt 0.629981 0.598735
vt 0.375000 0.750000
vt 0.375000 1.000000
vt 0.636337 0.960485
vt 0.125000 0.000000
vt 0.125000 0.250000
vt 0.375000 0.125000
vt 0.125000 0.125000
vt 0.375000 0.625000
vt 0.125000 0.187500
vt 0.375000 0.562500
vt 0.375000 0.187500
vt 0.375000 0.062500
vt 0.125000 0.062500
vt 0.375000 0.687500
vn 0.000000 0.000000 1.000000
vn 0.000000 0.000000 1.000000
vn 0.000000 0.000000 1.000000
vn 0.537939 0.842983 0.000000
vn 0.537939 0.842983 0.000000
vn 0.537939 0.842983 0.000000
vn 0.537939 0.842983 0.000000
vn 0.000000 0.000000 -1.000000
vn 0.000000 0.000000 -1.000000
vn 0.000000 0.000000 -1.000000
vn 0.537939 -0.842983 0.000000
vn 0.537939 -0.842983 0.000000
vn 0.537939 -0.842983 0.000000
vn 0.537939 -0.842983 0.000000
vn -1.000000 0.000000 0.000000
vn -1.000000 0.000000 0.000000
vn -1.000000 0.000000 0.000000
vn -1.000000 0.000000 0.000000
vn 0.000000 0.000000 1.000000
vn 0.000000 0.000000 -1.000000
vn -1.000000 0.000000 0.000000
vn -1.000000 0.000000 0.000000
vn 0.000000 0.000000 -1.000000
vn 0.000000 0.000000 1.000000
vn -1.000000 0.000000 0.000000
vn -1.000000 0.000000 0.000000
vn 0.000000 0.000000 1.000000
vn 0.000000 0.000000 -1.000000
vn -1.000000 0.000000 0.000000
vn -1.000000 0.000000 0.000000
s 1
g pCube4
usemtl initialShadingGroup
f 19/30/31 14/21/32 22/35/33
s off
f 15/22/34 14/21/35 17/24/36 16/23/37
s 2
f 21/34/38 17/24/39 20/32/40
s off
f 18/25/41 17/24/42 14/27/43 13/26/44
s 3
f 20/31/45 19/30/46 22/35/47 21/33/48
s 1
f 23/36/49 14/21/32 19/30/31
s 2
f 20/32/40 17/24/39 24/38/50
s 3
f 24/37/51 23/36/52 19/30/46 20/31/45
s 2
f 16/23/53 17/24/39 21/34/38
s 1
f 22/35/33 14/21/32 15/22/54
s 3
f 21/33/48 22/35/47 15/22/55 16/29/56
s 1
f 13/20/57 14/21/32 23/36/49
s 2
f 24/38/50 17/24/39 18/25/58
s 3
f 18/28/59 13/20/60 23/36/52 24/37/51
