# This file uses centimeters as units for non-parametric coordinates.

mtllib window_lowPoly.mtl
g default
v -4.377705 15.000000 -14.637769
v -4.381990 14.074539 -14.637769
v -3.606291 14.074539 -14.637769
v -3.605707 15.000000 -14.637769
vt 0.112359 0.962939
vt 0.112272 0.931536
vt 0.128065 0.931536
vt 0.128077 0.962939
vn 0.000000 0.000000 1.000000
vn 0.000000 0.000000 1.000000
vn 0.000000 0.000000 1.000000
vn 0.000000 0.000000 1.000000
s off
g polySurface93 cabin_b:pCube1 house
usemtl initialShadingGroup
f 1/1/1 2/2/2 3/3/3 4/4/4
g default
v -3.450265 15.000000 -14.637769
v -3.450459 14.074539 -14.637769
v -2.667750 14.074539 -14.637769
v -2.667749 15.000000 -14.637769
vt 0.198535 0.962939
vt 0.198531 0.931536
vt 0.214466 0.931536
vt 0.214466 0.962939
vn 0.000000 0.000000 1.000000
vn 0.000000 0.000000 1.000000
vn 0.000000 0.000000 1.000000
vn 0.000000 0.000000 1.000000
s off
g cabin_b:pCube1 house polySurface89
usemtl initialShadingGroup
f 5/5/5 6/6/6 7/7/7 8/8/8
g default
v -3.608044 13.000000 -14.637769
v -3.607460 13.925461 -14.637769
v -4.390559 13.925461 -14.637769
v -4.394844 13.000000 -14.637769
vt 0.106625 0.931536
vt 0.106637 0.962939
vt 0.090694 0.962939
vt 0.090607 0.931536
vn 0.000000 0.000000 1.000000
vn 0.000000 0.000000 1.000000
vn 0.000000 0.000000 1.000000
vn 0.000000 0.000000 1.000000
s off
g cabin_b:pCube1 house polySurface94
usemtl initialShadingGroup
f 9/9/9 10/10/10 11/11/11 12/12/12
g default
v -2.667750 13.925461 -14.637769
v -3.450849 13.925461 -14.637769
v -3.451043 13.000000 -14.637769
v -2.667750 13.000000 -14.637769
vt 0.257488 0.962939
vt 0.241545 0.962939
vt 0.241541 0.931536
vt 0.257488 0.931536
vn 0.000000 0.000000 1.000000
vn 0.000000 0.000000 1.000000
vn 0.000000 0.000000 1.000000
vn 0.000000 0.000000 1.000000
s off
g cabin_b:pCube1 house polySurface87
usemtl initialShadingGroup
f 13/13/13 14/14/14 15/15/15 16/16/16
g default
v 2.667750 14.074539 -14.637769
v 3.450459 14.074539 -14.637769
v 3.450265 15.000000 -14.637769
v 2.667749 15.000000 -14.637769
vt 0.155294 0.931536
vt 0.171230 0.931536
vt 0.171226 0.962939
vt 0.155294 0.962939
vn 0.000000 0.000000 1.000000
vn 0.000000 0.000000 1.000000
vn 0.000000 0.000000 1.000000
vn 0.000000 0.000000 1.000000
s off
g cabin_b:pCube1 house polySurface91
usemtl initialShadingGroup
f 17/17/17 18/18/18 19/19/19 20/20/20
g default
v 3.605707 15.000000 -14.637769
v 3.606291 14.074539 -14.637769
v 4.381990 14.074539 -14.637769
v 4.377705 15.000000 -14.637769
vt 0.220101 0.962939
vt 0.220113 0.931536
vt 0.235906 0.931536
vt 0.235819 0.962939
vn 0.000000 0.000000 1.000000
vn 0.000000 0.000000 1.000000
vn 0.000000 0.000000 1.000000
vn 0.000000 0.000000 1.000000
s off
g cabin_b:pCube1 house polySurface88
usemtl initialShadingGroup
f 21/21/21 22/22/22 23/23/23 24/24/24
g default
v 4.390559 13.925461 -14.637769
v 3.607460 13.925461 -14.637769
v 3.608044 13.000000 -14.637769
v 4.394844 13.000000 -14.637769
vt 0.192808 0.962939
vt 0.176865 0.962939
vt 0.176877 0.931536
vt 0.192895 0.931536
vn 0.000000 0.000000 1.000000
vn 0.000000 0.000000 1.000000
vn 0.000000 0.000000 1.000000
vn 0.000000 0.000000 1.000000
s off
g cabin_b:pCube1 house polySurface90
usemtl initialShadingGroup
f 25/25/25 26/26/26 27/27/27 28/28/28
g default
v 2.667750 13.000000 -14.637769
v 3.451043 13.000000 -14.637769
v 3.450849 13.925461 -14.637769
v 2.667750 13.925461 -14.637769
vt 0.133712 0.931536
vt 0.149659 0.931536
vt 0.149655 0.962939
vt 0.133712 0.962939
vn 0.000000 0.000000 1.000000
vn 0.000000 0.000000 1.000000
vn 0.000000 0.000000 1.000000
vn 0.000000 0.000000 1.000000
s off
g cabin_b:pCube1 house polySurface92
usemtl initialShadingGroup
f 29/29/29 30/30/30 31/31/31 32/32/32
